<?xml version="1.0" encoding="UTF-8"?>
<svg version="1.1" xmlns="http://www.w3.org/2000/svg" width="512" height="512">
<path d="M0 0 C69.88015293 -1.98941105 147.31693362 16.31260783 199.55615234 64.90307617 C220.83566008 85.09991754 236.23848542 111.15667193 237.16992188 141.14892578 C237.189165 143.20613116 237.19275488 145.26353543 237.18164062 147.32080078 C237.17672607 148.4090918 237.17181152 149.49738281 237.16674805 150.61865234 C236.96824198 164.36138025 234.45422585 176.42469189 228.86914062 189.07080078 C228.33353516 190.34310547 228.33353516 190.34310547 227.78710938 191.64111328 C219.34164516 210.20322897 203.16203301 224.20999532 184.49414062 231.88330078 C168.06532034 237.51717848 152.21991419 237.51427678 135.01460636 237.47763383 C131.23328255 237.47286228 127.45200767 237.48544693 123.67070007 237.49565125 C116.28121293 237.51276755 108.89181109 237.51369419 101.50230929 237.50843834 C95.4902272 237.50438176 89.47817015 237.50585778 83.46608925 237.5111866 C82.6074059 237.51193502 81.74872256 237.51268344 80.8640185 237.51345455 C79.11908067 237.51498617 77.37414285 237.51652452 75.62920503 237.51806951 C59.29880671 237.53176877 42.96845643 237.52637515 26.63805924 237.5148843 C11.73284871 237.50495598 -3.1722376 237.51789024 -18.07742897 237.54181849 C-33.42131203 237.5662634 -48.76513737 237.57580407 -64.10903949 237.56916577 C-72.70775286 237.56568532 -81.30637081 237.56782744 -89.90506935 237.58541679 C-97.22527057 237.60020648 -104.54530915 237.60068659 -111.8655074 237.58334588 C-115.59240879 237.57488851 -119.31902051 237.57255544 -123.04590607 237.58799744 C-152.01803157 237.6993416 -176.89794638 234.17824554 -198.94335938 213.75830078 C-218.67253641 192.43886262 -223.9414843 166.34847516 -223.26269531 138.09912109 C-221.92760847 107.43168188 -203.6272119 81.56964031 -182.06835938 61.13330078 C-169.34308199 49.87215332 -155.23027769 40.78965465 -140.13085938 33.07080078 C-139.39319336 32.68972168 -138.65552734 32.30864258 -137.89550781 31.91601562 C-95.21134771 10.09036774 -47.53276129 1.57934244 0 0 Z " fill="#0869D9" transform="translate(249.130859375,274.92919921875)"/>
<path d="M0 0 C0.6581369 0.00021149 1.3162738 0.00042297 1.99435425 0.00064087 C27.52536905 0.08230111 52.12650012 8.37221727 71.4375 25.375 C72.24445313 26.03886719 73.05140625 26.70273437 73.8828125 27.38671875 C93.36680804 43.90841403 107.2439709 69.2360517 110.2265625 94.6875 C112.27418321 130.48294356 103.9465857 160.13405293 80.0078125 187.11328125 C60.40143029 207.78033659 32.48740581 219.37056878 4.22265625 220.50390625 C-25.74196628 221.00949606 -53.69453276 210.9937661 -75.49047852 190.40454102 C-95.38498189 171.10045954 -108.96147496 145.15994557 -109.765625 117.0390625 C-110.20600584 83.58950631 -100.42582675 55.24724695 -77.1875 30.625 C-55.86002233 10.60533936 -29.19960341 -0.03896992 0 0 Z " fill="#0869D9" transform="translate(255.5625,-0.375)"/>
</svg>
