<?xml version="1.0" encoding="UTF-8"?>
<svg version="1.1" xmlns="http://www.w3.org/2000/svg" width="512" height="512">
<path d="M0 0 C1.01790619 0.00215515 2.03581238 0.0043103 3.08456421 0.00653076 C17.69363523 0.05620146 32.02575853 0.30709809 46.375 3.3125 C47.34985352 3.51117676 48.32470703 3.70985352 49.32910156 3.91455078 C97.7109774 14.03517194 141.69928269 35.9516877 177.375 70.3125 C178.3640332 71.26068604 178.3640332 71.26068604 179.37304688 72.22802734 C188.86130305 81.37247479 197.6012044 90.66984009 205.375 101.3125 C206.23306152 102.46355017 207.09113451 103.61459177 207.94921875 104.765625 C213.98736829 112.95680614 219.34595521 121.47054105 224.375 130.3125 C224.73948242 130.94430176 225.10396484 131.57610352 225.47949219 132.22705078 C247.08534998 169.97532572 256.85198095 212.74189997 256.6875 255.9375 C256.68534485 256.95540619 256.6831897 257.97331238 256.68096924 259.02206421 C256.63129854 273.63113523 256.38040191 287.96325853 253.375 302.3125 C253.07698486 303.77478027 253.07698486 303.77478027 252.77294922 305.26660156 C242.65232806 353.6484774 220.7358123 397.63678269 186.375 433.3125 C185.74287598 433.97185547 185.11075195 434.63121094 184.45947266 435.31054688 C175.31502521 444.79880305 166.01765991 453.5387044 155.375 461.3125 C154.22394983 462.17056152 153.07290823 463.02863451 151.921875 463.88671875 C143.73224019 469.92427396 135.22961724 475.30707302 126.375 480.3125 C125.66778809 480.7146875 124.96057617 481.116875 124.23193359 481.53125 C101.09654164 494.5566741 75.92537591 503.30551461 49.9375 508.625 C49.21860596 508.77235596 48.49971191 508.91971191 47.7590332 509.0715332 C33.08339502 511.86090125 18.55831162 512.66142619 3.64770508 512.62817383 C0.70811513 512.6250221 -2.2304558 512.64854926 -5.16992188 512.67382812 C-18.54306192 512.71848737 -31.43916711 511.51301542 -44.625 509.3125 C-46.33055054 509.03031616 -46.33055054 509.03031616 -48.07055664 508.74243164 C-91.33802759 500.97044532 -132.38793216 480.98345309 -165.625 452.3125 C-166.37007813 451.67828125 -167.11515625 451.0440625 -167.8828125 450.390625 C-181.38779833 438.57948485 -194.05918743 425.82889772 -204.625 411.3125 C-205.48149066 410.16255169 -206.33826433 409.01281411 -207.1953125 407.86328125 C-213.23534209 399.67315742 -218.61867614 391.16870382 -223.625 382.3125 C-224.0271875 381.60528809 -224.429375 380.89807617 -224.84375 380.16943359 C-237.8691741 357.03404164 -246.61801461 331.86287591 -251.9375 305.875 C-252.08485596 305.15610596 -252.23221191 304.43721191 -252.3840332 303.6965332 C-255.35789088 288.05024391 -255.99800362 272.57681954 -255.9375 256.6875 C-255.93534485 255.66959381 -255.9331897 254.65168762 -255.93096924 253.60293579 C-255.88129854 238.99386477 -255.63040191 224.66174147 -252.625 210.3125 C-252.42632324 209.33764648 -252.22764648 208.36279297 -252.02294922 207.35839844 C-241.90232806 158.9765226 -219.9858123 114.98821731 -185.625 79.3125 C-184.99287598 78.65314453 -184.36075195 77.99378906 -183.70947266 77.31445312 C-174.56502521 67.82619695 -165.26765991 59.0862956 -154.625 51.3125 C-153.47394983 50.45443848 -152.32290823 49.59636549 -151.171875 48.73828125 C-142.98224019 42.70072604 -134.47961724 37.31792698 -125.625 32.3125 C-124.91778809 31.9103125 -124.21057617 31.508125 -123.48193359 31.09375 C-100.34654164 18.0683259 -75.17537591 9.31948539 -49.1875 4 C-48.46860596 3.85264404 -47.74971191 3.70528809 -47.0090332 3.5534668 C-31.36274391 0.57960912 -15.88931954 -0.06050362 0 0 Z " fill="#79B6FC" transform="translate(255.625,-0.3125)"/>
<path d="M0 0 C7.88508631 6.7586454 7.88508631 6.7586454 11.12013245 9.84510803 C11.85626266 10.54662491 12.59239288 11.24814178 13.35083008 11.97091675 C14.13296875 12.72051666 14.91510742 13.47011658 15.72094727 14.24243164 C16.56398911 15.04838272 17.40703094 15.8543338 18.27561951 16.68470764 C26.00371575 24.08897074 33.67187388 31.55455629 41.31756687 39.04375553 C46.4446658 44.06334848 51.59135192 49.05899574 56.79223633 54.00219727 C61.35066103 58.33483533 65.86614894 62.70733887 70.33603519 67.13132948 C72.69614609 69.46452044 75.07657832 71.76707539 77.49856758 74.03621101 C93.31427181 88.89515284 93.31427181 88.89515284 93.71606445 97.73173523 C93.49118734 102.23141229 92.7126945 106.496734 91.56458187 110.84742832 C90.82562999 113.66481758 90.40895818 116.50641451 89.9921875 119.38671875 C89.63562458 121.15690881 89.26337555 122.9240164 88.875 124.6875 C88.66254639 125.66968506 88.45009277 126.65187012 88.23120117 127.66381836 C83.6677188 147.94898569 76.94873755 167.24462346 68 186 C67.63825684 186.76070801 67.27651367 187.52141602 66.90380859 188.30517578 C55.89658163 211.06301486 40.49835665 231.83202366 23 250 C22.36787598 250.65935547 21.73575195 251.31871094 21.08447266 251.99804688 C11.94002521 261.48630305 2.64265991 270.2262044 -8 278 C-9.15105017 278.85806152 -10.30209177 279.71613451 -11.453125 280.57421875 C-19.64275981 286.61177396 -28.14538276 291.99457302 -37 297 C-37.70721191 297.4021875 -38.41442383 297.804375 -39.14306641 298.21875 C-62.27845836 311.2441741 -87.44962409 319.99301461 -113.4375 325.3125 C-114.15639404 325.45985596 -114.87528809 325.60721191 -115.6159668 325.7590332 C-130.39788462 328.5686016 -144.98430483 329.32458438 -160.00195312 329.26074219 C-162.99629962 329.25001326 -165.99004644 329.26070818 -168.984375 329.2734375 C-177.88364718 329.28260369 -186.76164554 329.14966369 -195.625 328.296875 C-196.93726563 328.17151367 -198.24953125 328.04615234 -199.6015625 327.91699219 C-203.76719434 326.7929898 -205.06223779 325.11249699 -208 322 C-209.66819902 320.33372108 -211.33656887 318.66761317 -213.00508118 317.00164795 C-213.99792774 316.01026702 -214.99077121 315.01888299 -215.98361206 314.02749634 C-216.50763988 313.50424397 -217.03166771 312.98099159 -217.57157516 312.44188309 C-229.6449145 300.38624377 -241.71537453 288.32772499 -253.7842226 276.26758957 C-260.75950137 269.29748189 -267.73572537 262.32832504 -274.71411133 255.36132812 C-280.8097806 249.27560201 -286.90371097 243.18814104 -292.99552888 237.09855962 C-296.21910124 233.87629379 -299.44355603 230.65492203 -302.67009926 227.4356308 C-305.69851547 224.41396839 -308.72461374 221.39000454 -311.74889946 218.36420822 C-312.8623032 217.25108098 -313.97657265 216.13881892 -315.09174347 215.02746201 C-316.60674215 213.51739394 -318.11867613 212.0043246 -319.62983704 210.49041748 C-320.90323173 209.21840548 -320.90323173 209.21840548 -322.20235157 207.92069626 C-324 206 -324 206 -324 205 C-217.41 205 -110.82 205 -1 205 C-1 194.11 -1 183.22 -1 172 C-5.95 172 -10.9 172 -16 172 C-16 165.4 -16 158.8 -16 152 C-20.95 152 -25.9 152 -31 152 C-31 113.06 -31 74.12 -31 34 C-28.69 34 -26.38 34 -24 34 C-24 29.71 -24 25.42 -24 21 C-16.08 21 -8.16 21 0 21 C0 14.07 0 7.14 0 0 Z " fill="#55A4FB" transform="translate(419,183)"/>
<path d="M0 0 C0 79.2 0 158.4 0 240 C48.51 240 97.02 240 147 240 C147 246.6 147 253.2 147 260 C151.95 260 156.9 260 162 260 C162 270.89 162 281.78 162 293 C55.08 293 -51.84 293 -162 293 C-162 282.11 -162 271.22 -162 260 C-157.05 260 -152.1 260 -147 260 C-147 253.4 -147 246.8 -147 240 C-122.58 240 -98.16 240 -73 240 C-73 200.73 -73 161.46 -73 121 C-75.31 121 -77.62 121 -80 121 C-80 117.04 -80 113.08 -80 109 C-107.06 109 -134.12 109 -162 109 C-162 101.41 -162 93.82 -162 86 C-160.45054687 85.20078125 -158.90109375 84.4015625 -157.3046875 83.578125 C-145.00644198 77.21851285 -132.78255358 70.75023898 -120.64453125 64.08984375 C-114.530356 60.73593581 -108.39180522 57.42797514 -102.25 54.125 C-101.16211182 53.53984619 -100.07422363 52.95469238 -98.95336914 52.35180664 C-96.74048462 51.16178392 -94.52751226 49.97192453 -92.31445312 48.78222656 C-86.87494876 45.85733102 -81.43754369 42.92853845 -76 40 C-69.45419177 36.47457525 -62.90790642 32.95005186 -56.359375 29.4296875 C-45.95389173 23.83427889 -35.55662261 18.22505781 -25.1875 12.5625 C-24.28644531 12.07088379 -23.38539063 11.57926758 -22.45703125 11.07275391 C-18.57381957 8.95365052 -14.69242438 6.83145197 -10.81640625 4.69921875 C-9.62768365 4.04933375 -8.43888854 3.39958138 -7.25 2.75 C-6.26515625 2.20859375 -5.2803125 1.6671875 -4.265625 1.109375 C-2 0 -2 0 0 0 Z " fill="#FEFEFE" transform="translate(256,95)"/>
<path d="M0 0 C4.58062478 1.52687493 8.18714575 3.02221715 12.375 5.2734375 C12.97232941 5.59297897 13.56965881 5.91252045 14.18508911 6.241745 C16.12589579 7.28157592 18.06296973 8.32815368 20 9.375 C21.3590302 10.10507529 22.71824444 10.8348081 24.07763672 11.56420898 C32.65032535 16.16946237 41.19985203 20.81724823 49.73486328 25.49194336 C57.09141438 29.51782575 64.47971108 33.4833947 71.875 37.4375 C81.62119121 42.64894995 91.35179117 47.8880567 101.06640625 53.15820312 C111.56613524 58.85308925 122.0845921 64.51303189 132.60351562 70.17236328 C138.02377477 73.08898634 143.44304795 76.00744004 148.86236572 78.92581177 C151.65039094 80.42717865 154.43847919 81.9284285 157.2265625 83.4296875 C158.80179688 84.27789062 160.37703125 85.12609375 162 86 C162 93.59 162 101.18 162 109 C154.41 109 146.82 109 139 109 C139 113.29 139 117.58 139 122 C136.69 122 134.38 122 132 122 C132 160.94 132 199.88 132 240 C88.44 240 44.88 240 0 240 C0 160.8 0 81.6 0 0 Z " fill="#ECEBEC" transform="translate(256,95)"/>
<path d="M0 0 C97.02 0 194.04 0 294 0 C294 6.6 294 13.2 294 20 C298.95 20 303.9 20 309 20 C309 30.89 309 41.78 309 53 C202.08 53 95.16 53 -15 53 C-15 42.11 -15 31.22 -15 20 C-10.05 20 -5.1 20 0 20 C0 13.4 0 6.8 0 0 Z " fill="#EBEBED" transform="translate(109,335)"/>
<path d="M0 0 C48.51 0 97.02 0 147 0 C147 17.16 147 34.32 147 52 C93.54 52 40.08 52 -15 52 C-15 41.44 -15 30.88 -15 20 C-10.05 20 -5.1 20 0 20 C0 13.4 0 6.8 0 0 Z " fill="#FFFFFF" transform="translate(109,335)"/>
<path d="M0 0 C19.47 0 38.94 0 59 0 C59 4.29 59 8.58 59 13 C56.69 13 54.38 13 52 13 C52 51.94 52 90.88 52 131 C32.53 131 13.06 131 -7 131 C-7 91.73 -7 52.46 -7 12 C-4.69 12 -2.38 12 0 12 C0 8.04 0 4.08 0 0 Z " fill="#DAD7DB" transform="translate(336,204)"/>
<path d="M0 0 C19.47 0 38.94 0 59 0 C59 3.96 59 7.92 59 12 C61.31 12 63.62 12 66 12 C66 51.27 66 90.54 66 131 C46.53 131 27.06 131 7 131 C7 92.06 7 53.12 7 13 C4.69 13 2.38 13 0 13 C0 8.71 0 4.42 0 0 Z " fill="#EBEAEB" transform="translate(117,204)"/>
<path d="M0 0 C5.61 0 11.22 0 17 0 C17 3.96 17 7.92 17 12 C19.31 12 21.62 12 24 12 C24 51.27 24 90.54 24 131 C13.77 131 3.54 131 -7 131 C-7 91.73 -7 52.46 -7 12 C-4.69 12 -2.38 12 0 12 C0 8.04 0 4.08 0 0 Z " fill="#413A6A" transform="translate(277,204)"/>
<path d="M0 0 C5.61 0 11.22 0 17 0 C17 3.96 17 7.92 17 12 C19.31 12 21.62 12 24 12 C24 51.27 24 90.54 24 131 C13.77 131 3.54 131 -7 131 C-7 91.73 -7 52.46 -7 12 C-4.69 12 -2.38 12 0 12 C0 8.04 0 4.08 0 0 Z " fill="#5C5595" transform="translate(218,204)"/>
<path d="M0 0 C13.86 0 27.72 0 42 0 C42 3.96 42 7.92 42 12 C39.69 12 37.38 12 35 12 C35 51.27 35 90.54 35 131 C25.76 131 16.52 131 7 131 C7 91.73 7 52.46 7 12 C4.69 12 2.38 12 0 12 C0 8.04 0 4.08 0 0 Z " fill="#DCD9DD" transform="translate(294,204)"/>
<path d="M0 0 C13.86 0 27.72 0 42 0 C42 3.96 42 7.92 42 12 C39.69 12 37.38 12 35 12 C35 51.27 35 90.54 35 131 C25.76 131 16.52 131 7 131 C7 91.73 7 52.46 7 12 C4.69 12 2.38 12 0 12 C0 8.04 0 4.08 0 0 Z " fill="#EDECED" transform="translate(176,204)"/>
<path d="M0 0 C5.28 0 10.56 0 16 0 C16 4.29 16 8.58 16 13 C18.31 13 20.62 13 23 13 C23 51.94 23 90.88 23 131 C13.1 131 3.2 131 -7 131 C-7 91.73 -7 52.46 -7 12 C-4.69 12 -2.38 12 0 12 C0 8.04 0 4.08 0 0 Z " fill="#3D3668" transform="translate(336,204)"/>
<path d="M0 0 C5.28 0 10.56 0 16 0 C16 3.96 16 7.92 16 12 C18.31 12 20.62 12 23 12 C23 51.27 23 90.54 23 131 C13.1 131 3.2 131 -7 131 C-7 92.06 -7 53.12 -7 13 C-4.69 13 -2.38 13 0 13 C0 8.71 0 4.42 0 0 Z " fill="#595192" transform="translate(160,204)"/>
<path d="M0 0 C6.93 0 13.86 0 21 0 C21 3.96 21 7.92 21 12 C18.69 12 16.38 12 14 12 C14 51.27 14 90.54 14 131 C9.38 131 4.76 131 0 131 C0 87.77 0 44.54 0 0 Z " fill="#DCD9DD" transform="translate(256,204)"/>
<path d="M0 0 C6.93 0 13.86 0 21 0 C21 43.23 21 86.46 21 131 C16.38 131 11.76 131 7 131 C7 91.73 7 52.46 7 12 C4.69 12 2.38 12 0 12 C0 8.04 0 4.08 0 0 Z " fill="#EDECED" transform="translate(235,204)"/>
<path d="M0 0 C7.59 0 15.18 0 23 0 C23 4.29 23 8.58 23 13 C25.31 13 27.62 13 30 13 C30 18.61 30 24.22 30 30 C23.85397771 24.95241573 18.25128263 19.40441039 12.64526367 13.77563477 C11.04525338 12.17019485 9.4398769 10.57025692 7.83398438 8.97070312 C6.81738694 7.95344609 5.8010991 6.93587953 4.78515625 5.91796875 C3.86613525 4.99781982 2.94711426 4.0776709 2.00024414 3.12963867 C0 1 0 1 0 0 Z " fill="#57A5FB" transform="translate(94,204)"/>
</svg>
