<?xml version="1.0" encoding="utf-8"?>
<!-- Generator: Adobe Illustrator 23.0.5, SVG Export Plug-In . SVG Version: 6.00 Build 0)  -->
<svg version="1.1" id="Layer_1" xmlns="http://www.w3.org/2000/svg" xmlns:xlink="http://www.w3.org/1999/xlink" x="0px" y="0px"
	 viewBox="0 0 760.8 400" style="enable-background:new 0 0 760.8 400;" xml:space="preserve">
<style type="text/css">
	.st0{display:none;}
	.st1{display:inline;fill:#EFEFF4;}
	.st2{display:inline;}
	.st3{fill:#7C4FD3;}
	.st4{fill:#EA366E;}
	.st5{fill:#D2D2DB;}
	.st6{fill:#C5C5D1;}
	.st7{fill:#FFFFFF;}
	.st8{fill:#ADA4F7;}
	.st9{fill:#80BAFF;}
	.st10{fill:#FFAF45;}
	.st11{fill:#BDDEFF;}
	.st12{fill:#9364ED;}
	.st13{fill:#F9F9F9;}
	.st14{fill:#EFEFF4;}
	.st15{fill:#FC8165;}
	.st16{fill:none;}
	.st17{fill:#BEBECC;}
	.st18{fill:#50447E;}
	.st19{fill:#AFAFBF;}
	.st20{fill:#C7C7D1;}
	.st21{fill:#FFFFFF;stroke:#050505;stroke-width:0.25;stroke-miterlimit:10;}
	.st22{fill:#1A4EA3;}
	.st23{fill:#FF9E29;}
	.st24{fill:#E4E4EA;}
	.st25{fill:#FFD39F;}
</style>
<g class="st0">
	<rect class="st1" width="760.8" height="400"/>
</g>
<g class="st0">
	<g class="st2">
		<path class="st3" d="M461.8,302.2h-55c-3.1,0-5.7-2.6-5.7-5.7v-29.2c0-3.1,2.6-5.7,5.7-5.7h55c3.1,0,5.7,2.6,5.7,5.7v29.2
			C467.5,299.6,464.9,302.2,461.8,302.2z M406.8,262.6c-2.6,0-4.7,2.1-4.7,4.7v29.2c0,2.6,2.1,4.7,4.7,4.7h55c2.6,0,4.7-2.1,4.7-4.7
			v-29.2c0-2.6-2.1-4.7-4.7-4.7H406.8z"/>
	</g>
	<g class="st2">
		<path class="st3" d="M467,273.9h-65.4c-0.3,0-0.5-0.2-0.5-0.5s0.2-0.5,0.5-0.5H467c0.3,0,0.5,0.2,0.5,0.5
			C467.5,273.7,467.2,273.9,467,273.9z"/>
	</g>
	<g class="st2">
		<path class="st3" d="M409.7,271.3c-1.8,0-3.2-1.4-3.2-3.2c0-1.8,1.4-3.2,3.2-3.2c1.8,0,3.2,1.4,3.2,3.2
			C412.9,269.9,411.5,271.3,409.7,271.3z M409.7,265.9c-1.2,0-2.2,1-2.2,2.2s1,2.2,2.2,2.2s2.2-1,2.2-2.2
			C411.9,266.9,410.9,265.9,409.7,265.9z"/>
	</g>
</g>
<g class="st0">
	<g class="st2">
		<path class="st4" d="M566.8,119h-63.2c-1.9,0-3.4-1.5-3.4-3.4V76.1c0-1.9,1.5-3.4,3.4-3.4h63.2c1.9,0,3.4,1.5,3.4,3.4v39.5
			C570.2,117.5,568.7,119,566.8,119z M503.6,73.8c-1.3,0-2.4,1.1-2.4,2.4v39.5c0,1.3,1.1,2.4,2.4,2.4h63.2c1.3,0,2.4-1.1,2.4-2.4
			V76.1c0-1.3-1.1-2.4-2.4-2.4h-63.2V73.8z"/>
	</g>
	<g class="st2">
		<path class="st4" d="M569.7,81.5h-69c-0.3,0-0.5-0.2-0.5-0.5s0.2-0.5,0.5-0.5h69c0.3,0,0.5,0.2,0.5,0.5
			C570.2,81.2,570,81.5,569.7,81.5z"/>
	</g>
	<g class="st2">
		<path class="st4" d="M507.7,79c-0.1,0-0.2,0-0.3-0.1l-3.7-2.7c-0.2-0.2-0.3-0.5-0.1-0.7c0.2-0.2,0.5-0.3,0.7-0.1l3.7,2.7
			c0.2,0.2,0.3,0.5,0.1,0.7C508,78.9,507.9,79,507.7,79z"/>
	</g>
	<g class="st2">
		<path class="st4" d="M504.1,79c-0.2,0-0.3-0.1-0.4-0.2c-0.2-0.2-0.1-0.5,0.1-0.7l3.7-2.7c0.2-0.2,0.5-0.1,0.7,0.1s0.1,0.5-0.1,0.7
			l-3.7,2.7C504.3,78.9,504.2,79,504.1,79z"/>
	</g>
</g>
<g class="st0">
	<g class="st2">
		<path class="st5" d="M612.2,51.4v68.8c0,1.2,1,2.1,2.1,2.1h97.3c1.2,0,2.1-1,2.1-2.1V51.4c0-1.2-1-2.2-2.1-2.2h-97.3
			C613.2,49.2,612.2,50.2,612.2,51.4z"/>
	</g>
	<g class="st2">
		<rect x="642.5" y="102.8" class="st6" width="59.1" height="2.2"/>
	</g>
	<g class="st2">
		<path class="st7" d="M612.2,51.4v3.4h101.6v-3.4c0-1.2-1-2.2-2.1-2.2h-97.3C613.2,49.2,612.2,50.2,612.2,51.4z"/>
	</g>
	<g class="st2">
		<rect x="623.5" y="67" class="st7" width="14.7" height="14.7"/>
	</g>
	<g class="st2">
		<rect x="623.5" y="84.9" class="st7" width="14.7" height="14.7"/>
	</g>
	<g class="st2">
		<rect x="623.3" y="102.7" class="st7" width="14.7" height="14.7"/>
	</g>
	<g class="st2">
		<rect x="642.5" y="67" class="st7" width="59.1" height="2.2"/>
	</g>
	<g class="st2">
		<rect x="642.5" y="71.5" class="st8" width="59.1" height="2.2"/>
	</g>
	<g class="st2">
		<rect x="642.5" y="84.9" class="st6" width="59.1" height="2.2"/>
	</g>
	<g class="st2">
		<rect x="642.5" y="89.4" class="st8" width="59.1" height="2.2"/>
	</g>
	<g class="st2">
		<rect x="642.5" y="76.5" class="st7" width="59.1" height="2.2"/>
	</g>
	<g class="st2">
		<polygon class="st4" points="630.2,79.4 624.5,75.3 625.8,73.4 629.9,76.3 635.3,70.2 637,71.7 		"/>
	</g>
	<g class="st2">
		<polygon class="st4" points="630.6,97.2 624.8,93.1 626.2,91.2 630.2,94.1 635.6,88 637.3,89.5 		"/>
	</g>
	<g class="st2">
		<path class="st4" d="M624,52c0,0.8,0.6,1.5,1.5,1.5s1.5-0.6,1.5-1.5c0-0.8-0.6-1.5-1.5-1.5S624,51.2,624,52z"/>
	</g>
	<g class="st2">
		<path class="st9" d="M619.8,52c0,0.8,0.7,1.5,1.5,1.5s1.5-0.6,1.5-1.5c0-0.8-0.7-1.5-1.5-1.5S619.8,51.2,619.8,52z"/>
	</g>
	<g class="st2">
		<path class="st10" d="M615.6,52c0,0.8,0.7,1.5,1.5,1.5s1.5-0.6,1.5-1.5c0-0.8-0.6-1.5-1.5-1.5S615.6,51.2,615.6,52z"/>
	</g>
</g>
<g class="st0">
	<g class="st2">
		<circle class="st7" cx="617.4" cy="193.3" r="16.9"/>
	</g>
	<g class="st2">
		<circle class="st9" cx="615.1" cy="193.3" r="16.9"/>
	</g>
	<g class="st2">
		<polygon class="st7" points="613.7,202.4 605.3,192.9 608.3,190.2 613.7,196.3 622.8,185.6 625.9,188.2 		"/>
	</g>
</g>
<g class="st0">
	<g class="st2">
		<g>
			<path id="SVGID_1_" class="st9" d="M431.1,56.6l-3.2,2.6c-3.7,3-7.9,5.3-12.4,6.9l-5.7,2v11c0,12.8,8,24.3,20,28.5
				c0.9,0.3,1.4,0.4,1.4,0.4s1-0.3,2.5-0.9c11.4-4.6,18.8-15.8,18.8-28.1V68.1l-6-2.1c-4.1-1.4-7.9-3.5-11.3-6.1L431.1,56.6z"/>
		</g>
	</g>
	<g class="st2">
		<path class="st11" d="M431.1,63.2l-2.4,2c-2.7,2.2-5.9,4-9.2,5.1l-4.3,1.5V80c0,9.5,5.9,18.1,14.9,21.2c0.6,0.2,1,0.3,1,0.3
			s0.7-0.2,1.9-0.7c8.5-3.4,14-11.7,14-20.9v-8.2l-4.4-1.6c-3-1.1-5.8-2.6-8.4-4.6L431.1,63.2z"/>
	</g>
	<g class="st2">
		<polygon class="st12" points="430,90 422.2,83.2 424.3,80.8 429.7,85.5 438.4,75.5 440.8,77.6 		"/>
	</g>
</g>
<g>
	<g>
		<g>
			<path class="st13" d="M503,352.7H97.6c-9.8,0-17.6-7.8-17.6-17.6v-287c0-9.8,7.8-17.6,17.6-17.6H503c9.8,0,17.6,7.8,17.6,17.6
				v287C520.6,344.7,512.8,352.7,503,352.7z"/>
		</g>
		<g class="st0">
			<g class="st2">
				<path class="st14" d="M261.8,58.3v69.6c0,3.1-2.6,5.6-5.6,5.6h-69.6c-1.3,0-2.4-0.4-3.3-1c-1.4-1-2.3-2.7-2.3-4.6V58.3
					c0-3.2,2.6-5.6,5.6-5.6h69.6C259.2,52.5,261.8,55.1,261.8,58.3z"/>
			</g>
			<g class="st2">
				<path class="st8" d="M254.5,133.5h-68c-1.3,0-2.4-0.4-3.3-1c3.7-19.8,11.6-31.7,19.4-34.5c8.1-2.8,21.4-1.5,30.4,0.1
					c6.5,1.3,12.1,5.4,15,11.3C250.7,114.7,253.4,122.6,254.5,133.5z"/>
			</g>
			<g class="st2">
				<path d="M231.1,71.7c0,0,5.6-9.5,0.9-11.6c-4.7-2.1-10.3,3.2-10.3,3.2s-10.5,0.9-14.5,6.5c-4,5.6,5.8,15.4,5.8,15.4L231.1,71.7z
					"/>
			</g>
			<g class="st2">
				<g>
					<path class="st15" d="M214.9,87.4l-0.6,9.6c0,0,1.5,2.8,7.2,3.7c4.2,0.6,5.8-0.3,5.8-0.3l-0.3-4.9l-0.3-4.7l-10-2.8L214.9,87.4
						z"/>
				</g>
			</g>
			<g class="st2">
				<g>
					<path d="M216.6,87.9c0,0.3,0.1,0.6,0.3,0.9c1.9,5,7.7,6.4,10.1,6.7l-0.3-4.7L216.6,87.9z"/>
				</g>
			</g>
			<g class="st2">
				<g>
					<path class="st15" d="M230.2,68.9c0,0,4.4,12.5,1.9,19c-2.4,6.5-8.5,5.1-12.1,3.5c-3.6-1.5-5.1-4-5.1-4s-3.5,0.9-5.5-2.4
						c-2.1-3.3-0.4-6.9,1.7-7.6c2.1-0.6,4.2,0.9,4.2,0.9l-1.5-3.6C213.8,74.7,222.8,57.5,230.2,68.9z"/>
				</g>
			</g>
			<g class="st2">
				<path d="M214.7,83.6c-0.1,0-0.3,0-0.3-0.1l-4.1-3.3c-0.1-0.1-0.3-0.4,0-0.6c0.1-0.1,0.4-0.3,0.6,0l4.1,3.3
					c0.1,0.1,0.3,0.4,0,0.6C214.9,83.4,214.8,83.6,214.7,83.6z"/>
			</g>
			<g class="st2">
				<path d="M210.7,83.2c-0.3,0-0.4-0.1-0.4-0.4c0-0.3,0.1-0.5,0.4-0.5l3-0.5c0.3,0,0.5,0.1,0.5,0.4c0,0.3-0.1,0.5-0.4,0.5
					L210.7,83.2L210.7,83.2z"/>
			</g>
			<g class="st2">
				<path d="M221.9,74.1c-0.1,0-0.3,0-0.3-0.1c-0.1-0.1-0.3-0.4,0-0.6c1.4-1.7,3.2-1.2,4-0.8c0.3,0.1,0.3,0.4,0.1,0.6
					s-0.4,0.3-0.6,0.1c0,0-1.5-0.9-2.8,0.6C222.1,74.1,222,74.1,221.9,74.1z"/>
			</g>
			<g class="st2">
				<path d="M231.2,73.7c-0.1,0-0.3,0-0.3-0.1c-0.9-0.9-2.1-0.4-2.1-0.4c-0.3,0.1-0.5,0-0.6-0.1c-0.1-0.3,0-0.5,0.1-0.6
					c0.1,0,1.7-0.8,3.1,0.5c0.1,0.1,0.1,0.4,0,0.6C231.5,73.7,231.4,73.7,231.2,73.7z"/>
			</g>
			<g class="st2">
				<path d="M228.5,83.3h-0.1c-0.3-0.1-0.4-0.4-0.3-0.5c1.3-3.3-0.4-5.3-0.4-5.4c-0.1-0.1-0.1-0.5,0-0.6c0.1-0.1,0.5-0.1,0.6,0
					c0.1,0.1,2.1,2.4,0.6,6.3C228.9,83.2,228.8,83.3,228.5,83.3z"/>
			</g>
			<g class="st2">
				<path d="M231,78.3c-0.3,0-0.4-0.1-0.4-0.4l-0.5-2.3c0-0.3,0.1-0.5,0.4-0.5c0.3,0,0.5,0.1,0.5,0.4l0.5,2.3
					C231.4,78,231.2,78.3,231,78.3L231,78.3z"/>
			</g>
			<g class="st2">
				<path d="M223.9,78.5c-0.3,0-0.4-0.1-0.4-0.4l-0.5-2.3c0-0.3,0.1-0.5,0.4-0.5s0.5,0.1,0.5,0.4l0.5,2.3
					C224.3,78.2,224.2,78.4,223.9,78.5L223.9,78.5z"/>
			</g>
			<g class="st2">
				<path d="M231.1,71.7c0,0-0.9-2.1-3.3-2.2c-2.4-0.1-4,1.4-4,1.4s0.8,4.1-2.6,6c-3.5,1.9-5.9,1.2-5.9,1.2l-2.3-1l-1.5-3.6l7.3-6.9
					l9.2-4.1l4.2,4.4L231.1,71.7z"/>
			</g>
			<g class="st2">
				<path d="M226.4,86.5c-0.4,0-2.6-0.1-3.5-2.3c-0.1-0.3,0-0.5,0.3-0.5c0.3-0.1,0.5,0,0.5,0.3c0.6,1.8,2.6,1.7,2.7,1.7
					c0.3,0,0.4,0.1,0.4,0.4C226.9,86.2,226.7,86.5,226.4,86.5C226.5,86.5,226.5,86.5,226.4,86.5z"/>
			</g>
			<g class="st2">
				<path class="st7" d="M224.4,101.5c-6,0-10.1-4-10.4-4.1c-0.1-0.1-0.1-0.4,0-0.6c0.1-0.1,0.4-0.1,0.6,0c0,0,5.6,5.3,13,3.5
					c0.3,0,0.5,0.1,0.5,0.3c0,0.3-0.1,0.5-0.3,0.5C226.6,101.4,225.6,101.5,224.4,101.5z"/>
			</g>
			<g class="st2">
				<path class="st7" d="M243.9,132.7c-0.3,0-0.4-0.1-0.4-0.4v-10.7c0-0.3,0.1-0.4,0.4-0.4c0.3,0,0.4,0.1,0.4,0.4v10.7
					C244.3,132.6,244.1,132.7,243.9,132.7z"/>
			</g>
		</g>
		<g>
			<line class="st16" x1="118.2" y1="216.7" x2="118.2" y2="214.9"/>
			<line class="st16" x1="363.3" y1="214.9" x2="363.3" y2="216.7"/>
		</g>
		<g>
			<line class="st16" x1="118.2" y1="217.4" x2="118.2" y2="215.6"/>
			<line class="st16" x1="315.6" y1="215.6" x2="315.6" y2="217.4"/>
		</g>
		<g>
			<line class="st16" x1="118.2" y1="230.1" x2="118.2" y2="228.3"/>
			<line class="st16" x1="250.9" y1="228.3" x2="250.9" y2="230.1"/>
		</g>
	</g>
	<g class="st0">
		<g class="st2">
			<path class="st17" d="M514.5,321.8H406.8c-6,0-10.9-4.9-10.9-10.9V210.2c0-6,4.9-10.9,10.9-10.9h107.7c6,0,10.9,4.9,10.9,10.9
				v100.6C525.5,316.9,520.7,321.8,514.5,321.8z"/>
		</g>
		<g class="st2">
			<path class="st5" d="M491.8,321.8H384.1c-6,0-10.9-4.9-10.9-10.9V210.2c0-6,4.9-10.9,10.9-10.9h107.7c6,0,10.9,4.9,10.9,10.9
				v100.6C502.7,316.9,497.8,321.8,491.8,321.8z"/>
		</g>
		<g class="st2">
			<path class="st15" d="M405.2,216.4c-0.5,0.9-5,9.9,0.1,17.2c6.9,10,12.7,2.4,12.7,2.4v-15L405.2,216.4z"/>
		</g>
		<g class="st2">
			<g>
				<g>
					<path class="st9" d="M404.9,238l8.7-3.7c0.9-0.4,1.4-1.5,1-2.4l-9.2-22.2c-0.4-0.9-1.5-1.4-2.4-1l-8.7,3.7
						c-0.9,0.4-1.4,1.5-1,2.4l9.2,22.2C402.8,238,404,238.4,404.9,238z"/>
				</g>
				<g>
					<path class="st7" d="M407.3,236.9l8.7-3.7c0.9-0.4,1.4-1.5,1-2.4l-9.2-22.2c-0.4-0.9-1.5-1.4-2.4-1l-8.7,3.7
						c-0.9,0.4-1.4,1.5-1,2.4l9.2,22.2C405.2,236.9,406.3,237.3,407.3,236.9z"/>
				</g>
			</g>
			<g>
				<path class="st9" d="M412.7,231.4c0.1,0.9-0.5,1.8-1.5,1.9c-0.9,0.1-1.8-0.5-1.9-1.5c-0.1-0.9,0.5-1.8,1.5-1.9
					C411.7,229.8,412.6,230.4,412.7,231.4z"/>
			</g>
		</g>
		<g class="st2">
			<path class="st15" d="M422.4,235.4c0,0,1.4-9.2-0.6-11.9s-7.7-5.5-11.3-4.2c-3.6,1.3,4.2,5.9,4.2,5.9s-2.8,9,0.3,12.7
				C417.7,241.4,422.4,235.4,422.4,235.4z"/>
		</g>
		<g class="st2">
			<path d="M416.3,239.2L416.3,239.2c-3.7-0.9-3.3-8.2-3.2-8.6c0-0.3,0.3-0.4,0.5-0.4c0.3,0,0.4,0.3,0.4,0.5c-0.1,1.9,0,7.1,2.6,7.7
				c0.3,0,0.4,0.3,0.4,0.5C416.7,239.1,416.6,239.2,416.3,239.2z"/>
		</g>
		<g class="st2">
			<path class="st3" d="M451.1,221.4c0,0-16.2,13.2-17.2,12.7c-1-0.5-9.6-6.5-9.6-6.5l-15.1,11.3c0,0,11.4,29,28,28.2
				c16.4-0.6,21.8-20.2,21.8-20.2L451.1,221.4z"/>
		</g>
		<g class="st2">
			<path class="st18" d="M432.7,244.9h-0.1c-0.4,0-0.8-0.3-0.9-0.6c-1.3-2.1,1.4-9.5,1.8-10.4c0.1-0.1,0.3-0.3,0.5-0.3
				c0.3,0,0.4,0.1,0.4,0.4c0.1,0.9,1.2,8.7-0.6,10.5C433.5,244.8,433.1,244.9,432.7,244.9z M433.6,236c-1,3-1.9,6.8-1.3,7.8
				c0.1,0.1,0.1,0.1,0.3,0.3c0.1,0,0.3,0,0.4-0.1C434,243,433.9,239.1,433.6,236z"/>
		</g>
		<g class="st2">
			<polygon class="st15" points="365.9,306.4 354.8,317.5 338.5,304.3 350.3,289.7 			"/>
		</g>
		<g class="st2">
			<path class="st19" d="M525.3,317.5v7.3c0,1.9-0.1,3.9-0.4,5.6c-1.2,9.1-5.3,15.8-10,15.8H397.4c-4.9,0-8.9-6.7-10-15.8
				c-0.3-1.8-0.4-3.7-0.4-5.6v-7.3c0-11.8,4.6-21.4,10.4-21.4h117.4C520.7,296.1,525.3,305.7,525.3,317.5z"/>
		</g>
		<g class="st2">
			<path class="st4" d="M460,270.2c0,0-48.1-19-65.6-19c-17.5,0-49.7,39-49.7,39l24.6,18.1l37.2-24.8L460,270.2z"/>
		</g>
		<g class="st2">
			<path class="st10" d="M352.3,296.1c-0.1,0-0.1,0-0.3-0.1c-0.1-0.1-0.3-0.3-0.1-0.4c0.4-1.5,0.9-5.8,0-7.2
				c-0.1-0.1-0.3-0.3-0.5-0.3c-1.5-0.4-5.1,1.7-6.4,2.4c-0.3,0.1-0.5,0.1-0.6-0.1c-0.1-0.3-0.1-0.5,0.1-0.6c0.5-0.3,5-3.1,7.1-2.6
				c0.4,0.1,0.8,0.4,1,0.6c1,1.5,0.5,5.3,0.3,6.9c1.3-0.6,3.6-1.7,4.6-1.2c0.3,0.1,0.3,0.4,0.3,0.5c-0.1,0.3-0.4,0.3-0.5,0.3
				c-0.8-0.4-3.2,0.8-4.6,1.7C352.4,296.1,352.3,296.1,352.3,296.1z"/>
		</g>
		<g class="st2">
			<path class="st17" d="M508.7,317.8v7.3c0,1.9-0.1,3.9-0.4,5.6c-1.3,9.1-5.4,15.8-10.3,15.8H377.8c-4.9,0-9.1-6.7-10.3-15.8
				c-0.3-1.8-0.4-3.7-0.4-5.6v-7.3c0-11.8,4.7-21.4,10.7-21.4h120.3C503.9,296.4,508.7,306,508.7,317.8z"/>
		</g>
		<g class="st2">
			<ellipse class="st5" cx="375" cy="294.1" rx="20.5" ry="20.5"/>
		</g>
		<g class="st2">
			<path class="st19" d="M384.1,294.1c0,5-4.1,9.1-9.1,9.1c-5,0-9.1-4.1-9.1-9.1s4.1-9.1,9.1-9.1C380,284.9,384.1,289.1,384.1,294.1
				z"/>
		</g>
		<g class="st2">
			<path class="st17" d="M388.7,366.7h-0.9c-2.2,0-3.9-1.5-4.2-3.7l-3-22.3h13.2l-0.9,21.9C392.8,364.9,391,366.7,388.7,366.7z"/>
		</g>
		<g class="st2">
			<path class="st17" d="M414.6,366.7h-0.9c-2.2,0-3.9-1.5-4.2-3.7l-3-22.3h13.2l-0.9,21.9C418.9,364.9,417,366.7,414.6,366.7z"/>
		</g>
		<g class="st2">
			<path class="st17" d="M487.7,366.7h0.9c2.2,0,3.9-1.5,4.2-3.7l3-22.3h-13.2l0.9,21.9C483.4,364.9,485.4,366.7,487.7,366.7z"/>
		</g>
		<g class="st2">
			<path class="st19" d="M513.9,365.2h0.9c2.2,0,3.9-1.5,4.2-3.7l3-22.3h-13.2l0.9,21.9C509.8,363.4,511.7,365.2,513.9,365.2z"/>
		</g>
		<g class="st2">
			<path class="st19" d="M479.9,303.7c0,3.2-14.9,5.8-33.2,5.8s-33.2-2.6-33.2-5.8s14.9-5.8,33.2-5.8S479.9,300.5,479.9,303.7z"/>
		</g>
		<g class="st2">
			<polygon class="st15" points="408.1,352.5 406.7,368.1 385.6,368.1 385.6,349.4 			"/>
		</g>
		<g class="st2">
			<path class="st4" d="M485.4,272.9c0,0,2.2,22.1-3.9,24.9c-6,2.8-46.8,7.2-49.2,9s-17.3,51-17.3,51l-37-3.3
				c0,0,13.3-65.5,23.1-71.4c7.3-4.5,48.8-12.3,48.8-12.3L485.4,272.9z"/>
		</g>
		<g class="st2">
			<path class="st10" d="M431.8,307.4c-0.1,0-0.1,0-0.3,0c-0.3-0.1-6.4-3.9-6.9-7.1c-0.1-0.8,0-1.3,0.5-1.9c0.5-0.6,1-0.6,1.4-0.6
				c2.6,0.4,5.4,8.2,5.6,9c0,0.1,0,0.4-0.1,0.5C432,307.4,431.8,307.4,431.8,307.4z M426.3,298.7c-0.1,0-0.4,0-0.5,0.4
				c-0.3,0.4-0.4,0.8-0.3,1.2c0.4,1.9,3.5,4.4,5.5,5.8C429.7,302.9,427.7,298.9,426.3,298.7L426.3,298.7z"/>
		</g>
		<g class="st2">
			<path class="st10" d="M404.3,279.3C404.1,279.3,404.1,279.3,404.3,279.3c-0.8-0.1-6.2-1.8-6.9-4.1c-0.3-0.6-0.1-1.3,0.4-1.9
				c0.6-0.8,1.3-0.9,1.7-0.8c2.4,0.3,4.9,5.6,5.1,6.3c0.1,0.1,0,0.4-0.1,0.5C404.5,279.3,404.4,279.3,404.3,279.3z M399.2,273.3
				c-0.3,0-0.5,0.1-0.8,0.5c-0.3,0.4-0.4,0.8-0.3,1.2c0.5,1.4,3.5,2.7,5.3,3.2C402.5,276.3,400.7,273.5,399.2,273.3L399.2,273.3z"/>
		</g>
		<g class="st2">
			<g>
				<path class="st3" d="M483.2,274.5c0,0,6.2-41.1,4.2-44.2c-6.2-9.8-26.7-14-36.5-8.9c-6,3.2-4.1,14.4-6.7,32.7
					c-1.4,10.3-1.5,14.1-1.5,14.1L483.2,274.5z"/>
			</g>
		</g>
		<g class="st2">
			<g>
				<g>
					<g>
						<g>
							<path class="st15" d="M461.5,215.1v0.3l-0.4,4.2l-0.3,3.3c0,0-0.4,0.8,3.5,1c5.1,0.3,7.2-1.7,7.2-1.7l1.3-7.7l-1.5,0.1
								L461.5,215.1z"/>
						</g>
					</g>
				</g>
			</g>
		</g>
		<g class="st2">
			<g>
				<g>
					<g>
						<g>
							<path d="M461.4,215.4l-0.4,4.2c2.6,0,7.2-0.5,9.5-4.1c0.1-0.3,0.3-0.5,0.4-0.8L461.4,215.4L461.4,215.4z"/>
						</g>
					</g>
				</g>
			</g>
		</g>
		<g class="st2">
			<g>
				<g>
					<g>
						<g>
							<path class="st15" d="M462.4,195.1c0,0-6.2,10.3-5.3,16.7c0.9,6.4,6.7,6.2,10.1,5.4c3.5-0.8,5.3-2.6,5.3-2.6s3,1.4,5.5-1.2
								c2.4-2.7,1.7-6.2-0.1-7.2c-1.7-1-4,0-4,0l2.1-3C476.1,203.3,471.1,186.2,462.4,195.1z"/>
						</g>
					</g>
				</g>
			</g>
		</g>
		<g class="st2">
			<rect x="472.7" y="273.5" class="st17" width="52.9" height="41.1"/>
		</g>
		<g class="st2">
			<ellipse class="st5" cx="472.6" cy="294.1" rx="20.5" ry="20.5"/>
		</g>
		<g class="st2">
			<path class="st19" d="M481.8,294.1c0,5-4.1,9.1-9.1,9.1c-5,0-9.1-4.1-9.1-9.1s4.1-9.1,9.1-9.1
				C477.7,284.9,481.8,289.1,481.8,294.1z"/>
		</g>
		<g class="st2">
			<path class="st18" d="M465.6,224.6c-3.5,0-5.9-1.2-6-1.3c-0.3-0.1-0.3-0.4-0.1-0.5c0.1-0.3,0.4-0.3,0.5-0.1c0,0,5.5,2.7,11.4-0.1
				c0.3-0.1,0.5,0,0.5,0.3c0.1,0.3,0,0.5-0.3,0.5C469.6,224.2,467.4,224.6,465.6,224.6z"/>
		</g>
		<g class="st2">
			<path class="st18" d="M443.4,260.9L443.4,260.9c-0.3,0-0.5-0.3-0.4-0.5l2.2-14.1c0-0.3,0.3-0.4,0.5-0.4c0.3,0,0.4,0.3,0.4,0.5
				l-2.2,14.1C443.8,260.8,443.7,260.9,443.4,260.9z"/>
		</g>
		<g>
			<g class="st2">
				<g>
					<path class="st7" d="M535.2,284.4c-5.1,10.4-13.7,16.7-19.1,14c-5.4-2.7-5.5-13.2-0.4-23.6c5.1-10.4,13.7-16.7,19.1-14
						C540.2,263.5,540.3,274,535.2,284.4z"/>
				</g>
			</g>
			<g class="st2">
				<g>
					<path class="st7" d="M479.9,283.8c10.1,5.6,15.9,14.5,13.1,19.8c-3,5.3-13.5,4.9-23.6-0.9c-10.1-5.6-15.9-14.5-13.1-19.8
						C459.2,277.6,469.7,278,479.9,283.8z"/>
				</g>
			</g>
			<g class="st2">
				<g>
					<path class="st7" d="M477.7,325.9c-8.5-1.3-14.9-5.9-14.2-10.3s8.1-6.9,16.7-5.6c8.5,1.3,14.9,5.9,14.2,10.3
						C493.7,324.6,486.3,327.2,477.7,325.9z"/>
				</g>
			</g>
			<g class="st2">
				<g>
					<path class="st7" d="M527,295.9c9.2-7.1,19.8-8.9,23.4-4c3.6,4.7-1,14.4-10.3,21.3c-9.2,7.1-19.8,8.9-23.4,4
						C513.1,312.3,517.7,302.8,527,295.9z"/>
				</g>
			</g>
			<g class="st2">
				<path class="st3" d="M504,333.8c-0.1,0-0.4-0.1-0.4-0.3c-6.2-19.8-27.2-16.8-27.3-16.7c-0.3,0-0.5-0.1-0.5-0.4
					c0-0.3,0.1-0.5,0.4-0.5c0.3,0,21.9-3.1,28.4,17.3C504.5,333.5,504.4,333.7,504,333.8C504.1,333.8,504.1,333.8,504,333.8z"/>
			</g>
			<g class="st2">
				<path class="st3" d="M505.8,332.3c-0.3,0-0.4-0.1-0.4-0.4c-5.6-24.1-26.7-37.9-27-38c-0.3-0.1-0.3-0.4-0.1-0.6
					c0.1-0.3,0.4-0.3,0.6-0.1c0.3,0.1,21.6,14,27.3,38.6C506.3,332.1,506.2,332.2,505.8,332.3C505.9,332.3,505.8,332.3,505.8,332.3z
					"/>
			</g>
			<g class="st2">
				<path class="st3" d="M504.4,342.1c-0.3,0-0.4-0.1-0.4-0.4c-3.1-23.7,21.8-66.5,22.1-66.9c0.1-0.3,0.4-0.3,0.6-0.1
					c0.3,0.1,0.3,0.4,0.1,0.6c-0.3,0.4-24.9,42.9-21.9,66.4C504.9,341.8,504.6,342.1,504.4,342.1L504.4,342.1z"/>
			</g>
			<g class="st2">
				<path class="st3" d="M506.8,330.5c-0.3,0-0.5-0.3-0.4-0.5c0-0.1,2.7-17.8,31.2-30.9c0.3-0.1,0.5,0,0.5,0.3
					c0.1,0.3,0,0.5-0.3,0.5c-28.1,13-30.7,30.2-30.8,30.3C507.2,330.4,507.1,330.5,506.8,330.5z"/>
			</g>
			<g class="st2">
				<g>
					<path class="st20" d="M520.7,367.2h-24c-1.3,0-2.4-0.9-2.6-2.2l-3.7-34.9c-0.1-1.4,1-2.6,2.6-2.6h31.3c1.5,0,2.7,1.2,2.6,2.6
						l-3.7,34.9C523,366.3,522,367.2,520.7,367.2z"/>
				</g>
			</g>
			<g class="st2">
				<g>
					<path class="st5" d="M515.3,367.2h-24c-1.3,0-2.4-0.9-2.6-2.2l-3.7-34.9c-0.1-1.4,1-2.6,2.6-2.6H519c1.5,0,2.7,1.2,2.6,2.6
						l-3.7,34.9C517.7,366.3,516.6,367.2,515.3,367.2z"/>
				</g>
			</g>
		</g>
		<g class="st2">
			<g>
				<path class="st8" d="M407.6,217.7c0,1.5-1.3,2.8-2.8,2.8s-2.8-1.3-2.8-2.8s1.3-2.8,2.8-2.8S407.6,216.1,407.6,217.7z"/>
			</g>
			<g>
				<path class="st8" d="M410,223.8l-4.4,1.8l-1.3-3.1c-0.5-1.2,0-2.6,1.3-3.1c1.2-0.5,2.6,0,3.1,1.3L410,223.8z"/>
			</g>
		</g>
		<g class="st2">
			<path d="M473.2,211.4c-0.1,0-0.3,0-0.4-0.1c-0.1-0.1-0.1-0.5,0-0.6l3.5-2.8c0.1-0.1,0.5-0.1,0.6,0c0.1,0.1,0.1,0.5,0,0.6
				l-3.5,2.8C473.3,211.4,473.3,211.4,473.2,211.4z"/>
		</g>
		<g class="st2">
			<path d="M476.8,211C476.6,211,476.6,211,476.8,211l-2.4-0.4c-0.3,0-0.4-0.3-0.4-0.5c0-0.3,0.3-0.4,0.5-0.4l2.4,0.4
				c0.3,0,0.4,0.3,0.4,0.5C477.2,210.9,476.9,211,476.8,211z"/>
		</g>
		<g class="st2">
			<path d="M468.6,201.3h-0.1l-2.6-0.9c-0.3-0.1-0.4-0.4-0.3-0.5c0.1-0.3,0.4-0.4,0.5-0.3l2.6,0.9c0.3,0.1,0.4,0.4,0.3,0.5
				C468.9,201.1,468.7,201.3,468.6,201.3z"/>
		</g>
		<g class="st2">
			<path d="M462.7,200.1l-1.9-0.1c-0.3,0-0.4-0.3-0.4-0.5c0-0.3,0.3-0.4,0.5-0.4l1.9,0.1c0.3,0,0.4,0.3,0.4,0.5
				C463.2,200,462.9,200.1,462.7,200.1z"/>
		</g>
		<g class="st2">
			<path d="M462.3,208.6c-0.1,0-0.4-0.1-0.4-0.3c-0.8-2.6,1.2-4.9,1.3-4.9c0.1-0.1,0.4-0.3,0.6,0c0.1,0.1,0.3,0.4,0,0.6
				c0,0-1.7,2.1-1.2,4.1C462.7,208.3,462.5,208.4,462.3,208.6L462.3,208.6z"/>
		</g>
		<g class="st2">
			<path d="M466.6,205.6L466.6,205.6c-0.4-0.1-0.5-0.3-0.4-0.5l0.5-1.9c0-0.3,0.3-0.4,0.5-0.3c0.3,0,0.4,0.3,0.3,0.5l-0.5,1.9
				C467,205.5,466.9,205.6,466.6,205.6z"/>
		</g>
		<g class="st2">
			<path d="M460.6,204.5C460.6,204.5,460.5,204.5,460.6,204.5c-0.4-0.1-0.5-0.3-0.4-0.5l0.5-1.9c0-0.3,0.3-0.4,0.5-0.3
				c0.3,0,0.4,0.3,0.3,0.5l-0.5,1.9C461,204.3,460.7,204.5,460.6,204.5z"/>
		</g>
		<g class="st2">
			<g>
				<path class="st10" d="M381.1,363c0,0,1.3-6.9,4.5-7.3c3.3-0.4,8,7.3,8,7.3s12.8-1,13.7,0s0.9,22.7,0,23.1
					c-0.9,0.4-54.2,0.4-56.6,0c-2.4-0.4,1-11.6,5.8-13.5c4.7-1.9,9.9-1.9,9.9-1.9L381.1,363z"/>
			</g>
		</g>
		<g class="st2">
			<g>
				<path class="st10" d="M339.7,296.2c0,0,5.3-4.6,8.1-2.8c2.8,1.8,1.7,10.7,1.7,10.7s10.7,7.2,10.8,8.6c0.1,1.3-13.5,18.4-14.4,18
					c-0.9-0.3-42.5-33.5-44.2-35.3c-1.7-1.8,8-8.3,13-6.9c5,1.4,9,4.6,9,4.6L339.7,296.2z"/>
			</g>
		</g>
		<g class="st2">
			<path class="st10" d="M396.2,290.2c-0.1,0-0.1,0-0.3,0c-0.3-0.1-0.3-0.4-0.1-0.6c0.3-0.5,7.3-11.9,12.2-13.6
				c4.7-1.5,25-4.9,25.8-5c0.3,0,0.5,0.1,0.5,0.4s-0.1,0.5-0.4,0.5c-0.3,0-21.1,3.6-25.7,5c-4.6,1.4-11.7,13.1-11.7,13.2
				C396.6,290.1,396.4,290.2,396.2,290.2z"/>
		</g>
		<g class="st2">
			<g>
				<path class="st15" d="M451.4,262.7c0,0-5,1-7.4,1.4c-3.7,0.6-11,3.7-14,4.9c-3,1.3-8.9,7.7-7.7,8.3c1.3,0.6,7.6-3.2,7.6-3.2
					s-3.7,7.1-2.6,7.7c1.3,0.8,3-1.2,3-1.2s-1.3,2.2,0.6,2.2c1.9,0,6.8-6.7,6.8-6.7s-1.3,5.8,0,5.9c1.3,0.1,4.4-5.8,4.4-5.8
					s6.9,2.3,9.4-1.9c2.3-4.1,2.4-6.8,2.4-6.8L451.4,262.7z"/>
			</g>
		</g>
		<g class="st2">
			<g>
				<path class="st3" d="M480.8,224.2c0,0,25.7,15.7,16.6,39.9c-6.7,18-43.8,12.3-43.8,12.3l-10.3-16c0,0,23.7-12.7,25.5-13.3
					C472.5,245.9,480.8,224.2,480.8,224.2z"/>
			</g>
		</g>
		<g class="st2">
			<path class="st18" d="M465.2,254.5c-0.1,0-0.4-0.1-0.4-0.3c-0.1-0.3,0-0.5,0.3-0.5c0.1,0,7.7-2.3,19.1-4.7c0.3,0,0.5,0.1,0.5,0.4
				c0,0.3-0.1,0.5-0.4,0.5C472.9,252.2,465.3,254.5,465.2,254.5L465.2,254.5z"/>
		</g>
		<g class="st2">
			<path class="st18" d="M475,252c-0.1,0-0.3,0-0.3-0.1c-0.1-0.1-0.1-0.4,0-0.5c0.8-1.2,4.6-6.5,6.9-5.8c0.5,0.1,0.6,0.5,0.6,0.8
				c0.1,1.4-4.9,4.5-7.1,5.6C475.1,252,475.1,252,475,252z M481.1,246.2c-1.2,0-3,1.9-4.6,3.9c2.7-1.7,4.7-3.3,4.7-3.9
				C481.4,246.2,481.3,246.2,481.1,246.2z"/>
		</g>
		<g class="st2">
			<path d="M430.2,281.1c-0.1,0-0.1,0-0.3,0c-0.3-0.1-0.3-0.4-0.1-0.6l4.5-8.2c0.1-0.3,0.4-0.3,0.6-0.1s0.3,0.4,0.1,0.6l-4.5,8.2
				C430.6,281,430.4,281.1,430.2,281.1z"/>
		</g>
		<g class="st2">
			<path d="M429.8,274.5c-0.1,0-0.1,0-0.3,0c-0.3-0.1-0.3-0.4-0.1-0.6l1.7-3c0.1-0.3,0.4-0.3,0.6-0.1c0.3,0.1,0.3,0.4,0.1,0.6
				l-1.7,3C430.2,274.4,430.1,274.5,429.8,274.5z"/>
		</g>
		<g class="st2">
			<path d="M473.4,207c0,0-3.1-2.1-2.8-5.3c0.1-3.2,0.9-4,0.9-4s-3.6-0.1-6.5-1.2c-1.9-0.6-2.7-1.3-2.7-1.3l-1,2.1
				c-0.9,0-2.8-6.5-1.4-7.6c1.4-1,8.6,1.5,8.6,1.5s7.7-1.8,12.2,3.6s-1,13.1-1,13.1S478.6,204.2,473.4,207z"/>
		</g>
		<g class="st2">
			<path d="M463.6,212.8c-1.2,0-2.2-1.2-2.2-1.2c-0.1-0.1-0.1-0.3-0.1-0.4c0-0.1,0.1-0.3,0.3-0.3l3.6-1c0.1,0,0.3,0,0.4,0.1
				c0.1,0.1,0.1,0.3,0.1,0.4c0,0.1-0.1,1.9-1.5,2.3C463.9,212.8,463.8,212.8,463.6,212.8z M462.7,211.5c0.4,0.3,0.8,0.5,1.3,0.4
				c0.5-0.1,0.8-0.6,0.9-0.9L462.7,211.5z"/>
		</g>
		<g class="st2">
			<path class="st10" d="M414.9,358.2C414.9,358.2,414.8,358.2,414.9,358.2c-0.4-0.1-0.5-0.4-0.4-0.5c0-0.1,0.9-2.8-1.4-4.1
				c-0.4-0.3-0.8-0.3-1.2-0.1c-1.4,0.5-3,3-3.3,4c-0.1,0.1-0.3,0.3-0.4,0.3c-0.1,0-0.4-0.1-0.4-0.3c-0.3-1-1.4-4-3.1-4.2
				c-1.7-0.4-3.7,2.1-4.4,3.1c-0.1,0.1-0.3,0.3-0.5,0.1c-0.1,0-0.3-0.1-0.4-0.4c0,0-0.6-4.9-4.2-6c-3.5-1.3-7.7,4.9-7.8,5
				c-0.1,0.1-0.3,0.3-0.4,0.1c-0.1,0-0.3-0.1-0.4-0.3c0,0-0.9-2.6-3-3.7c-1.5-0.9-4.7,2.6-5.6,3.9c-0.1,0.1-0.4,0.3-0.6,0.1
				c-0.1-0.1-0.3-0.4-0.1-0.6c0.4-0.5,4.4-5.5,6.8-4.1c1.7,0.9,2.6,2.6,3.1,3.5c1.3-1.7,4.9-5.9,8.3-4.6c3.1,1,4.2,4.2,4.6,5.8
				c0.9-1.2,2.8-3.1,4.6-2.6c1.8,0.4,2.8,2.6,3.3,4c0.6-1.2,1.9-3,3.3-3.5c0.6-0.3,1.3-0.1,1.8,0.1c2.3,1.3,2.2,3.9,1.8,5.1
				C415.3,358.1,415,358.2,414.9,358.2z"/>
		</g>
		<g class="st2">
			<path class="st18" d="M460,276.6c-0.1,0-0.3-0.1-0.4-0.1l-11.4-16.9c-0.1-0.3-0.1-0.5,0.1-0.6c0.3-0.1,0.5-0.1,0.6,0.1l11.4,16.9
				c0.1,0.3,0.1,0.5-0.1,0.6C460.1,276.6,460.1,276.6,460,276.6z"/>
		</g>
		<g class="st2">
			<path class="st18" d="M456.2,226.7c-0.1,0-0.3,0-0.3-0.1c-0.1-0.1-0.3-0.4,0-0.6l1.7-2.1c0.1-0.1,0.4-0.3,0.6,0
				c0.1,0.1,0.3,0.4,0,0.6l-1.7,2.1C456.5,226.5,456.4,226.7,456.2,226.7z"/>
		</g>
		<g class="st2">
			<path class="st18" d="M459.7,228.1h-0.1c-0.3-0.1-0.4-0.4-0.3-0.5l1-2.4c0.1-0.3,0.4-0.4,0.5-0.3c0.3,0.1,0.4,0.4,0.3,0.5l-1,2.4
				C460.1,228,460,228.1,459.7,228.1z"/>
		</g>
		<g class="st2">
			<path class="st18" d="M466,228.7c-0.3,0-0.4-0.1-0.4-0.4l-0.4-3.2c0-0.3,0.1-0.4,0.4-0.5c0.3,0,0.4,0.1,0.5,0.4l0.4,3.2
				C466.5,228.5,466.4,228.7,466,228.7C466.1,228.7,466.1,228.7,466,228.7z"/>
		</g>
		<g class="st2">
			<path class="st18" d="M471,227.2c-0.1,0-0.3,0-0.4-0.1l-1.2-1.5c-0.1-0.1-0.1-0.5,0.1-0.6c0.1-0.1,0.5-0.1,0.6,0.1l1.2,1.5
				c0.1,0.1,0.1,0.5-0.1,0.6C471.1,227.2,471.1,227.2,471,227.2z"/>
		</g>
		<g class="st2">
			<path class="st18" d="M474.3,226c-0.1,0-0.1,0-0.3-0.1l-1.7-1.4c-0.1-0.1-0.3-0.4,0-0.6c0.1-0.1,0.4-0.3,0.6,0l1.7,1.4
				c0.1,0.1,0.3,0.4,0,0.6C474.6,225.9,474.5,226,474.3,226z"/>
		</g>
		<g class="st2">
			<path class="st18" d="M411.6,244.8c-0.1,0-0.3,0-0.4-0.1c-0.1-0.1-0.1-0.5,0.1-0.6l16.8-13.6c0.1-0.1,0.5-0.1,0.6,0.1
				c0.1,0.1,0.1,0.5-0.1,0.6l-16.8,13.6C411.7,244.8,411.7,244.8,411.6,244.8z"/>
		</g>
		<g class="st2">
			<path class="st18" d="M414,242.7c-0.1,0-0.3-0.1-0.4-0.3l-3.1-4.9c-0.1-0.3-0.1-0.5,0.1-0.6c0.3-0.1,0.5-0.1,0.6,0.1l3.1,4.9
				c0.1,0.3,0.1,0.5-0.1,0.6C414.3,242.7,414.1,242.7,414,242.7z"/>
		</g>
		<g class="st2">
			<path class="st18" d="M418.4,239.2c-0.1,0-0.3-0.1-0.4-0.3l-2.8-4.7c-0.1-0.3,0-0.5,0.1-0.6c0.3-0.1,0.5,0,0.6,0.1l2.8,4.7
				c0.1,0.3,0,0.5-0.1,0.6C418.5,239.2,418.4,239.2,418.4,239.2z"/>
		</g>
		<g class="st2">
			<path class="st18" d="M422.7,235.8c-0.1,0-0.3-0.1-0.4-0.3l-2.7-4.6c-0.1-0.3,0-0.5,0.1-0.6c0.3-0.1,0.5,0,0.6,0.1l2.7,4.6
				c0.1,0.3,0,0.5-0.1,0.6C422.9,235.8,422.9,235.8,422.7,235.8z"/>
		</g>
		<g class="st2">
			<path class="st18" d="M427,232.3c-0.1,0-0.3-0.1-0.4-0.3l-2.7-4.4c-0.1-0.3,0-0.5,0.1-0.6c0.3-0.1,0.5,0,0.6,0.1l2.7,4.4
				c0.1,0.3,0,0.5-0.1,0.6S427.1,232.3,427,232.3z"/>
		</g>
		<g class="st2">
			<path class="st18" d="M445.6,263.8c-0.1,0-0.3-0.1-0.4-0.3c-0.1-0.3,0-0.5,0.3-0.5l4.4-2.1c0.3-0.1,0.5,0,0.5,0.3
				c0.1,0.3,0,0.5-0.3,0.5l-4.4,2.1C445.7,263.8,445.6,263.8,445.6,263.8z"/>
		</g>
		<g class="st2">
			<path class="st18" d="M448.5,268.1c-0.1,0-0.3-0.1-0.4-0.3c-0.1-0.3,0-0.5,0.1-0.6l4.1-2.4c0.3-0.1,0.5,0,0.6,0.1
				c0.1,0.3,0,0.5-0.1,0.6l-4.1,2.4C448.7,268.1,448.5,268.1,448.5,268.1z"/>
		</g>
		<g class="st2">
			<path class="st18" d="M451,272.9c-0.1,0-0.4-0.1-0.4-0.3c-0.1-0.3,0-0.5,0.3-0.5l5-2.1c0.3-0.1,0.5,0,0.5,0.3
				c0.1,0.3,0,0.5-0.3,0.5l-5,2.1C451.1,272.7,451.1,272.9,451,272.9z"/>
		</g>
		<g class="st2">
			<path class="st18" d="M453.7,277c-0.1,0-0.4-0.1-0.4-0.3c-0.1-0.3,0-0.5,0.3-0.5l5.1-2.1c0.3-0.1,0.5,0,0.5,0.3
				c0.1,0.3,0,0.5-0.3,0.5l-5.1,2.1H453.7z"/>
		</g>
	</g>
	<path class="st21" d="M458.7,124.2H141.9c-5.4,0-9.8-4.4-9.8-9.8V98.6c0-5.4,4.4-9.8,9.8-9.8h316.8c5.4,0,9.8,4.4,9.8,9.8v16
		C468.5,119.9,464.1,124.2,458.7,124.2z"/>
	<path class="st21" d="M458.7,174.2H141.9c-5.4,0-9.8-4.4-9.8-9.8v-16c0-5.4,4.4-9.8,9.8-9.8h316.8c5.4,0,9.8,4.4,9.8,9.8v16
		C468.5,169.8,464.1,174.2,458.7,174.2z"/>
	<path class="st21" d="M458.7,224.3H141.9c-5.4,0-9.8-4.4-9.8-9.8v-16c0-5.4,4.4-9.8,9.8-9.8h316.8c5.4,0,9.8,4.4,9.8,9.8v16
		C468.5,220,464.1,224.3,458.7,224.3z"/>
	<path class="st22" d="M365,279H250.6c-9.6,0-17.4-7.8-17.4-17.4l0,0c0-9.6,7.8-17.4,17.4-17.4H365c9.6,0,17.4,7.8,17.4,17.4l0,0
		C382.2,271.2,374.6,279,365,279z"/>
</g>
<g>
	<path d="M220.4,70.8c-2.4,0-4.2-0.7-5.6-2.4c-1.5-1.5-2.2-3.5-2.2-5.6s0.7-4.2,2.2-5.6s3.5-2.4,5.6-2.4c1.5,0,2.7,0.4,3.8,0.9
		c1.1,0.7,2,1.5,2.7,2.7l-2.2,1.3c-0.4-0.7-0.9-1.3-1.8-1.8c-0.7-0.4-1.6-0.7-2.5-0.7c-1.6,0-2.9,0.5-4,1.6c-1.1,1.1-1.5,2.4-1.5,4
		c0,1.6,0.5,2.9,1.5,4c1.1,1.1,2.4,1.6,4,1.6c0.9,0,1.8-0.2,2.5-0.7c0.7-0.4,1.5-1.1,1.8-1.8l2.2,1.3c-0.7,1.1-1.5,2-2.7,2.7
		C222.9,70.7,221.7,70.8,220.4,70.8z"/>
	<path d="M231.3,61.6c0.5-1.3,1.6-2,3.3-2v2.5c-0.9,0-1.6,0.2-2.4,0.7c-0.7,0.5-1.1,1.3-1.1,2.4v5.4h-2.4V59.8h2.4v1.8H231.3z"/>
	<path d="M237.7,66.1c0.2,0.9,0.5,1.5,1.3,2c0.5,0.4,1.5,0.7,2.4,0.7c1.3,0,2.2-0.4,2.7-1.3l2,1.1c-1.1,1.6-2.7,2.4-4.7,2.4
		c-1.8,0-3.3-0.5-4.4-1.6c-1.1-1.1-1.6-2.5-1.6-4.2c0-1.6,0.5-2.9,1.6-4.2c1.1-1.1,2.5-1.6,4.2-1.6s2.9,0.5,4,1.6
		c1.1,1.1,1.5,2.5,1.5,4c0,0.2,0,0.5,0,0.9h-8.9V66.1z M237.7,64.3h6.4c-0.2-0.9-0.5-1.6-1.1-2c-0.5-0.4-1.3-0.7-2-0.7
		c-0.9,0-1.6,0.2-2.2,0.7S237.8,63.4,237.7,64.3z"/>
	<path d="M257.1,59.8h2.4v10.9h-2.4V69c-0.9,1.3-2.2,1.8-3.8,1.8c-1.5,0-2.7-0.5-3.8-1.6c-1.1-1.1-1.6-2.5-1.6-4
		c0-1.6,0.5-2.9,1.6-4c1.1-1.1,2.4-1.6,3.8-1.6c1.6,0,2.9,0.5,3.8,1.8V59.8z M251.3,67.8c0.7,0.7,1.5,0.9,2.5,0.9
		c1.1,0,1.8-0.4,2.5-0.9c0.7-0.7,0.9-1.5,0.9-2.5s-0.4-1.8-0.9-2.5c-0.7-0.7-1.5-0.9-2.5-0.9c-1.1,0-1.8,0.4-2.5,0.9
		c-0.7,0.7-0.9,1.5-0.9,2.5S250.6,67,251.3,67.8z"/>
	<path d="M268.4,61.9h-2.7v5.3c0,0.4,0.2,0.7,0.4,0.9c0.2,0.2,0.5,0.4,0.9,0.4s0.9,0,1.5,0v2.2c-1.8,0.2-3.1,0-3.8-0.5
		c-0.7-0.5-1.1-1.5-1.1-2.9v-5.3h-2v-2.2h2v-2.4l2.4-0.7v3.1h2.7v2.2H268.4z"/>
	<path d="M271.8,66.1c0.2,0.9,0.5,1.5,1.3,2c0.5,0.4,1.5,0.7,2.4,0.7c1.3,0,2.2-0.4,2.7-1.3l2,1.1c-1.1,1.6-2.7,2.4-4.7,2.4
		c-1.8,0-3.3-0.5-4.4-1.6c-1.1-1.1-1.6-2.5-1.6-4.2c0-1.6,0.5-2.9,1.6-4.2c1.1-1.1,2.5-1.6,4.2-1.6s2.9,0.5,4,1.6s1.5,2.5,1.5,4
		c0,0.2,0,0.5,0,0.9h-8.9V66.1z M271.8,64.3h6.4c-0.2-0.9-0.5-1.6-1.1-2c-0.5-0.4-1.3-0.7-2-0.7c-0.9,0-1.6,0.2-2.2,0.7
		C272.4,62.9,272,63.4,271.8,64.3z"/>
	<path d="M296.9,59.8h2.4v10.9h-2.4V69c-0.9,1.3-2.2,1.8-3.8,1.8c-1.5,0-2.7-0.5-3.8-1.6c-1.1-1.1-1.6-2.5-1.6-4
		c0-1.6,0.5-2.9,1.6-4c1.1-1.1,2.4-1.6,3.8-1.6c1.6,0,2.9,0.5,3.8,1.8V59.8z M290.9,67.8c0.7,0.7,1.5,0.9,2.5,0.9s1.8-0.4,2.5-0.9
		c0.7-0.7,0.9-1.5,0.9-2.5s-0.4-1.8-0.9-2.5c-0.7-0.7-1.5-0.9-2.5-0.9s-1.8,0.4-2.5,0.9c-0.7,0.7-0.9,1.5-0.9,2.5
		S290.1,67,290.9,67.8z"/>
	<path d="M315.9,59.8h2.4v10.9h-2.4V69c-0.9,1.3-2.2,1.8-3.8,1.8c-1.5,0-2.7-0.5-3.8-1.6c-1.1-1.1-1.6-2.5-1.6-4
		c0-1.6,0.5-2.9,1.6-4c1.1-1.1,2.4-1.6,3.8-1.6c1.6,0,2.9,0.5,3.8,1.8V59.8z M310.1,67.8c0.7,0.7,1.5,0.9,2.5,0.9s1.8-0.4,2.5-0.9
		c0.7-0.7,0.9-1.5,0.9-2.5s-0.4-1.8-0.9-2.5c-0.7-0.7-1.5-0.9-2.5-0.9s-1.8,0.4-2.5,0.9c-0.7,0.7-0.9,1.5-0.9,2.5
		S309.4,67,310.1,67.8z"/>
	<path d="M326.3,70.8c-1.6,0-3.1-0.5-4.2-1.6c-1.1-1.1-1.6-2.5-1.6-4c0-1.6,0.5-2.9,1.6-4.2c1.1-1.1,2.5-1.6,4.2-1.6
		c1.1,0,2,0.2,2.9,0.7c0.9,0.5,1.5,1.3,2,2l-2,1.1c-0.2-0.5-0.5-0.9-1.1-1.3c-0.5-0.4-1.1-0.4-1.8-0.4c-0.9,0-1.8,0.4-2.4,0.9
		c-0.7,0.7-0.9,1.5-0.9,2.4c0,0.9,0.4,1.8,0.9,2.4c0.7,0.7,1.5,0.9,2.4,0.9c0.7,0,1.3-0.2,1.8-0.5c0.5-0.4,0.9-0.7,1.1-1.3l2,1.1
		c-0.5,0.9-1.1,1.6-2,2C328.3,70.7,327.2,70.8,326.3,70.8z"/>
	<path d="M337.7,70.8c-1.6,0-3.1-0.5-4.2-1.6c-1.1-1.1-1.6-2.5-1.6-4c0-1.6,0.5-2.9,1.6-4.2c1.1-1.1,2.5-1.6,4.2-1.6
		c1.1,0,2,0.2,2.9,0.7s1.5,1.3,2,2l-2,1.1c-0.2-0.5-0.5-0.9-1.1-1.3c-0.5-0.4-1.1-0.4-1.8-0.4c-0.9,0-1.8,0.4-2.4,0.9
		c-0.7,0.7-0.9,1.5-0.9,2.4c0,0.9,0.4,1.8,0.9,2.4c0.7,0.7,1.5,0.9,2.4,0.9c0.7,0,1.3-0.2,1.8-0.5c0.5-0.4,0.9-0.7,1.1-1.3l2,1.1
		c-0.5,0.9-1.1,1.6-2,2C339.7,70.7,338.8,70.8,337.7,70.8z"/>
	<path d="M349.4,70.8c-1.6,0-2.9-0.5-4-1.6c-1.1-1.1-1.6-2.5-1.6-4c0-1.5,0.5-2.9,1.6-4c1.1-1.1,2.5-1.6,4-1.6
		c1.6,0,2.9,0.5,4.2,1.6c1.1,1.1,1.6,2.5,1.6,4c0,1.5-0.5,2.9-1.6,4C352.4,70.3,351,70.8,349.4,70.8z M347,67.6
		c0.7,0.7,1.5,0.9,2.4,0.9c0.9,0,1.8-0.4,2.4-0.9c0.5-0.5,0.9-1.5,0.9-2.5c0-1.1-0.4-1.8-0.9-2.5s-1.5-0.9-2.4-0.9
		c-0.9,0-1.8,0.4-2.4,0.9c-0.7,0.7-0.9,1.5-0.9,2.5C346.1,66.1,346.3,67,347,67.6z"/>
	<path d="M364.6,59.8h2.4v10.9h-2.4v-1.5c-0.7,1.1-1.8,1.6-3.5,1.6c-1.3,0-2.2-0.4-3.1-1.3c-0.7-0.7-1.1-1.8-1.1-3.3v-6.7h2.4v6.5
		c0,0.7,0.2,1.5,0.7,1.8c0.4,0.4,1.1,0.7,1.8,0.7c0.9,0,1.5-0.2,2-0.7c0.5-0.5,0.7-1.3,0.7-2.4L364.6,59.8L364.6,59.8z"/>
	<path d="M375.3,59.4c1.3,0,2.2,0.4,3.1,1.3s1.1,1.8,1.1,3.3v6.7h-2.4v-6.5c0-0.7-0.2-1.5-0.7-1.8c-0.4-0.4-1.1-0.7-1.8-0.7
		c-0.9,0-1.5,0.2-2,0.7c-0.5,0.5-0.7,1.3-0.7,2.4v5.8h-2.4V59.6h2.4V61C372.8,60,373.9,59.4,375.3,59.4z"/>
	<path d="M388.2,61.9h-2.7v5.3c0,0.4,0.2,0.7,0.4,0.9c0.2,0.2,0.5,0.4,0.9,0.4c0.4,0,0.9,0,1.5,0v2.2c-1.8,0.2-3.1,0-3.8-0.5
		c-0.7-0.5-1.1-1.5-1.1-2.9v-5.3h-2v-2.2h2v-2.4l2.4-0.7v3.1h2.7v2.2H388.2z"/>
</g>
<g>
	<path class="st7" d="M275.6,268.3c-1.5,0-2.7-0.4-3.8-1.1c-1.1-0.7-1.8-1.6-2.2-2.7l2.2-1.3c0.5,1.6,1.8,2.5,3.8,2.5
		c0.9,0,1.6-0.2,2.2-0.5c0.5-0.4,0.7-0.9,0.7-1.5c0-0.5-0.2-1.1-0.7-1.5c-0.5-0.4-1.5-0.7-2.7-1.1c-0.7-0.2-1.3-0.5-1.8-0.7
		c-0.5-0.2-0.9-0.4-1.5-0.7c-0.5-0.4-0.9-0.7-1.1-1.3c-0.2-0.5-0.4-1.1-0.4-1.8c0-1.3,0.5-2.4,1.5-3.3c0.9-0.9,2.2-1.3,3.5-1.3
		c1.3,0,2.4,0.4,3.3,0.9c0.9,0.5,1.6,1.5,2.2,2.5l-2.2,1.3c-0.7-1.5-1.6-2.2-3.3-2.2c-0.7,0-1.3,0.2-1.8,0.5
		c-0.4,0.4-0.7,0.7-0.7,1.5c0,0.5,0.2,0.9,0.7,1.3c0.4,0.4,1.3,0.7,2.4,1.1c0.5,0.2,0.9,0.4,1.3,0.5c0.2,0.2,0.7,0.2,1.1,0.4
		c0.5,0.2,0.9,0.4,1.1,0.5c0.2,0.2,0.5,0.5,0.7,0.7c0.4,0.4,0.5,0.7,0.5,1.1c0,0.4,0.2,0.9,0.2,1.3c0,1.5-0.5,2.5-1.5,3.3
		C278.5,267.9,277.3,268.3,275.6,268.3z"/>
	<path class="st7" d="M285.4,255c-0.4,0.4-0.7,0.4-1.1,0.4c-0.4,0-0.7-0.2-1.1-0.4c-0.4-0.2-0.4-0.7-0.4-1.1c0-0.4,0.2-0.7,0.4-1.1
		c0.4-0.4,0.7-0.4,1.1-0.4c0.4,0,0.7,0.2,1.1,0.4c0.4,0.4,0.4,0.7,0.4,1.1C285.8,254.5,285.6,254.8,285.4,255z M283.1,268.1v-10.9
		h2.4v10.9H283.1z"/>
	<path class="st7" d="M296.9,257.2h2.4v10.4c0,1.6-0.5,2.9-1.6,3.8c-1.1,0.9-2.4,1.3-4,1.3c-2.5,0-4.2-0.9-5.1-2.7l2-1.1
		c0.5,1.1,1.6,1.6,3.3,1.6c1.1,0,1.8-0.2,2.4-0.7c0.5-0.5,0.9-1.3,0.9-2.2v-1.3c-0.9,1.3-2.2,1.8-3.8,1.8c-1.5,0-2.9-0.5-3.8-1.6
		c-1.1-1.1-1.6-2.4-1.6-4s0.5-2.9,1.6-4c1.1-1.1,2.4-1.6,3.8-1.6c1.6,0,2.9,0.5,3.8,1.8v-1.5H296.9z M290.9,265
		c0.7,0.7,1.5,0.9,2.5,0.9s1.8-0.4,2.5-0.9c0.7-0.7,0.9-1.5,0.9-2.4c0-0.9-0.4-1.8-0.9-2.4c-0.7-0.7-1.5-0.9-2.5-0.9
		s-1.8,0.4-2.5,0.9c-0.7,0.5-0.9,1.5-0.9,2.4C290,263.4,290.3,264.3,290.9,265z"/>
	<path class="st7" d="M307.6,256.8c1.3,0,2.2,0.4,3.1,1.3c0.7,0.7,1.1,1.8,1.1,3.3v6.7h-2.4v-6.5c0-0.7-0.2-1.5-0.7-1.8
		c-0.4-0.4-1.1-0.7-1.8-0.7c-0.9,0-1.5,0.2-2,0.7c-0.5,0.5-0.7,1.3-0.7,2.4v5.8h-2.4V257h2.4v1.5C305,257.4,306.1,256.8,307.6,256.8
		z"/>
	<path class="st7" d="M329.7,266.8c-1.1,0.9-2.5,1.5-4.2,1.5s-3.1-0.5-4.2-1.5c-1.1-0.9-1.6-2.2-1.6-3.8v-10.2h2.5v10
		c0,0.9,0.4,1.6,0.9,2.2c0.5,0.5,1.5,0.9,2.4,0.9c1.1,0,2-0.4,2.5-0.9c0.5-0.5,0.9-1.3,0.9-2.2v-10h2.5V263
		C331.4,264.6,330.8,265.9,329.7,266.8z"/>
	<path class="st7" d="M340.3,256.8c1.5,0,2.7,0.5,3.8,1.6c1.1,1.1,1.6,2.5,1.6,4c0,1.6-0.5,2.9-1.6,4c-1.1,1.1-2.4,1.6-3.8,1.6
		c-1.6,0-2.9-0.5-3.8-1.8v6h-2.4V257h2.4v1.6C337.4,257.6,338.6,256.8,340.3,256.8z M337.4,265c0.7,0.7,1.5,0.9,2.5,0.9
		c1.1,0,1.8-0.4,2.5-0.9c0.7-0.7,0.9-1.5,0.9-2.5c0-1.1-0.4-1.8-0.9-2.5c-0.7-0.7-1.5-0.9-2.5-0.9c-1.1,0-1.8,0.4-2.5,0.9
		c-0.7,0.7-0.9,1.5-0.9,2.5C336.5,263.6,336.8,264.5,337.4,265z"/>
</g>
<g>
	<path d="M151.2,111.9v-11.1h1.6l3.5,5.6c0.9,1.3,1.5,2.5,2,3.6l0,0c-0.2-1.5-0.2-2.7-0.2-4.5V101h1.3v11.1h-1.5l-3.5-5.6
		c-0.7-1.3-1.5-2.5-2-3.6l0,0c0,1.5,0.2,2.7,0.2,4.5v4.7h-1.5V111.9z"/>
	<path d="M166.3,111.9l-0.2-0.9l0,0c-0.4,0.5-1.3,1.1-2.4,1.1c-1.6,0-2.4-1.1-2.4-2.4c0-2,1.6-2.9,4.7-2.9v-0.2
		c0-0.7-0.2-1.8-1.8-1.8c-0.7,0-1.5,0.2-2,0.5l-0.4-0.9c0.7-0.4,1.6-0.7,2.5-0.7c2.4,0,3.1,1.6,3.1,3.3v2.9c0,0.7,0,1.3,0.2,1.8
		h-1.5V111.9z M166.1,107.7c-1.6,0-3.3,0.2-3.3,1.8c0,0.9,0.5,1.5,1.3,1.5c1.1,0,1.6-0.7,2-1.3c0-0.2,0-0.4,0-0.5V107.7z"/>
	<path d="M169.9,106.1c0-0.9,0-1.5,0-2.2h1.3v1.3l0,0c0.4-0.7,1.1-1.5,2.5-1.5c1.1,0,1.8,0.7,2.2,1.6l0,0c0.2-0.4,0.5-0.7,0.9-1.1
		c0.5-0.4,0.9-0.5,1.8-0.5c1.1,0,2.5,0.7,2.5,3.5v4.7h-1.5v-4.5c0-1.5-0.5-2.4-1.6-2.4c-0.9,0-1.5,0.5-1.6,1.3
		c0,0.2-0.2,0.5-0.2,0.7v4.9h-1.5v-4.7c0-1.3-0.5-2.2-1.6-2.2c-0.9,0-1.6,0.7-1.8,1.5c0,0.2-0.2,0.5-0.2,0.7v4.7h-1.5v-5.8H169.9z"
		/>
	<path d="M184.3,108.1c0,2,1.3,2.7,2.7,2.7c1.1,0,1.6-0.2,2.2-0.4l0.2,1.1c-0.5,0.2-1.5,0.5-2.5,0.5c-2.4,0-3.8-1.6-3.8-4
		c0-2.4,1.5-4.4,3.6-4.4c2.5,0,3.3,2.4,3.3,3.8c0,0.4,0,0.5,0,0.7h-5.6V108.1z M188.4,107.2c0-0.9-0.4-2.4-2-2.4
		c-1.5,0-2.2,1.3-2.2,2.4H188.4z"/>
</g>
<g>
	<path d="M151.9,156.8h-4.4v4h4.7v1.3h-6.2v-11.1h6v1.3h-4.5v3.5h4.4L151.9,156.8L151.9,156.8z"/>
	<path d="M154.3,156c0-0.9,0-1.5,0-2.2h1.3v1.3l0,0c0.4-0.7,1.1-1.5,2.5-1.5c1.1,0,1.8,0.7,2.2,1.6l0,0c0.2-0.4,0.5-0.7,0.9-1.1
		c0.5-0.4,0.9-0.5,1.8-0.5c1.1,0,2.5,0.7,2.5,3.5v4.7h-1.5v-4.5c0-1.5-0.5-2.4-1.6-2.4c-0.9,0-1.5,0.5-1.6,1.3
		c0,0.2-0.2,0.5-0.2,0.7v4.9h-1.5v-4.7c0-1.3-0.5-2.2-1.6-2.2c-0.9,0-1.6,0.7-1.8,1.5c0,0.2-0.2,0.5-0.2,0.7v4.7h-1.5V156H154.3z"/>
	<path d="M172.3,161.8l-0.2-0.9l0,0c-0.4,0.5-1.3,1.1-2.4,1.1c-1.6,0-2.4-1.1-2.4-2.4c0-2,1.6-2.9,4.7-2.9v-0.2
		c0-0.7-0.2-1.8-1.8-1.8c-0.7,0-1.5,0.2-2,0.5l-0.4-0.9c0.7-0.4,1.6-0.7,2.5-0.7c2.4,0,3.1,1.6,3.1,3.3v2.9c0,0.7,0,1.3,0.2,1.8
		h-1.5V161.8z M172.1,157.8c-1.6,0-3.3,0.2-3.3,1.8c0,0.9,0.5,1.5,1.3,1.5c1.1,0,1.6-0.7,2-1.3c0-0.2,0-0.4,0-0.5V157.8z"/>
	<path d="M177.4,151.7c0,0.5-0.4,0.9-0.9,0.9c-0.5,0-0.9-0.4-0.9-0.9c0-0.5,0.4-0.9,0.9-0.9C177,150.8,177.4,151.3,177.4,151.7z
		 M175.7,161.8v-8h1.5v8H175.7z"/>
	<path d="M179.5,150.2h1.5v11.6h-1.5V150.2z"/>
	<path d="M191.3,161.8l-0.2-0.9l0,0c-0.4,0.5-1.3,1.1-2.4,1.1c-1.6,0-2.4-1.1-2.4-2.4c0-2,1.6-2.9,4.7-2.9v-0.2
		c0-0.7-0.2-1.8-1.8-1.8c-0.7,0-1.5,0.2-2,0.5l-0.4-0.9c0.7-0.4,1.6-0.7,2.5-0.7c2.4,0,3.1,1.6,3.1,3.3v2.9c0,0.7,0,1.3,0.2,1.8
		h-1.5V161.8z M191.2,157.8c-1.6,0-3.3,0.2-3.3,1.8c0,0.9,0.5,1.5,1.3,1.5c1.1,0,1.6-0.7,2-1.3c0-0.2,0-0.4,0-0.5L191.2,157.8
		L191.2,157.8z"/>
	<path d="M201.7,150.2v9.6c0,0.7,0,1.5,0,2h-1.3v-1.5l0,0c-0.4,0.9-1.5,1.6-2.7,1.6c-2,0-3.5-1.6-3.5-4c0-2.5,1.6-4.2,3.6-4.2
		c1.3,0,2,0.5,2.4,1.3l0,0v-4.7h1.5V150.2z M200.2,157.1c0-0.2,0-0.4,0-0.5c-0.2-0.9-0.9-1.6-2-1.6c-1.5,0-2.4,1.3-2.4,3.1
		c0,1.6,0.7,2.9,2.4,2.9c0.9,0,1.8-0.7,2.2-1.6c0-0.2,0-0.4,0-0.5v-1.6H200.2z"/>
	<path d="M211,150.2v9.6c0,0.7,0,1.5,0,2h-1.3v-1.5l0,0c-0.4,0.9-1.5,1.6-2.7,1.6c-2,0-3.5-1.6-3.5-4c0-2.5,1.6-4.2,3.6-4.2
		c1.3,0,2,0.5,2.4,1.3l0,0v-4.7h1.5V150.2z M209.5,157.1c0-0.2,0-0.4,0-0.5c-0.2-0.9-0.9-1.6-2-1.6c-1.5,0-2.4,1.3-2.4,3.1
		c0,1.6,0.7,2.9,2.4,2.9c0.9,0,1.8-0.7,2.2-1.6c0-0.2,0-0.4,0-0.5v-1.6H209.5z"/>
	<path d="M213.3,156.4c0-0.9,0-1.8,0-2.5h1.3v1.6l0,0c0.4-1.1,1.3-1.8,2.2-1.8c0.2,0,0.4,0,0.4,0v1.3c-0.2,0-0.4,0-0.5,0
		c-1.1,0-1.8,0.7-2,1.8c0,0.2,0,0.4,0,0.7v4.2h-1.5v-5.3H213.3z"/>
	<path d="M219.3,158.2c0,2,1.3,2.7,2.7,2.7c1.1,0,1.6-0.2,2.2-0.4l0.2,1.1c-0.5,0.2-1.5,0.5-2.5,0.5c-2.4,0-3.8-1.6-3.8-4
		s1.5-4.4,3.6-4.4c2.5,0,3.3,2.4,3.3,3.8c0,0.4,0,0.5,0,0.7h-5.6V158.2z M223.5,157.1c0-0.9-0.4-2.4-2-2.4c-1.5,0-2.2,1.3-2.2,2.4
		H223.5z"/>
	<path d="M226.4,160.4c0.4,0.4,1.1,0.5,1.8,0.5c1.1,0,1.5-0.5,1.5-1.1c0-0.7-0.4-1.1-1.5-1.5c-1.5-0.5-2.2-1.3-2.2-2.2
		c0-1.3,1.1-2.4,2.7-2.4c0.7,0,1.5,0.2,2,0.5l-0.4,1.1c-0.4-0.2-0.9-0.5-1.6-0.5c-0.9,0-1.3,0.5-1.3,1.1c0,0.7,0.5,0.9,1.5,1.3
		c1.5,0.5,2,1.3,2,2.4c0,1.5-1.1,2.4-2.9,2.4c-0.9,0-1.6-0.2-2.2-0.5L226.4,160.4z"/>
	<path d="M232.9,160.4c0.4,0.4,1.1,0.5,1.8,0.5c1.1,0,1.5-0.5,1.5-1.1c0-0.7-0.4-1.1-1.5-1.5c-1.5-0.5-2.2-1.3-2.2-2.2
		c0-1.3,1.1-2.4,2.7-2.4c0.7,0,1.5,0.2,2,0.5l-0.4,1.1c-0.4-0.2-0.9-0.5-1.6-0.5c-0.9,0-1.3,0.5-1.3,1.1c0,0.7,0.5,0.9,1.5,1.3
		c1.5,0.5,2,1.3,2,2.4c0,1.5-1.1,2.4-2.9,2.4c-0.9,0-1.6-0.2-2.2-0.5L232.9,160.4z"/>
</g>
<g>
	<path d="M146.3,201.1c0.7-0.2,1.6-0.2,2.7-0.2c1.5,0,2.4,0.4,3.1,0.9c0.5,0.5,0.9,1.3,0.9,2.4c0,0.9-0.4,1.8-0.9,2.4
		c-0.7,0.7-2,1.3-3.5,1.3c-0.4,0-0.9,0-1.1-0.2v4.4h-1.5v-10.9H146.3z M147.8,206.3c0.4,0,0.7,0.2,1.1,0.2c1.6,0,2.7-0.9,2.7-2.4
		s-1.1-2.2-2.5-2.2c-0.5,0-1.1,0-1.3,0.2L147.8,206.3L147.8,206.3z"/>
	<path d="M158.8,212l-0.2-0.9l0,0c-0.4,0.5-1.3,1.1-2.4,1.1c-1.6,0-2.4-1.1-2.4-2.4c0-2,1.6-2.9,4.7-2.9v-0.2c0-0.7-0.2-1.8-1.8-1.8
		c-0.7,0-1.5,0.2-2,0.5l-0.4-0.9c0.7-0.4,1.6-0.7,2.5-0.7c2.4,0,3.1,1.6,3.1,3.3v2.9c0,0.7,0,1.3,0.2,1.8h-1.5V212z M158.7,207.8
		c-1.6,0-3.3,0.2-3.3,1.8c0,0.9,0.5,1.5,1.3,1.5c1.1,0,1.6-0.7,2-1.3c0-0.2,0-0.4,0-0.5V207.8z"/>
	<path d="M162.3,210.3c0.4,0.4,1.1,0.5,1.8,0.5c1.1,0,1.5-0.5,1.5-1.1c0-0.7-0.4-1.1-1.5-1.5c-1.5-0.5-2.2-1.3-2.2-2.2
		c0-1.3,1.1-2.4,2.7-2.4c0.7,0,1.5,0.2,2,0.5l-0.4,1.1c-0.4-0.2-0.9-0.5-1.6-0.5c-0.9,0-1.3,0.5-1.3,1.1c0,0.7,0.5,0.9,1.5,1.3
		c1.5,0.5,2,1.3,2,2.4c0,1.5-1.1,2.4-2.9,2.4c-0.9,0-1.6-0.2-2.2-0.5L162.3,210.3z"/>
	<path d="M168.6,210.3c0.4,0.4,1.1,0.5,1.8,0.5c1.1,0,1.5-0.5,1.5-1.1c0-0.7-0.4-1.1-1.5-1.5c-1.5-0.5-2.2-1.3-2.2-2.2
		c0-1.3,1.1-2.4,2.7-2.4c0.7,0,1.5,0.2,2,0.5l-0.4,1.1c-0.4-0.2-0.9-0.5-1.6-0.5c-0.9,0-1.3,0.5-1.3,1.1c0,0.7,0.5,0.9,1.5,1.3
		c1.5,0.5,2,1.3,2,2.4c0,1.5-1.1,2.4-2.9,2.4c-0.9,0-1.6-0.2-2.2-0.5L168.6,210.3z"/>
	<path d="M175.9,204l1.1,4c0.2,0.9,0.4,1.6,0.5,2.5l0,0c0.2-0.7,0.4-1.6,0.7-2.5l1.3-4h1.3l1.3,4c0.4,0.9,0.5,1.8,0.7,2.5l0,0
		c0.2-0.7,0.4-1.6,0.5-2.5l1.1-4h1.5l-2.5,8h-1.3l-1.3-3.8c-0.4-0.9-0.5-1.6-0.7-2.5l0,0c-0.2,0.9-0.4,1.8-0.7,2.5l-1.3,3.8h-1.3
		l-2.4-8H175.9z"/>
	<path d="M194.4,207.8c0,2.9-2,4.2-4,4.2c-2.2,0-3.8-1.6-3.8-4c0-2.7,1.8-4.2,4-4.2C192.8,203.8,194.4,205.4,194.4,207.8z
		 M188.1,208c0,1.8,0.9,3.1,2.4,3.1c1.5,0,2.4-1.3,2.4-3.1c0-1.3-0.7-3.1-2.4-3.1C188.8,204.9,188.1,206.5,188.1,208z"/>
	<path d="M196.2,206.5c0-0.9,0-1.8,0-2.5h1.3v1.6l0,0c0.4-1.1,1.3-1.8,2.2-1.8c0.2,0,0.4,0,0.4,0v1.3c-0.2,0-0.4,0-0.5,0
		c-1.1,0-1.8,0.7-2,1.8c0,0.2,0,0.4,0,0.7v4.2h-1.5v-5.3H196.2z"/>
	<path d="M208.2,200.3v9.6c0,0.7,0,1.5,0,2H207v-1.5l0,0c-0.4,0.9-1.5,1.6-2.7,1.6c-2,0-3.5-1.6-3.5-4c0-2.5,1.6-4.2,3.6-4.2
		c1.3,0,2,0.5,2.4,1.3l0,0v-4.9H208.2z M206.8,207.2c0-0.2,0-0.4,0-0.5c-0.2-0.9-0.9-1.6-2-1.6c-1.5,0-2.4,1.3-2.4,3.1
		c0,1.6,0.7,2.9,2.4,2.9c0.9,0,1.8-0.7,2.2-1.6c0-0.2,0-0.4,0-0.5v-1.6H206.8z"/>
</g>
<g>
	<g>
		<path d="M602.1,99.1c0,0,8-3.5,15.1,1.1c7.1,4.6,4.4,15.1,4.4,15.1s9.5,9.4,10.5,18.9c1,9.5-4,12-4,12l-16-7.4l-6.1-29.9
			L602.1,99.1z"/>
	</g>
	<g>
		<g>
			<path d="M583.8,136c0,0-2.3-7.9,1.1-12.3c3.5-4.6,9.3-4.8,9.3-8.7c0-8.9,6.5-12.9,6.5-12.9l0,34.9L583.8,136z"/>
		</g>
	</g>
	<g>
		<path class="st18" d="M577.2,322.2c0,0-22.4,10.7-29,17c-6.6,6.3-7,10.5-6.2,12.6c0.8,2.1,47.1,0,47.1,0s0.5-12.7,5.4-11.9
			c4.9,0.8,2.2,12.2,2.2,12.2l14-0.1c0,0,0.6-12.7-0.4-17.6c-1.1-5.4-4.2-12.6-4.2-12.6L577.2,322.2z"/>
	</g>
	<g>
		<path class="st15" d="M582,318.5c0,0-19.3,10.9-15.8,12c3.5,1.1,23.4,1.3,29.2-0.8c5.8-2.1,10.7-8.2,10.7-8.2l-13.2-6.3L582,318.5
			z"/>
	</g>
	<g>
		<polygon class="st15" points="606.2,321.5 608.7,310.5 584.9,305.7 581.5,323.2 		"/>
	</g>
	<g>
		<path class="st18" d="M670.9,281.9c0,0,13.4,20.9,20.5,26.7s11.3,5.6,13.3,4.6s-5.8-46.8-5.8-46.8s-12.7,1.1-12.5-3.9
			c0.2-5,11.9-3.7,11.9-3.7l-1.9-13.9c0,0-12.6,0.9-17.4,2.6c-5.2,1.8-12,5.7-12,5.7L670.9,281.9z"/>
	</g>
	<g>
		<path class="st15" d="M666.6,277.6c0,0,13.2,17.8,13.9,14.2c0.7-3.6-1.6-23.4-4.4-28.9c-2.8-5.5-9.4-9.6-9.4-9.6l-4.6,13.9
			L666.6,277.6z"/>
	</g>
	<g>
		<polygon class="st15" points="666.7,253.3 655.4,252.2 653.6,276.3 671.4,277.5 		"/>
	</g>
	<g>
		<path class="st15" d="M536.1,140.9c0,0-16.7,0.3-19.7,0c-3-0.3,0-2.4,0-2.4s-5.8-0.6-3.7-2.2c2-1.6,21-1.9,25.3-1.3
			s10.5,1.5,10.5,1.5L536.1,140.9z"/>
	</g>
	<g>
		<path class="st8" d="M600.8,129.5c0,0-10.1,0.4-12.7,1.3c-2.6,0.9-20.9,10.7-24.2,10.7c-3.3,0-17-8.7-17-8.7l-20.2,11.5
			c0,0,12.5,25.6,32.5,27.9c20,2.3,27.8-5.9,27.8-5.9L600.8,129.5z"/>
	</g>
	<g>
		<path class="st3" d="M531.1,146.7c-1.7,0-4.2-1.8-4.5-2c-0.2-0.1-0.2-0.4-0.1-0.6c0.1-0.2,0.4-0.2,0.6-0.1
			c1.2,0.9,3.5,2.2,4.4,1.8c0.9-0.4,1.3-2.8,1.4-4.3c0-0.1,0.1-0.3,0.2-0.3s0.3-0.1,0.4,0c1.2,0.7,4.7,2.2,5.8,1
			c1.5-1.5,1.1-5.2,1.1-5.3c0-0.1,0-0.3,0.1-0.4c0.1-0.1,0.2-0.1,0.4-0.1c2.5,0.7,4.9,0.9,5.2,0.5c0.6-0.9,0.5-2.2,0.5-2.2
			c0-0.2,0.1-0.4,0.4-0.5c0.2,0,0.4,0.1,0.5,0.4c0,0.1,0.2,1.6-0.6,2.7c-0.7,1-3.9,0.4-5.5,0c0,1.2,0,4-1.4,5.3
			c-1.5,1.5-4.9,0.1-6.3-0.6c-0.1,1.2-0.5,3.8-1.8,4.4C531.6,146.6,531.3,146.7,531.1,146.7z"/>
	</g>
	<g>
		<path class="st23" d="M613,320.1l-40.1-0.8c0,0-9.1-32.6-9.4-62.8c-0.2-17.8,4.4-36.8,8.1-49.3c2.6-8.7,4.8-14.3,4.8-14.3
			l22.6,1.6l4.1,0.3l0.4,31.7c0,0,1.5,46.7,2.1,54.1C606.2,288,613,320.1,613,320.1z"/>
	</g>
	<g>
		<path class="st10" d="M599.5,209.1l-27.9-1.9c2.6-8.7,4.8-14.3,4.8-14.3l22.6,1.6L599.5,209.1z"/>
	</g>
	<g>
		<path class="st10" d="M625.5,183.1c0,0,4.2,24.5,5.8,38.7c1.1,9.5,8.9,19.5,17.9,22.4c9,2.9,17.5,4.3,17.5,4.3l1.2,34.8
			c0,0-30.3,8.1-51.6-5.2c-10.7-6.7-16.6-16.7-19.9-26.8c-3-9.2-4-20.7-4-31.4l3-29.2L625.5,183.1z"/>
	</g>
	<g>
		<g>
			<path class="st8" d="M607.3,129.6c-14.9-1.4-27.4,9-29.4,23.9l0.3,6.9c0,0-2.5,31.4-1.8,32.6c0.6,1.1,11.2,4,24.3,3.4
				c13.1-0.6,23.6-1.9,24.3-2.4c0.2-0.1,6.3-5.7,6.2-13.2c-0.2-18.3-9.7-48.9-9.7-49.2C621.5,131.3,615.3,130.4,607.3,129.6z"/>
		</g>
	</g>
	<g>
		<path class="st7" d="M623.4,205.6c-7.6,0-8.3-5.9-8.3-6c0-0.2,0.1-0.4,0.4-0.5c0.2,0,0.4,0.1,0.5,0.4c0,0.2,0.7,5.5,7.9,5.2
			c0.2,0,0.4,0.2,0.4,0.4c0,0.2-0.2,0.4-0.4,0.4C623.7,205.6,623.5,205.6,623.4,205.6z"/>
	</g>
	<g>
		<path class="st7" d="M632.8,244.6c-0.1,0-0.3,0-0.4,0c-0.7-0.1-1-0.6-1.1-0.9c-0.7-2.2,4.5-7.7,5.5-8.8c0.1-0.1,0.3-0.2,0.5-0.1
			c0.2,0.1,0.3,0.3,0.2,0.4c0,0.3-1,7.1-3.4,8.9C633.7,244.5,633.2,244.6,632.8,244.6z M636.5,236.5c-2.2,2.4-4.8,5.8-4.4,6.9
			c0,0.1,0.1,0.2,0.5,0.3c0.4,0.1,0.7,0,1.1-0.3C635.1,242.4,636,238.8,636.5,236.5z"/>
	</g>
	<g>
		<path class="st15" d="M617.2,166.8c0,0-1.4-3.9-1.9-5.2c-0.5-1.2-0.3-5.5-1.8-6.2c-1.5-0.7-2,6.1-2,6.1s-8.9-10.1-10.6-9.6
			c-1.7,0.5,2.2,7.3,2.2,7.3s-6.7-7.2-8-5.9c-1.3,1.3,4.4,8.5,4.4,8.5s-5.1-4.4-6.1-3c-1,1.4,7.1,12.5,7.1,12.5s4.7,11.6,11.1,10
			C618.2,179.7,617.2,166.8,617.2,166.8z"/>
	</g>
	<g>
		<path d="M516.3,138.8c-0.2,0-0.3-0.1-0.4-0.3c-0.1-0.2,0-0.5,0.2-0.5c0.2-0.1,3.9-1.5,7.6-2.1l-1.1-0.3c-0.2-0.1-0.4-0.3-0.3-0.5
			c0.1-0.2,0.3-0.4,0.5-0.3l3.2,0.9c0.2,0.1,0.3,0.2,0.3,0.4s-0.2,0.4-0.4,0.4c-4.2,0.3-9.5,2.3-9.5,2.3
			C516.4,138.8,516.4,138.8,516.3,138.8z"/>
	</g>
	<g>
		<polygon class="st3" points="500.8,132.7 568.7,132.7 554.6,127.5 486.7,127.5 		"/>
	</g>
	<g>
		<rect x="500.5" y="132.7" class="st7" width="68.2" height="2.8"/>
	</g>
	<g>
		<polygon class="st10" points="486.7,127.5 486.7,130.7 500.5,135.6 500.5,132.7 		"/>
	</g>
	<g>
		<path class="st9" d="M554.6,127.5l-12.8-35.7c-0.2-0.4-0.6-0.7-1.1-0.7h-63.3c-0.7,0-1.3,0.7-1.1,1.4l10.4,35L554.6,127.5
			L554.6,127.5z"/>
	</g>
	<g>
		<path class="st7" d="M546.9,121.4l-9.5-26.5c-0.1-0.4-0.5-0.6-0.8-0.6h-50.6c-0.6,0-1,0.6-0.9,1.1l8,26.9c0.2,0.6,0.8,1.1,1.4,1.1
			h51C546.5,123.4,547.3,122.3,546.9,121.4z"/>
	</g>
	<g>
		<path class="st8" d="M621.5,131.5c0,0,19.9,8.1,32,27.5c11.1,18,11.3,33.8-7.5,38.4c-18.8,4.6-37.6-13.6-37.6-13.6l9.8-19.8
			l4.4,1.7L621.5,131.5z"/>
	</g>
	<g>
		<path d="M612.3,165.2c-0.2,0-0.3-0.1-0.3-0.3l-0.8-3.3c0-0.2,0.1-0.4,0.3-0.4c0.2,0,0.4,0.1,0.4,0.3l0.8,3.3
			C612.7,165,612.6,165.1,612.3,165.2C612.4,165.2,612.4,165.2,612.3,165.2z"/>
	</g>
	<g>
		<path d="M600.8,163.6c-0.1,0-0.2,0-0.3-0.1l-1.3-1.4c-0.1-0.1-0.1-0.4,0-0.5c0.1-0.1,0.4-0.1,0.5,0l1.3,1.4c0.1,0.1,0.1,0.4,0,0.5
			C601,163.5,600.9,163.6,600.8,163.6z"/>
	</g>
	<g>
		<path d="M604.4,160.9c-0.1,0-0.2,0-0.3-0.1l-1.3-1.4c-0.1-0.1-0.1-0.4,0-0.5c0.1-0.1,0.4-0.1,0.5,0l1.3,1.4c0.1,0.1,0.1,0.4,0,0.5
			C604.6,160.9,604.5,160.9,604.4,160.9z"/>
	</g>
	<g>
		<path class="st3" d="M644.4,172.2c-0.1,0-0.2,0-0.2-0.1c-8.7-5.5-21.6-7.6-21.8-7.7c-0.2,0-0.4-0.3-0.3-0.5c0-0.2,0.3-0.4,0.5-0.3
			c0.1,0,13.2,2.2,22.1,7.8c0.2,0.1,0.3,0.4,0.1,0.6C644.7,172.1,644.6,172.2,644.4,172.2z"/>
	</g>
	<g>
		<path class="st3" d="M641.6,168.5c-2.5,0-5.7-0.5-7-0.9c-0.2-0.1-0.3-0.2-0.3-0.4c0-0.2,0.1-0.3,0.3-0.4c0.3-0.1,7.8-2.7,10.1-0.4
			c0.6,0.6,0.5,1.1,0.4,1.3C644.7,168.3,643.3,168.5,641.6,168.5z M636.2,167.2c3.1,0.6,7.8,0.7,8.1,0.1c0,0,0-0.1-0.2-0.3
			C642.8,165.7,638.7,166.5,636.2,167.2z"/>
	</g>
	<g>
		<path class="st3" d="M562.3,149.6c-0.4,0-0.7-0.1-0.8-0.4c-1-1.4,1.6-6.8,2.1-7.9c0.1-0.2,0.3-0.3,0.4-0.2c0.2,0,0.3,0.2,0.3,0.4
			c0.1,0.6,0.5,5.9-0.9,7.6c-0.3,0.4-0.6,0.5-1.1,0.6C562.4,149.6,562.4,149.6,562.3,149.6z M563.7,143.2c-1.1,2.5-1.9,5-1.5,5.5
			c0,0,0,0.1,0.2,0.1c0.2,0,0.3-0.1,0.5-0.3C563.6,147.6,563.7,145.1,563.7,143.2z"/>
	</g>
	<g>
		<path class="st3" d="M622.5,194c-0.1,0-0.1,0-0.2,0c-0.4-0.2-10-5.3-13.2-9.7c-0.1-0.1-0.1-0.3,0-0.5c0.1-0.1,0.2-0.2,0.4-0.2
			c0.7,0.1,2.6,0.1,3-0.8c0.4-0.8-0.6-2.6-1.4-3.6c-0.1-0.1-0.1-0.3,0-0.5c0.1-0.1,0.2-0.2,0.4-0.2c0,0,4.2,0.4,6-1.5
			c1.4-1.5-1.3-5.8-2.5-7.3c-0.1-0.1-0.1-0.3,0-0.4c0.1-0.1,0.2-0.2,0.4-0.2c0,0,2.6,0.1,4-1.3c0.2-0.2,0.3-0.5,0.3-0.8
			c-0.1-1-1.3-2.3-1.8-2.7c-0.2-0.1-0.2-0.4-0.1-0.6c0.1-0.2,0.4-0.2,0.6-0.1c0.1,0.1,2.1,1.7,2.1,3.3c0,0.5-0.2,1-0.5,1.4
			c-1.1,1.1-2.8,1.5-3.8,1.5c1.2,1.7,3.7,5.9,2,7.7c-1.5,1.6-4.3,1.8-5.8,1.8c0.6,1,1.5,2.6,1,3.8c-0.5,1.1-2,1.3-2.9,1.3
			c3.5,4,12.2,8.7,12.3,8.7c0.2,0.1,0.3,0.4,0.2,0.6C622.8,194,622.7,194,622.5,194z"/>
	</g>
	<g>
		<path d="M615.1,102c0,0,9.7-14.3,14.6-5.1c4.9,9.3-8.8,22.2-13.9,17.6C610.7,109.9,615.1,102,615.1,102z"/>
	</g>
	<g>
		<g>
			<g>
				<g>
					<path class="st15" d="M611.1,122.7l-0.4,10.6c0,0-1.7,1.3-7.1,1.5c-4,0.2-5.4-0.9-5.4-0.9l1.4-9l9.8-1.8L611.1,122.7z"/>
				</g>
			</g>
		</g>
	</g>
	<g>
		<g>
			<g>
				<g>
					<path d="M609.5,123c0,0.3-0.1,0.5-0.3,0.9c-2.2,4.5-7.9,5.3-10.2,5.5l0.7-4.5L609.5,123z"/>
				</g>
			</g>
		</g>
	</g>
	<g>
		<g>
			<g>
				<g>
					<path class="st15" d="M598.3,103.7c0,0-5.2,11.4-3.5,17.9c1.7,6.5,7.6,5.6,11.1,4.4c3.5-1.2,5.2-3.3,5.2-3.3s3.3,1.2,5.5-1.8
						c2.3-3,1-6.6-0.9-7.4c-1.9-0.8-4.1,0.5-4.1,0.5l1.8-3.3C613.4,110.6,606.4,93.5,598.3,103.7z"/>
				</g>
			</g>
		</g>
	</g>
	<g>
		<g>
			<g>
				<g>
					<path d="M611.6,113.9c0,0-5,1-8.3-4.6c-3.4-5.5-3.1-7.8-3.1-7.8l-3.5,5.7c0,0-0.7-3.9,0.9-6.4c1.6-2.5,3.2-2,3.2-2l10.9,2.8
						l2.8,8.8L611.6,113.9z"/>
				</g>
			</g>
		</g>
	</g>
	<g>
		<path d="M598.6,118.3c-0.2,0-0.3-0.1-0.4-0.3c-0.7-2.5,1-5,1.1-5.1c0.1-0.2,0.4-0.2,0.6-0.1c0.2,0.1,0.2,0.4,0.1,0.6
			c0,0-1.6,2.3-1,4.4c0.1,0.2-0.1,0.4-0.3,0.5C598.7,118.3,598.6,118.3,598.6,118.3z"/>
	</g>
	<g>
		<path d="M603.8,110.5c-0.2,0-0.3-0.1-0.4-0.3c-0.6-1.8-1.6-1.6-1.6-1.6c-0.2,0-0.4-0.1-0.5-0.3c-0.1-0.2,0.1-0.4,0.3-0.5
			c0.1,0,1.7-0.4,2.6,2.1c0.1,0.2,0,0.4-0.3,0.5C603.9,110.5,603.8,110.5,603.8,110.5z"/>
	</g>
	<g>
		<path d="M596.5,108.6c0,0-0.1,0-0.1,0c-0.2-0.1-0.3-0.3-0.3-0.5c0-0.1,0.2-0.9,1-1.2c0.5-0.2,1-0.1,1.6,0.3
			c0.2,0.1,0.2,0.4,0.1,0.6c-0.1,0.2-0.4,0.2-0.6,0.1c-0.2-0.2-0.6-0.3-0.8-0.2c-0.3,0.1-0.4,0.5-0.5,0.6
			C596.9,108.5,596.7,108.6,596.5,108.6z"/>
	</g>
	<g>
		<path d="M612.1,119.3c-0.1,0-0.2,0-0.3-0.1c-0.2-0.2-0.2-0.4,0-0.6l3.2-3.3c0.2-0.2,0.4-0.2,0.6,0c0.2,0.2,0.2,0.4,0,0.6l-3.2,3.3
			C612.3,119.3,612.2,119.3,612.1,119.3z"/>
	</g>
	<g>
		<path d="M615.4,118.5C615.4,118.5,615.3,118.5,615.4,118.5l-2.2-0.4c-0.2,0-0.4-0.2-0.3-0.5c0-0.2,0.2-0.4,0.5-0.3l2.2,0.4
			c0.2,0,0.4,0.2,0.3,0.5C615.8,118.3,615.6,118.5,615.4,118.5z"/>
	</g>
	<g>
		<path d="M596.6,113.8C596.6,113.8,596.6,113.8,596.6,113.8c-0.3,0-0.4-0.2-0.4-0.5l0.3-1.9l-0.7-0.9c-0.1-0.2-0.1-0.4,0.1-0.6
			c0.2-0.1,0.4-0.1,0.6,0.1l0.8,1c0.1,0.1,0.1,0.2,0.1,0.3l-0.3,2.1C597,113.7,596.8,113.8,596.6,113.8z"/>
	</g>
	<g>
		<path d="M602.9,114.4c-0.3,0-0.4-0.2-0.4-0.5l0.3-1.9l-1-1c-0.2-0.2-0.2-0.4,0-0.6c0.2-0.2,0.4-0.2,0.6,0l1.2,1.2
			c0.1,0.1,0.1,0.2,0.1,0.3l-0.3,2.1C603.2,114.2,603.1,114.4,602.9,114.4z"/>
	</g>
	<g>
		<path d="M600.1,122.5c-1.2,0-2.6-1-2.7-1.1c-0.1-0.1-0.2-0.3-0.2-0.4c0-0.2,0.2-0.3,0.3-0.3l5-0.9c0.2,0,0.3,0,0.4,0.2
			c0.1,0.1,0.1,0.3,0,0.5c-0.1,0.2-1.3,1.8-2.4,2.1C600.4,122.4,600.3,122.5,600.1,122.5z M598.7,121.2c0.6,0.3,1.2,0.5,1.6,0.4
			c0.4-0.1,0.9-0.5,1.3-0.9L598.7,121.2z"/>
	</g>
	<g>
		<g>
			<path class="st5" d="M495.5,97.4l6.3,21.9c0.1,0.4,0.5,0.7,0.9,0.7h31c0.4,0,0.6-0.3,0.5-0.7l-6.3-21.9c-0.1-0.4-0.5-0.7-0.9-0.7
				h-31C495.6,96.8,495.4,97.1,495.5,97.4z"/>
		</g>
		<g>
			<path class="st24" d="M495.5,97.4l0.3,1.1h32.3l-0.3-1.1c-0.1-0.4-0.5-0.7-0.9-0.7h-31C495.6,96.8,495.4,97.1,495.5,97.4z"/>
		</g>
		<g>
			<polygon class="st7" points="528.7,106.8 502.1,107.1 500.5,102.4 527.6,102.4 			"/>
		</g>
		<g>
			<polygon class="st7" points="530.7,112.8 504.1,113.1 502.5,108.4 529.6,108.4 			"/>
		</g>
		<g>
			<polygon class="st22" points="527,117.5 511.1,117.7 510.1,114.9 526.4,114.9 			"/>
		</g>
	</g>
	<g>
		<path class="st3" d="M603.6,139.5c-0.2,0-0.3,0-0.5,0c-1.1-0.1-2-0.6-2.5-1.3c-0.4-0.7-0.5-1.4-0.5-2c-1.1,0.8-3.1,1.9-4.2,1.4
			c-0.3-0.1-0.5-0.4-0.6-0.7c-0.3-1.2,1.1-3.3,1.4-3.7c0.1-0.2,0.4-0.2,0.5-0.1c0.1,0,7.7,4.1,14.8-1.1c0.1-0.1,0.2-0.1,0.4-0.1
			c0.1,0,0.2,0.1,0.3,0.3c0.1,0.3,1,3.2-0.7,4c-1.2,0.6-2.4-0.2-3-0.6C608.4,136.6,606.4,139.5,603.6,139.5z M601,135
			c0.1,0.1,0.1,0.2,0,0.3c0,0-0.4,1.4,0.3,2.3c0.4,0.5,1,0.9,1.9,1c2.9,0.3,5-3.5,5.3-4C605.7,135.6,603.1,135.4,601,135z
			 M597.3,133.9c-0.6,0.9-1.2,2.2-1.1,2.7c0,0.1,0.1,0.1,0.1,0.1c0.7,0.3,2.8-0.9,4.1-1.8C598.9,134.6,597.8,134.1,597.3,133.9z
			 M609.2,134.4C609.2,134.4,609.2,134.5,609.2,134.4c0.1,0.1,1.5,1.4,2.6,0.9c0.7-0.3,0.6-1.6,0.4-2.4
			C611.2,133.6,610.2,134.1,609.2,134.4z"/>
	</g>
	<g>
		<path class="st3" d="M577.9,171.6c-0.2,0-0.4-0.2-0.4-0.4l0.3-10.6c-0.2-0.6-1.6-4.2-1-9.4c0.8-7.7,5.9-10.9,6.1-11
			c0.2-0.1,0.5-0.1,0.6,0.1c0.1,0.2,0.1,0.5-0.1,0.6c0,0-4.9,3.1-5.7,10.4c-0.6,5.4,1,9.1,1,9.1c0,0.1,0,0.1,0,0.2l-0.3,10.7
			C578.3,171.4,578.1,171.6,577.9,171.6z"/>
	</g>
	<g>
		<path class="st7" d="M601.9,256.6c-2,0-3.6-0.3-3.7-0.4c-0.2-0.1-0.4-0.3-0.3-0.5c0.1-0.2,0.3-0.4,0.5-0.3c0.1,0,7.6,1.6,10.8-2.4
			c1-1.2,1.4-2.4,1.2-3.6c-0.3-1.7-1.9-2.7-1.9-2.7c-0.1-0.1-0.2-0.2-0.2-0.3c0-0.1,0-0.2,0.1-0.3c0.1-0.1,6.2-6.6,2.3-13.6
			c-1.2-2.1-2.7-3.5-4.6-4c-2.9-0.8-5.7,0.8-5.7,0.9c-0.1,0.1-0.3,0.1-0.5,0c-0.1-0.1-0.2-0.3-0.2-0.4c0.3-1.3,0.7-5-0.4-6.2
			c-0.3-0.3-0.6-0.4-1-0.4c-3.1,0.3-5.7,4.4-5.8,4.4c-0.1,0.2-0.4,0.2-0.6,0.1c-0.2-0.1-0.2-0.4-0.1-0.6c0.1-0.2,2.9-4.5,6.4-4.8
			c0.7-0.1,1.3,0.2,1.7,0.6c1.2,1.4,0.9,4.5,0.7,6.1c1.1-0.5,3.3-1.2,5.6-0.6c2.1,0.6,3.8,2,5.1,4.4c3.6,6.6-0.8,12.7-2.1,14.2
			c0.6,0.5,1.6,1.5,1.9,3c0.2,1.4-0.2,2.8-1.4,4.2C607.8,256.1,604.5,256.6,601.9,256.6z"/>
	</g>
	<g>
		<path class="st7" d="M629.3,275.9c-3.7,0-6.4-5.2-7.1-6.5c-1.2,0.3-5,1-7.7-0.6c-1.4-0.8-2.2-2.1-2.6-3.8c-0.4-1.7-0.1-3,0.8-4.1
			c1.5-1.7,4.2-1.9,5.5-1.9c-0.2-1.2-0.7-4.2,0.8-5.7c1-1,2.6-1.1,4.7-0.5c0.7-1,3.3-4.1,7.6-3.4c1.1,0.2,1.9,0.7,2.4,1.6
			c1.1,2.1-0.3,5.7-0.8,6.9c1.4,0.4,5.6,1.9,6.5,4.3c0.4,0.9,0.2,1.8-0.4,2.8c-2.1,3.4-5.4,3.6-6.9,3.5c0.4,1.2,1.2,3.9,0.3,5.7
			c-0.4,0.8-1.2,1.4-2.3,1.6C629.8,275.8,629.6,275.9,629.3,275.9z M622.5,268.4c0.2,0,0.3,0.1,0.4,0.3c0,0.1,3.1,7.1,7,6.3
			c0.8-0.2,1.4-0.5,1.7-1.1c1-2-0.5-5.6-0.5-5.6c-0.1-0.1,0-0.3,0.1-0.4s0.3-0.2,0.4-0.1c0.2,0,4.2,0.9,6.7-3c0.4-0.7,0.5-1.4,0.3-2
			c-1-2.5-6.4-4-6.4-4c-0.1,0-0.2-0.1-0.3-0.2c-0.1-0.1,0-0.2,0-0.4c0,0,2.1-4.4,1-6.6c-0.3-0.6-0.9-1-1.8-1.2
			c-4.4-0.8-6.8,3.1-6.9,3.3c-0.1,0.2-0.3,0.2-0.5,0.2c-2-0.6-3.4-0.6-4.2,0.2c-1.6,1.5-0.4,5.4-0.4,5.4c0,0.1,0,0.3-0.1,0.4
			c-0.1,0.1-0.2,0.2-0.4,0.2c0,0-3.8-0.3-5.4,1.6c-0.7,0.8-0.9,1.9-0.6,3.3c0.3,1.5,1.1,2.5,2.2,3.2c2.9,1.7,7.4,0.5,7.4,0.5
			C622.4,268.4,622.5,268.4,622.5,268.4z"/>
	</g>
	<g>
		<path class="st7" d="M648.9,253.1c-0.8,0-1.6-0.2-2.3-0.6c-4.1-2.5-2.6-10.4-2.5-10.7c0-0.2,0.3-0.4,0.5-0.3
			c0.2,0,0.4,0.3,0.3,0.5c0,0.1-1.4,7.7,2.2,9.9c3.6,2.2,9.9-3.5,9.9-3.5c0.1-0.1,0.2-0.1,0.3-0.1c0.1,0,0.2,0.1,0.3,0.2
			c0,0,1.6,2.4,3.9,2.6c1.6,0.1,3.3-0.8,5-2.7c0.2-0.2,0.4-0.2,0.6,0c0.2,0.1,0.2,0.4,0,0.6c-1.9,2.2-3.8,3.2-5.7,3
			c-2.2-0.2-3.7-1.8-4.3-2.6C656,250.2,652.2,253.1,648.9,253.1z"/>
	</g>
	<g>
		<path class="st7" d="M659.6,285.3c-0.2,0-0.4-0.2-0.4-0.4c0,0,0-1.6-2.1-3.5c-1.6-1.5-5.6,1-7,2.1c-0.1,0.1-0.2,0.1-0.4,0.1
			c-0.1,0-0.2-0.1-0.3-0.3c-0.1-0.2-1.6-5-7-5.3c-5.4-0.3-8.6,6.8-8.6,6.8c-0.1,0.2-0.3,0.3-0.6,0.2c-0.2-0.1-0.3-0.3-0.2-0.6
			c0.1-0.3,3.3-7.3,9-7.3c0.1,0,0.3,0,0.4,0c4.8,0.3,6.9,4,7.5,5.4c1.4-1,5.6-3.7,7.7-1.7c2.4,2.2,2.3,4.1,2.3,4.2
			C660,285.1,659.9,285.3,659.6,285.3z"/>
	</g>
	<g>
		<path class="st7" d="M628,233.7c-0.1,0-0.2,0-0.3,0c-1.1-0.1-1.8-0.4-2.3-1.1c-0.6-0.9-0.5-2.2-0.3-2.9c-2,0.1-8.3,0.2-9.4-5.1
			c-1.1-5.4,4.6-9.1,6.2-10c-0.7-1.1-1.2-3,0.3-4.5c2.1-2.1,7.8,2.9,8.4,3.5c0.2,0.2,0.2,0.4,0,0.6c-0.2,0.2-0.4,0.2-0.6,0
			c-2.2-1.9-6.1-4.6-7.3-3.5c-1.6,1.6,0,3.7,0,3.7c0.1,0.1,0.1,0.2,0.1,0.3c0,0.1-0.1,0.2-0.2,0.3c-0.1,0-7.3,3.8-6.2,9.4
			c1.1,5.5,9,4.4,9.1,4.4c0.1,0,0.3,0,0.4,0.1c0.1,0.1,0.1,0.3,0.1,0.4c0,0-0.6,1.7,0.1,2.8c0.3,0.5,0.9,0.7,1.7,0.8
			c3.2,0.1,5.3-3.9,5.3-4c0.1-0.2,0.4-0.3,0.6-0.2c0.2,0.1,0.3,0.4,0.2,0.6C633.7,229.4,631.6,233.7,628,233.7z"/>
	</g>
	<g>
		<path class="st25" d="M596.3,251.7c-0.7,0-6.8-0.1-7.4-5.1c-0.5-4.4,2-9,2.7-10.2c-1.5-1.3-7.9-7.2-6.1-13.5c2-6.8,7-9.5,7.2-9.7
			c0.2-0.1,0.5,0,0.6,0.2c0.1,0.2,0,0.5-0.2,0.6c0,0-4.9,2.7-6.8,9.2c-1.9,6.4,6,12.8,6.1,12.9c0.2,0.1,0.2,0.4,0.1,0.6
			c0,0.1-3.4,5.3-2.8,9.9c0.5,4.5,6.6,4.4,6.6,4.4c0.2,0,0.4,0.2,0.4,0.4C596.8,251.5,596.6,251.7,596.3,251.7
			C596.4,251.7,596.4,251.7,596.3,251.7z"/>
	</g>
	<g>
		<path class="st25" d="M593.3,306.8c-2.8,0-5.8-2.8-6.6-3.7c-1.1,0.8-5.2,3.6-7.6,3c-0.7-0.2-1.3-0.6-1.6-1.3
			c-1.5-3.1,2.4-6.5,4-7.7c-1.5-0.7-4.8-2.8-4.8-7.5c0-1.1,0.4-1.9,1.1-2.6c1.7-1.5,4.7-1.4,5.8-1.3c0.3-1.5,1.6-6.6,5.4-6.9
			c0.9-0.1,1.7,0.2,2.3,0.9c1.8,1.8,1.8,5.8,1.8,7.1c1.5,0.2,6.9,1,8.5,3.7c0.6,0.9,0.6,1.9,0.2,3c-1.5,4-4.5,4.5-5.9,4.4
			c0.8,1.7,2.6,6.3-0.5,8.2C594.7,306.7,594,306.8,593.3,306.8z M586.7,302.2c0.1,0,0.2,0,0.3,0.1c0,0.1,4.8,5.2,7.9,3.2
			c3.1-2-0.1-7.8-0.1-7.8c-0.1-0.1-0.1-0.3,0-0.5c0.1-0.1,0.3-0.2,0.4-0.2c0.2,0,4,0.9,5.8-3.8c0.3-0.8,0.3-1.6-0.1-2.3
			c-1.6-2.6-8.2-3.3-8.3-3.3c-0.2,0-0.4-0.2-0.4-0.4c0-0.1,0.3-5-1.5-6.9c-0.5-0.5-1-0.7-1.7-0.6c-3.8,0.2-4.7,6.5-4.7,6.5
			c0,0.2-0.2,0.4-0.5,0.4c0,0-3.8-0.4-5.5,1.1c-0.6,0.5-0.8,1.1-0.8,2c0,5.4,4.7,6.9,4.9,7c0.2,0,0.3,0.2,0.3,0.3
			c0,0.2,0,0.3-0.2,0.4c-0.1,0-5.8,3.9-4.3,7c0.2,0.5,0.6,0.7,1,0.8c2,0.5,5.9-2,7.3-3C586.6,302.2,586.6,302.2,586.7,302.2z"/>
	</g>
	<g>
		<path class="st25" d="M567.5,278.2c-0.8,0-1.8-0.1-2.8-0.4c-0.2-0.1-0.4-0.3-0.3-0.5c0.1-0.2,0.3-0.4,0.5-0.3
			c2.6,0.7,4.5,0.4,5.7-0.7c2.3-2.2,1.3-7.2,1.3-7.3c0-0.1,0-0.2,0.1-0.3c0.1-0.1,0.2-0.2,0.3-0.2c0.2,0,5.9-0.5,7.4-6.8
			c1.5-6.2-5.9-9.2-6.2-9.3c-0.1,0-0.2-0.1-0.2-0.2c0-0.1,0-0.2,0-0.3c0,0,1.1-2,0.5-3.8c-0.3-1-1-1.7-2-2.3c-0.6-0.3-1.3-0.4-2-0.1
			c-3.1,1-5.8,7-5.9,7c-0.1,0.2-0.3,0.3-0.6,0.2c-0.2-0.1-0.3-0.3-0.2-0.6c0.1-0.3,2.9-6.3,6.4-7.5c0.9-0.3,1.8-0.3,2.7,0.2
			c1.3,0.7,2.1,1.6,2.4,2.8c0.5,1.7-0.1,3.3-0.4,4.1c1.7,0.8,7.7,4.1,6.3,10.1c-1.4,5.8-6.1,7.1-7.7,7.4c0.2,1.4,0.6,5.5-1.7,7.6
			C570.3,277.8,569,278.2,567.5,278.2z"/>
	</g>
	<g>
		<path class="st25" d="M566.1,232.8c-0.1,0-0.2,0-0.3,0c-0.2,0-0.4-0.2-0.4-0.4c0-0.2,0.2-0.4,0.4-0.4c1.4,0.1,2.5-0.4,3.4-1.3
			c2.7-2.8,2-9.4,2-9.5c0-0.2,0.1-0.4,0.3-0.4c0.1,0,3.1-1.2,3.9-5.2c0.8-3.9-3.9-6.1-4-6.1c-0.2-0.1-0.3-0.3-0.2-0.5
			c0.1-0.2,0.3-0.3,0.5-0.2c0.1,0,5.4,2.5,4.4,7c-0.8,3.8-3.3,5.3-4.2,5.7c0.1,1.4,0.3,7-2.3,9.8
			C568.8,232.3,567.6,232.8,566.1,232.8z"/>
	</g>
	<g>
		<path class="st7" d="M604.6,266.6c-0.1,0-0.2-0.1-0.3-0.2c-15.3-19.8-12.9-42.8-11.6-55.1c0.1-0.8,0.2-1.6,0.2-2.3l-10.8-0.6
			c-0.2,0-0.4-0.2-0.4-0.4c0-0.2,0.2-0.4,0.4-0.4l11.2,0.6c0.1,0,0.2,0.1,0.3,0.1c0.1,0.1,0.1,0.2,0.1,0.3c-0.1,0.8-0.2,1.7-0.3,2.7
			c-1.3,12.2-3.7,34.9,11.4,54.5c0.1,0.2,0.1,0.4-0.1,0.6C604.8,266.6,604.7,266.6,604.6,266.6z"/>
	</g>
</g>
</svg>
