<?xml version="1.0" encoding="UTF-8"?>
<svg version="1.1" xmlns="http://www.w3.org/2000/svg" width="512" height="512">
<path d="M0 0 C4.61930892 2.1880937 6.71115132 4.50355977 9 9 C9.36076355 11.57539368 9.36076355 11.57539368 9.34057617 14.34106445 C9.34034958 15.3817659 9.34012299 16.42246735 9.33988953 17.4947052 C9.32440567 18.6063353 9.30892181 19.71796539 9.29296875 20.86328125 C9.28872391 22.01040085 9.28447906 23.15752045 9.28010559 24.33940125 C9.26333484 27.99734121 9.22568435 31.654727 9.1875 35.3125 C9.17245114 37.79491391 9.15876309 40.27733647 9.14648438 42.75976562 C9.11343649 48.84003231 9.0632524 54.91997656 9 61 C9.63813629 60.99111755 10.27627258 60.98223511 10.93374634 60.9730835 C17.58480865 60.88448254 24.23570287 60.82421256 30.88720703 60.78027344 C33.36839611 60.76017759 35.84953795 60.73289616 38.33056641 60.69824219 C41.90018382 60.64963706 45.46917416 60.62701028 49.0390625 60.609375 C50.14553131 60.58872986 51.25200012 60.56808472 52.39199829 60.54681396 C58.58534375 60.54501586 62.31658193 60.79849256 67 65 C71.05630398 70.22259857 70.77397544 75.65340142 70 82 C67.8119063 86.61930892 65.49644023 88.71115132 61 91 C58.42460632 91.36076355 58.42460632 91.36076355 55.65893555 91.34057617 C54.09788338 91.34023628 54.09788338 91.34023628 52.5052948 91.33988953 C50.83784966 91.31666374 50.83784966 91.31666374 49.13671875 91.29296875 C47.41603935 91.28660149 47.41603935 91.28660149 45.66059875 91.28010559 C42.00265879 91.26333484 38.345273 91.22568435 34.6875 91.1875 C32.20508609 91.17245114 29.72266353 91.15876309 27.24023438 91.14648438 C21.15996769 91.11343649 15.08002344 91.0632524 9 91 C9.00151888 91.74042703 9.00303776 92.48085406 9.00460267 93.24371827 C9.09407816 137.10898613 9.1627276 180.97424409 9.20426132 224.83958489 C9.20926426 230.10431977 9.21444154 235.36905446 9.21972656 240.63378906 C9.2207758 241.68192098 9.22182505 242.73005291 9.22290608 243.8099464 C9.24032031 260.79025346 9.2718636 277.77050646 9.30861118 294.75078143 C9.34599229 312.16881817 9.36822986 329.58682656 9.37635398 347.00490177 C9.38184762 357.75633477 9.39921061 368.50761497 9.43166587 379.25900094 C9.45277882 386.62754716 9.45920735 393.99601417 9.45400551 401.36458845 C9.45143871 405.61849638 9.45542566 409.87213693 9.4768219 414.12599754 C9.49626411 418.01974368 9.49728543 421.91304223 9.48359558 425.80680881 C9.48190322 427.21606733 9.48699746 428.62535358 9.49953273 430.03455736 C9.59870236 441.87048803 9.59870236 441.87048803 7.28243637 445.69042778 C4.17057356 448.83928748 1.59071755 450.79360247 -2.87161475 451.37259549 C-4.46814888 451.37088675 -4.46814888 451.37088675 -6.09693623 451.36914349 C-7.32956332 451.37511663 -8.56219041 451.38108978 -9.83216983 451.38724393 C-11.19697825 451.37868537 -12.56178495 451.36984859 -13.92658997 451.36076355 C-15.37871189 451.36207182 -16.83083312 451.36469862 -18.28295058 451.36853105 C-22.27369687 451.37524388 -26.26420195 451.36323245 -30.2549175 451.34819686 C-34.55820992 451.33525224 -38.86148852 451.33962485 -43.16479492 451.34190369 C-50.62070252 451.34347742 -58.07653141 451.33405778 -65.5324192 451.31719017 C-76.31239427 451.29281827 -87.09233124 451.28499675 -97.87233087 451.2812262 C-115.36176755 451.27465887 -132.85116227 451.25469008 -150.34057617 451.22631836 C-167.33080841 451.19878507 -184.32102926 451.17754791 -201.3112793 451.16479492 C-202.35840113 451.16400675 -203.40552296 451.16321858 -204.48437575 451.16240653 C-209.73743152 451.15849144 -214.99048737 451.15470031 -220.24354327 451.15097082 C-263.82905791 451.11986616 -307.41452679 451.0670227 -351 451 C-350.99111755 451.63813629 -350.98223511 452.27627258 -350.9730835 452.93374634 C-350.88448254 459.58480865 -350.82421256 466.23570287 -350.78027344 472.88720703 C-350.76017759 475.36839611 -350.73289616 477.84953795 -350.69824219 480.33056641 C-350.64963706 483.90018382 -350.62701028 487.46917416 -350.609375 491.0390625 C-350.58872986 492.14553131 -350.56808472 493.25200012 -350.54681396 494.39199829 C-350.54501586 500.58534375 -350.79849256 504.31658193 -355 509 C-360.22259857 513.05630398 -365.65340142 512.77397544 -372 512 C-376.61930892 509.8119063 -378.71115132 507.49644023 -381 503 C-381.36076355 500.42460632 -381.36076355 500.42460632 -381.34057617 497.65893555 C-381.34023628 496.09788338 -381.34023628 496.09788338 -381.33988953 494.5052948 C-381.31666374 492.83784966 -381.31666374 492.83784966 -381.29296875 491.13671875 C-381.28872391 489.98959915 -381.28447906 488.84247955 -381.28010559 487.66059875 C-381.26333484 484.00265879 -381.22568435 480.345273 -381.1875 476.6875 C-381.17245114 474.20508609 -381.15876309 471.72266353 -381.14648438 469.24023438 C-381.11343649 463.15996769 -381.0632524 457.08002344 -381 451 C-381.63813629 451.00888245 -382.27627258 451.01776489 -382.93374634 451.0269165 C-389.58480865 451.11551746 -396.23570287 451.17578744 -402.88720703 451.21972656 C-405.36839611 451.23982241 -407.84953795 451.26710384 -410.33056641 451.30175781 C-413.90018382 451.35036294 -417.46917416 451.37298972 -421.0390625 451.390625 C-422.14553131 451.41127014 -423.25200012 451.43191528 -424.39199829 451.45318604 C-430.58534375 451.45498414 -434.31658193 451.20150744 -439 447 C-443.05630398 441.77740143 -442.77397544 436.34659858 -442 430 C-439.8119063 425.38069108 -437.49644023 423.28884868 -433 421 C-430.42460632 420.63923645 -430.42460632 420.63923645 -427.65893555 420.65942383 C-426.09788338 420.65976372 -426.09788338 420.65976372 -424.5052948 420.66011047 C-423.3936647 420.67559433 -422.28203461 420.69107819 -421.13671875 420.70703125 C-419.98959915 420.71127609 -418.84247955 420.71552094 -417.66059875 420.71989441 C-414.00265879 420.73666516 -410.345273 420.77431565 -406.6875 420.8125 C-404.20508609 420.82754886 -401.72266353 420.84123691 -399.24023438 420.85351562 C-393.15996769 420.88656351 -387.08002344 420.9367476 -381 421 C-381.00151888 420.25957297 -381.00303776 419.51914594 -381.00460267 418.75628173 C-381.09407816 374.89101387 -381.1627276 331.02575591 -381.20426132 287.16041511 C-381.20926426 281.89568023 -381.21444154 276.63094554 -381.21972656 271.36621094 C-381.2207758 270.31807902 -381.22182505 269.26994709 -381.22290608 268.1900536 C-381.24032031 251.20974654 -381.2718636 234.22949354 -381.30861118 217.24921857 C-381.34599229 199.83118183 -381.36822986 182.41317344 -381.37635398 164.99509823 C-381.38184762 154.24366523 -381.39921061 143.49238503 -381.43166587 132.74099906 C-381.45277882 125.37245284 -381.45920735 118.00398583 -381.45400551 110.63541155 C-381.45143871 106.38150362 -381.45542566 102.12786307 -381.4768219 97.87400246 C-381.49626411 93.98025632 -381.49728543 90.08695777 -381.48359558 86.19319119 C-381.48190322 84.78393267 -381.48699746 83.37464642 -381.49953273 81.96544264 C-381.59870236 70.12951197 -381.59870236 70.12951197 -379.28243637 66.30957222 C-376.17057356 63.16071252 -373.59071755 61.20639753 -369.12838525 60.62740451 C-367.53185112 60.62911325 -367.53185112 60.62911325 -365.90306377 60.63085651 C-364.67043668 60.62488337 -363.43780959 60.61891022 -362.16783017 60.61275607 C-360.80302175 60.62131463 -359.43821505 60.63015141 -358.07341003 60.63923645 C-356.62128811 60.63792818 -355.16916688 60.63530138 -353.71704942 60.63146895 C-349.72630313 60.62475612 -345.73579805 60.63676755 -341.7450825 60.65180314 C-337.44179008 60.66474776 -333.13851148 60.66037515 -328.83520508 60.65809631 C-321.37929748 60.65652258 -313.92346859 60.66594222 -306.4675808 60.68280983 C-295.68760573 60.70718173 -284.90766876 60.71500325 -274.12766913 60.7187738 C-256.63823245 60.72534113 -239.14883773 60.74530992 -221.65942383 60.77368164 C-204.66919159 60.80121493 -187.67897074 60.82245209 -170.6887207 60.83520508 C-169.64159887 60.83599325 -168.59447704 60.83678142 -167.51562425 60.83759347 C-162.26256848 60.84150856 -157.00951263 60.84529969 -151.75645673 60.84902918 C-108.17094209 60.88013384 -64.58547321 60.9329773 -21 61 C-21.00888245 60.36186371 -21.01776489 59.72372742 -21.0269165 59.06625366 C-21.11551746 52.41519135 -21.17578744 45.76429713 -21.21972656 39.11279297 C-21.23982241 36.63160389 -21.26710384 34.15046205 -21.30175781 31.66943359 C-21.35036294 28.09981618 -21.37298972 24.53082584 -21.390625 20.9609375 C-21.42159271 19.30123428 -21.42159271 19.30123428 -21.45318604 17.60800171 C-21.45498414 11.41465625 -21.20150744 7.68341807 -17 3 C-11.77740143 -1.05630398 -6.34659858 -0.77397544 0 0 Z " fill="#8066FF" transform="translate(442,0)"/>
<path d="M0 0 C108.9 0 217.8 0 330 0 C330 120 330 120 316 135 C313.37338524 137.98032738 313.37338524 137.98032738 310.76953125 140.98046875 C308.39115541 143.69486236 305.94489371 146.34570757 303.5 149 C299.87902107 152.9327753 296.31040892 156.90214223 292.80859375 160.94140625 C289.7222052 164.45442302 286.55371222 167.89299818 283.40234375 171.34765625 C281.43058156 173.52460996 279.48634663 175.71838674 277.5625 177.9375 C274.13299081 181.88589474 270.59123177 185.72857458 267.04931641 189.57568359 C263.92213349 192.97806721 260.85556126 196.42362142 257.83203125 199.91796875 C254.62789025 203.55934861 251.3267953 207.11383833 248.0390625 210.6796875 C245.98422672 212.81946882 245.98422672 212.81946882 245 215 C241.61915958 214.4243719 240.08756563 213.42260379 237.79296875 210.90234375 C237.20990967 210.26965576 236.62685059 209.63696777 236.02612305 208.98510742 C235.41937744 208.30939697 234.81263184 207.63368652 234.1875 206.9375 C233.55948486 206.25083252 232.93146973 205.56416504 232.28442383 204.85668945 C228.68359347 200.90761812 225.11777992 196.92739875 221.62890625 192.87890625 C218.14839824 188.86421955 214.56026523 184.94386283 211 181 C208.75203023 178.50312008 206.50491993 176.00546849 204.2578125 173.5078125 C202.73291756 171.81407106 201.20684598 170.12138831 199.6796875 168.4296875 C196.30087292 164.68435744 192.93104035 160.93481793 189.625 157.125 C186.64083314 153.69667808 183.57811516 150.34379199 180.5 147 C176.85588284 143.04135351 173.26086345 139.04823312 169.734375 134.984375 C166.97232331 131.82418973 164.15707328 128.71255442 161.33984375 125.6015625 C159.73485027 123.81704554 158.1443746 122.01939561 156.56640625 120.2109375 C155.78136719 119.31632812 154.99632812 118.42171875 154.1875 117.5 C153.47980469 116.6853125 152.77210938 115.870625 152.04296875 115.03125 C148.813938 111.82074142 146.15784882 110.70452366 141.625 110.625 C134.2475946 110.84162854 130.14551978 115.63425177 125.22265625 120.609375 C123.34100087 122.63322929 121.51928103 124.68797656 119.70703125 126.7734375 C116.11147739 130.90345911 112.38783386 134.89767633 108.625 138.875 C103.80860094 143.98775667 99.04718972 149.13708222 94.37109375 154.37890625 C91.2860955 157.78917614 88.14368706 161.14388483 85 164.5 C81.12828692 168.63361255 77.27343959 172.77600046 73.5 177 C69.12642707 181.8957906 64.63978954 186.68162005 60.15234375 191.47265625 C56.8989652 194.95089033 53.67311577 198.44800473 50.5 202 C46.17170659 206.84318334 41.73776298 211.58332374 37.29956055 216.32543945 C31.82402675 222.17885076 26.40704694 228.08330504 21 234 C20.06410739 235.01981152 19.12790516 236.03933898 18.19140625 237.05859375 C17.25260081 238.08072608 16.3137987 239.10286147 15.375 240.125 C14.69715454 240.86254517 14.69715454 240.86254517 14.00561523 241.61499023 C10.18420626 245.78072012 6.42286164 249.99832739 2.6796875 254.234375 C2.12539062 254.81703125 1.57109375 255.3996875 1 256 C0.67 256 0.34 256 0 256 C0 171.52 0 87.04 0 0 Z " fill="#CBD4FE" transform="translate(91,91)"/>
<path d="M0 0 C4.61930892 2.1880937 6.71115132 4.50355977 9 9 C9.36076355 11.57539368 9.36076355 11.57539368 9.34057617 14.34106445 C9.34034958 15.3817659 9.34012299 16.42246735 9.33988953 17.4947052 C9.32440567 18.6063353 9.30892181 19.71796539 9.29296875 20.86328125 C9.28872391 22.01040085 9.28447906 23.15752045 9.28010559 24.33940125 C9.26333484 27.99734121 9.22568435 31.654727 9.1875 35.3125 C9.17245114 37.79491391 9.15876309 40.27733647 9.14648438 42.75976562 C9.11343649 48.84003231 9.0632524 54.91997656 9 61 C9.63813629 60.99111755 10.27627258 60.98223511 10.93374634 60.9730835 C17.58480865 60.88448254 24.23570287 60.82421256 30.88720703 60.78027344 C33.36839611 60.76017759 35.84953795 60.73289616 38.33056641 60.69824219 C41.90018382 60.64963706 45.46917416 60.62701028 49.0390625 60.609375 C50.14553131 60.58872986 51.25200012 60.56808472 52.39199829 60.54681396 C58.58534375 60.54501586 62.31658193 60.79849256 67 65 C71.05630398 70.22259857 70.77397544 75.65340142 70 82 C67.8119063 86.61930892 65.49644023 88.71115132 61 91 C58.42460632 91.36076355 58.42460632 91.36076355 55.65893555 91.34057617 C54.09788338 91.34023628 54.09788338 91.34023628 52.5052948 91.33988953 C50.83784966 91.31666374 50.83784966 91.31666374 49.13671875 91.29296875 C47.41603935 91.28660149 47.41603935 91.28660149 45.66059875 91.28010559 C42.00265879 91.26333484 38.345273 91.22568435 34.6875 91.1875 C32.20508609 91.17245114 29.72266353 91.15876309 27.24023438 91.14648438 C21.15996769 91.11343649 15.08002344 91.0632524 9 91 C9.00151888 91.74042703 9.00303776 92.48085406 9.00460267 93.24371827 C9.09407816 137.10898613 9.1627276 180.97424409 9.20426132 224.83958489 C9.20926426 230.10431977 9.21444154 235.36905446 9.21972656 240.63378906 C9.2207758 241.68192098 9.22182505 242.73005291 9.22290608 243.8099464 C9.24032031 260.79025346 9.2718636 277.77050646 9.30861118 294.75078143 C9.34599229 312.16881817 9.36822986 329.58682656 9.37635398 347.00490177 C9.38184762 357.75633477 9.39921061 368.50761497 9.43166587 379.25900094 C9.45277882 386.62754716 9.45920735 393.99601417 9.45400551 401.36458845 C9.45143871 405.61849638 9.45542566 409.87213693 9.4768219 414.12599754 C9.49626411 418.01974368 9.49728543 421.91304223 9.48359558 425.80680881 C9.48190322 427.21606733 9.48699746 428.62535358 9.49953273 430.03455736 C9.59870236 441.87048803 9.59870236 441.87048803 7.28243637 445.69042778 C4.17057356 448.83928748 1.59071755 450.79360247 -2.87161475 451.37259549 C-4.46814888 451.37088675 -4.46814888 451.37088675 -6.09693623 451.36914349 C-7.32956332 451.37511663 -8.56219041 451.38108978 -9.83216983 451.38724393 C-11.19697825 451.37868537 -12.56178495 451.36984859 -13.92658997 451.36076355 C-15.37871189 451.36207182 -16.83083312 451.36469862 -18.28295058 451.36853105 C-22.27369687 451.37524388 -26.26420195 451.36323245 -30.2549175 451.34819686 C-34.55820992 451.33525224 -38.86148852 451.33962485 -43.16479492 451.34190369 C-50.62070252 451.34347742 -58.07653141 451.33405778 -65.5324192 451.31719017 C-76.31239427 451.29281827 -87.09233124 451.28499675 -97.87233087 451.2812262 C-115.36176755 451.27465887 -132.85116227 451.25469008 -150.34057617 451.22631836 C-167.33080841 451.19878507 -184.32102926 451.17754791 -201.3112793 451.16479492 C-202.35840113 451.16400675 -203.40552296 451.16321858 -204.48437575 451.16240653 C-209.73743152 451.15849144 -214.99048737 451.15470031 -220.24354327 451.15097082 C-263.82905791 451.11986616 -307.41452679 451.0670227 -351 451 C-350.99111755 451.63813629 -350.98223511 452.27627258 -350.9730835 452.93374634 C-350.88448254 459.58480865 -350.82421256 466.23570287 -350.78027344 472.88720703 C-350.76017759 475.36839611 -350.73289616 477.84953795 -350.69824219 480.33056641 C-350.64963706 483.90018382 -350.62701028 487.46917416 -350.609375 491.0390625 C-350.58872986 492.14553131 -350.56808472 493.25200012 -350.54681396 494.39199829 C-350.54501586 500.58534375 -350.79849256 504.31658193 -355 509 C-360.22259857 513.05630398 -365.65340142 512.77397544 -372 512 C-376.61930892 509.8119063 -378.71115132 507.49644023 -381 503 C-381.36076355 500.42460632 -381.36076355 500.42460632 -381.34057617 497.65893555 C-381.34023628 496.09788338 -381.34023628 496.09788338 -381.33988953 494.5052948 C-381.31666374 492.83784966 -381.31666374 492.83784966 -381.29296875 491.13671875 C-381.28872391 489.98959915 -381.28447906 488.84247955 -381.28010559 487.66059875 C-381.26333484 484.00265879 -381.22568435 480.345273 -381.1875 476.6875 C-381.17245114 474.20508609 -381.15876309 471.72266353 -381.14648438 469.24023438 C-381.11343649 463.15996769 -381.0632524 457.08002344 -381 451 C-381.63813629 451.00888245 -382.27627258 451.01776489 -382.93374634 451.0269165 C-389.58480865 451.11551746 -396.23570287 451.17578744 -402.88720703 451.21972656 C-405.36839611 451.23982241 -407.84953795 451.26710384 -410.33056641 451.30175781 C-413.90018382 451.35036294 -417.46917416 451.37298972 -421.0390625 451.390625 C-422.14553131 451.41127014 -423.25200012 451.43191528 -424.39199829 451.45318604 C-430.58534375 451.45498414 -434.31658193 451.20150744 -439 447 C-443.05630398 441.77740143 -442.77397544 436.34659858 -442 430 C-439.8119063 425.38069108 -437.49644023 423.28884868 -433 421 C-430.42460632 420.63923645 -430.42460632 420.63923645 -427.65893555 420.65942383 C-426.09788338 420.65976372 -426.09788338 420.65976372 -424.5052948 420.66011047 C-423.3936647 420.67559433 -422.28203461 420.69107819 -421.13671875 420.70703125 C-419.98959915 420.71127609 -418.84247955 420.71552094 -417.66059875 420.71989441 C-414.00265879 420.73666516 -410.345273 420.77431565 -406.6875 420.8125 C-404.20508609 420.82754886 -401.72266353 420.84123691 -399.24023438 420.85351562 C-393.15996769 420.88656351 -387.08002344 420.9367476 -381 421 C-381.00151888 420.25957297 -381.00303776 419.51914594 -381.00460267 418.75628173 C-381.09407816 374.89101387 -381.1627276 331.02575591 -381.20426132 287.16041511 C-381.20926426 281.89568023 -381.21444154 276.63094554 -381.21972656 271.36621094 C-381.2207758 270.31807902 -381.22182505 269.26994709 -381.22290608 268.1900536 C-381.24032031 251.20974654 -381.2718636 234.22949354 -381.30861118 217.24921857 C-381.34599229 199.83118183 -381.36822986 182.41317344 -381.37635398 164.99509823 C-381.38184762 154.24366523 -381.39921061 143.49238503 -381.43166587 132.74099906 C-381.45277882 125.37245284 -381.45920735 118.00398583 -381.45400551 110.63541155 C-381.45143871 106.38150362 -381.45542566 102.12786307 -381.4768219 97.87400246 C-381.49626411 93.98025632 -381.49728543 90.08695777 -381.48359558 86.19319119 C-381.48190322 84.78393267 -381.48699746 83.37464642 -381.49953273 81.96544264 C-381.59870236 70.12951197 -381.59870236 70.12951197 -379.28243637 66.30957222 C-376.17057356 63.16071252 -373.59071755 61.20639753 -369.12838525 60.62740451 C-367.53185112 60.62911325 -367.53185112 60.62911325 -365.90306377 60.63085651 C-364.67043668 60.62488337 -363.43780959 60.61891022 -362.16783017 60.61275607 C-360.80302175 60.62131463 -359.43821505 60.63015141 -358.07341003 60.63923645 C-356.62128811 60.63792818 -355.16916688 60.63530138 -353.71704942 60.63146895 C-349.72630313 60.62475612 -345.73579805 60.63676755 -341.7450825 60.65180314 C-337.44179008 60.66474776 -333.13851148 60.66037515 -328.83520508 60.65809631 C-321.37929748 60.65652258 -313.92346859 60.66594222 -306.4675808 60.68280983 C-295.68760573 60.70718173 -284.90766876 60.71500325 -274.12766913 60.7187738 C-256.63823245 60.72534113 -239.14883773 60.74530992 -221.65942383 60.77368164 C-204.66919159 60.80121493 -187.67897074 60.82245209 -170.6887207 60.83520508 C-169.64159887 60.83599325 -168.59447704 60.83678142 -167.51562425 60.83759347 C-162.26256848 60.84150856 -157.00951263 60.84529969 -151.75645673 60.84902918 C-108.17094209 60.88013384 -64.58547321 60.9329773 -21 61 C-21.00888245 60.36186371 -21.01776489 59.72372742 -21.0269165 59.06625366 C-21.11551746 52.41519135 -21.17578744 45.76429713 -21.21972656 39.11279297 C-21.23982241 36.63160389 -21.26710384 34.15046205 -21.30175781 31.66943359 C-21.35036294 28.09981618 -21.37298972 24.53082584 -21.390625 20.9609375 C-21.42159271 19.30123428 -21.42159271 19.30123428 -21.45318604 17.60800171 C-21.45498414 11.41465625 -21.20150744 7.68341807 -17 3 C-11.77740143 -1.05630398 -6.34659858 -0.77397544 0 0 Z M-351 91 C-351 199.9 -351 308.8 -351 421 C-242.1 421 -133.2 421 -21 421 C-21 312.1 -21 203.2 -21 91 C-129.9 91 -238.8 91 -351 91 Z " fill="#493373" transform="translate(442,0)"/>
<path d="M0 0 C46.86 0 93.72 0 142 0 C142 36.3 142 72.6 142 110 C139.03 110.99 136.06 111.98 133 113 C130.13896442 115.10950857 130.13896442 115.10950857 127.875 117.6875 C126.72644531 118.89986328 126.72644531 118.89986328 125.5546875 120.13671875 C123.57243616 122.35841635 121.61034771 124.59359062 119.65625 126.83984375 C116.07579855 130.94552472 112.36842427 134.91819231 108.625 138.875 C103.80860094 143.98775667 99.04718972 149.13708222 94.37109375 154.37890625 C91.2860955 157.78917614 88.14368706 161.14388483 85 164.5 C81.12828692 168.63361255 77.27343959 172.77600046 73.5 177 C69.12642707 181.8957906 64.63978954 186.68162005 60.15234375 191.47265625 C56.8989652 194.95089033 53.67311577 198.44800473 50.5 202 C46.17170659 206.84318334 41.73776298 211.58332374 37.29956055 216.32543945 C31.82402675 222.17885076 26.40704694 228.08330504 21 234 C20.06410739 235.01981152 19.12790516 236.03933898 18.19140625 237.05859375 C17.25260081 238.08072608 16.3137987 239.10286147 15.375 240.125 C14.69715454 240.86254517 14.69715454 240.86254517 14.00561523 241.61499023 C10.18420626 245.78072012 6.42286164 249.99832739 2.6796875 254.234375 C2.12539062 254.81703125 1.57109375 255.3996875 1 256 C0.67 256 0.34 256 0 256 C0 171.52 0 87.04 0 0 Z " fill="#E5E9FF" transform="translate(91,91)"/>
<path d="M0 0 C0.99871141 -0.00384491 0.99871141 -0.00384491 2.01759881 -0.0077675 C4.2410821 -0.01269569 6.46388126 0.00377071 8.68730164 0.02018738 C10.2840778 0.02103386 11.88085513 0.02055809 13.47763062 0.01885986 C17.8078774 0.01799932 22.13787476 0.03563466 26.46806359 0.05658174 C30.99508413 0.07533864 35.52211042 0.0770982 40.04916382 0.08065796 C48.61971652 0.08998132 57.19015439 0.11459906 65.76065654 0.14470643 C75.51873266 0.17824136 85.27681428 0.19473417 95.03493369 0.20979273 C115.10622776 0.24114837 135.17736442 0.29616409 155.24858093 0.36076355 C155.57858093 10.26076355 155.90858093 20.16076355 156.24858093 30.36076355 C109.38858093 30.36076355 62.52858093 30.36076355 14.24858093 30.36076355 C14.24858093 139.26076355 14.24858093 248.16076355 14.24858093 360.36076355 C60.77858093 360.36076355 107.30858093 360.36076355 155.24858093 360.36076355 C155.24858093 370.26076355 155.24858093 380.16076355 155.24858093 390.36076355 C108.71858093 390.36076355 62.18858093 390.36076355 14.24858093 390.36076355 C14.24858093 407.52076355 14.24858093 424.68076355 14.24858093 442.36076355 C9.49243195 449.49498702 9.49243195 449.49498702 5.24858093 451.36076355 C-0.29950511 452.18961624 -5.22282789 452.08483305 -10.31391907 449.67326355 C-13.43137557 446.71567661 -15.50527485 444.11792072 -16.11218262 439.78536987 C-16.10552078 438.87269852 -16.09885895 437.96002716 -16.09199524 437.0196991 C-16.09165535 435.45864693 -16.09165535 435.45864693 -16.09130859 433.86605835 C-16.06808281 432.1986132 -16.06808281 432.1986132 -16.04438782 430.4974823 C-16.04014297 429.3503627 -16.03589813 428.2032431 -16.03152466 427.0213623 C-16.0147539 423.36342234 -15.97710342 419.70603655 -15.93891907 416.04826355 C-15.92387021 413.56584964 -15.91018216 411.08342708 -15.89790344 408.60099792 C-15.86485556 402.52073124 -15.81467147 396.44078699 -15.75141907 390.36076355 C-16.38955536 390.369646 -17.02769165 390.37852844 -17.68516541 390.38768005 C-24.33622771 390.47628101 -30.98712193 390.53655099 -37.6386261 390.58049011 C-40.11981518 390.60058596 -42.60095702 390.62786739 -45.08198547 390.66252136 C-48.65160288 390.71112649 -52.22059323 390.73375327 -55.79048157 390.75138855 C-56.89695038 390.77203369 -58.00341919 390.79267883 -59.14341736 390.81394958 C-65.33676282 390.81574769 -69.068001 390.56227099 -73.75141907 386.36076355 C-77.80772305 381.13816498 -77.5253945 375.70736213 -76.75141907 369.36076355 C-74.56332537 364.74145463 -72.2478593 362.64961223 -67.75141907 360.36076355 C-65.17602539 360 -65.17602539 360 -62.41035461 360.02018738 C-60.84930244 360.02052727 -60.84930244 360.02052727 -59.25671387 360.02087402 C-58.14508377 360.03635788 -57.03345367 360.05184174 -55.88813782 360.0677948 C-54.74101822 360.07203964 -53.59389862 360.07628448 -52.41201782 360.08065796 C-48.75407786 360.09742871 -45.09669207 360.1350792 -41.43891907 360.17326355 C-38.95650516 360.18831241 -36.4740826 360.20200046 -33.99165344 360.21427917 C-27.91138675 360.24732706 -21.83144251 360.29751115 -15.75141907 360.36076355 C-15.75293795 359.62033652 -15.75445683 358.87990949 -15.75602174 358.11704528 C-15.84549723 314.25177742 -15.91414667 270.38651946 -15.95568039 226.52117866 C-15.96068333 221.25644378 -15.9658606 215.99170909 -15.97114563 210.72697449 C-15.97219487 209.67884256 -15.97324411 208.63071064 -15.97432515 207.55081715 C-15.99173937 190.57051008 -16.02328267 173.59025709 -16.06003025 156.60998212 C-16.09741136 139.19194538 -16.11964893 121.77393699 -16.12777305 104.35586178 C-16.13326669 93.60442878 -16.15062968 82.85314858 -16.18308493 72.10176261 C-16.20419788 64.73321639 -16.21062642 57.36474938 -16.20542458 49.9961751 C-16.20285778 45.74226717 -16.20684473 41.48862662 -16.22824097 37.23476601 C-16.24768318 33.34101987 -16.24870449 29.44772132 -16.23501465 25.55395474 C-16.23332229 24.14469622 -16.23841653 22.73540997 -16.2509518 21.32620619 C-16.35012143 9.49027552 -16.35012143 9.49027552 -14.03385544 5.67033577 C-9.52487277 1.10774588 -6.40936464 -0.01489395 0 0 Z " fill="#614D8C" transform="translate(76.75141906738281,60.63923645019531)"/>
<path d="M0 0 C-0.495 108.9 -0.495 108.9 -1 220 C-47.53 220 -94.06 220 -142 220 C-142.309375 208.12 -142.61875 196.24 -142.9375 184 C-143.07406006 180.28234375 -143.21062012 176.5646875 -143.35131836 172.734375 C-143.91605955 146.27707941 -143.91605955 146.27707941 -136.84779358 137.98974609 C-134.32532038 135.55709462 -131.71523301 133.41474759 -128.8553009 131.39213562 C-125.90860313 129.18106413 -123.66676216 126.52386789 -121.25 123.75 C-120.37730469 122.79480469 -119.50460938 121.83960938 -118.60546875 120.85546875 C-117.31576172 119.44201172 -117.31576172 119.44201172 -116 118 C-114.18809792 116.02028065 -112.37578485 114.04095151 -110.5625 112.0625 C-110.11028076 111.56903076 -109.65806152 111.07556152 -109.19213867 110.56713867 C-103.30528551 104.14691641 -97.39101021 97.75199243 -91.47949219 91.35449219 C-85.68886742 85.08721149 -79.90645822 78.8127443 -74.14428711 72.51928711 C-70.2678532 68.2873572 -66.37518296 64.07057076 -62.48046875 59.85546875 C-59.14532809 56.24455418 -55.81933749 52.62544354 -52.5 49 C-48.17263584 44.27357055 -43.8293507 39.56209935 -39.48046875 34.85546875 C-36.14532618 31.24455212 -32.81976965 27.62504958 -29.5 24 C-28.16582031 22.5459375 -28.16582031 22.5459375 -26.8046875 21.0625 C-24.80366922 18.88060676 -22.81075941 16.69153864 -20.8203125 14.5 C-19.75529927 13.33325032 -18.69019714 12.16658178 -17.625 11 C-17.13708984 10.45988281 -16.64917969 9.91976562 -16.14648438 9.36328125 C-7.57330368 0 -7.57330368 0 0 0 Z " fill="#9999FF" transform="translate(233,201)"/>
<path d="M0 0 C0.33 0 0.66 0 1 0 C1 63.36 1 126.72 1 192 C-6.83464567 185.28458943 -6.83464567 185.28458943 -9.3125 182.3125 C-12.14675585 178.98145323 -15.04869093 175.72813383 -18 172.5 C-20.84524228 169.38092989 -23.6719958 166.25244609 -26.4375 163.0625 C-29.3988351 159.6531142 -32.44152486 156.3220569 -35.5 153 C-39.14414329 149.04137814 -42.73913717 145.0482324 -46.265625 140.984375 C-49.79500714 136.94625309 -53.40634226 132.98085319 -57 129 C-58.50028679 127.33359149 -60.00028872 125.66692647 -61.5 124 C-62.61375 122.7625 -62.61375 122.7625 -63.75 121.5 C-70.5 114 -70.5 114 -72.71875 111.5234375 C-74.30820775 109.76523595 -75.91369226 108.02144687 -77.53125 106.2890625 C-78.3459375 105.40992188 -79.160625 104.53078125 -80 103.625 C-80.7425 102.83351563 -81.485 102.04203125 -82.25 101.2265625 C-83.99513484 99.00619004 -84.89774871 97.81759098 -85 95 C-83.8828125 93.2109375 -83.8828125 93.2109375 -82.125 91.375 C-81.4753125 90.67890625 -80.825625 89.9828125 -80.15625 89.265625 C-79.4446875 88.51796875 -78.733125 87.7703125 -78 87 C-76.53760761 85.37865192 -75.0794015 83.75351999 -73.625 82.125 C-72.08361431 80.41641315 -70.54194581 78.70808138 -69 77 C-67.49971321 75.33359149 -65.99971128 73.66692647 -64.5 72 C-60 67 -60 67 -55.5 62 C-54.76007813 61.17757812 -54.02015625 60.35515625 -53.2578125 59.5078125 C-51.73291756 57.81407106 -50.20684598 56.12138831 -48.6796875 54.4296875 C-45.30087292 50.68435744 -41.93104035 46.93481793 -38.625 43.125 C-35.17216181 39.158251 -31.61122619 35.29317331 -28.04956055 31.42456055 C-24.91482948 28.01401194 -21.84273698 24.55840884 -18.80859375 21.05859375 C-15.7355986 17.56082173 -12.58157325 14.13662293 -9.44140625 10.69921875 C-6.66682044 7.63163668 -3.95916498 4.51205488 -1.27734375 1.36328125 C-0.85582031 0.91339844 -0.43429687 0.46351563 0 0 Z " fill="#7733FF" transform="translate(420,211)"/>
<path d="M0 0 C9.40583297 8.66034536 14.90332545 19.61472774 15.875 32.27734375 C16.41526455 47.12643292 11.59469749 59.79359319 1.62890625 70.7578125 C-8.77321808 80.68471287 -21.77654751 84.56071073 -35.83984375 84.3203125 C-49.58748278 83.34702832 -59.96876029 76.84105085 -69.37109375 67.0703125 C-74.35659026 61.07063576 -77.09513019 54.48178357 -79.37109375 47.0703125 C-79.56574219 46.43867188 -79.76039063 45.80703125 -79.9609375 45.15625 C-82.40760021 32.71322251 -79.48830152 20.54819276 -73.21484375 9.76953125 C-66.20407862 -0.49411008 -56.02294643 -8.10890472 -43.93359375 -11.3671875 C-27.65037257 -14.01655987 -12.80028787 -10.41736772 0 0 Z " fill="#FE9934" transform="translate(364.37109375,136.9296875)"/>
<path d="M0 0 C4.59484136 2.1765038 6.81761747 4.46095966 9 9 C9.2895539 11.74402099 9.42074177 14.25872133 9.40405273 16.99975586 C9.41091599 17.79064102 9.41777924 18.58152618 9.42485046 19.39637756 C9.44310555 22.00271718 9.43928286 24.6084541 9.43359375 27.21484375 C9.43815624 29.03178604 9.44346202 30.84872661 9.44947815 32.66566467 C9.45840676 36.4711102 9.45598906 40.27634583 9.44604492 44.08178711 C9.4345567 48.95208337 9.4547656 53.82165443 9.48396206 58.69185543 C9.50233177 62.44345176 9.50203005 66.19487456 9.49632454 69.94650459 C9.49617141 71.74180684 9.50220862 73.53712092 9.51461601 75.33238029 C9.52953873 77.84566255 9.5188404 80.3576084 9.50170898 82.87084961 C9.51137695 83.60818329 9.52104492 84.34551697 9.53100586 85.10519409 C9.45838922 90.20750751 8.29745679 93.12681114 5 97 C0.93941695 100.33822186 -2.93648286 100.43488093 -7.99975586 100.40405273 C-8.79064102 100.41091599 -9.58152618 100.41777924 -10.39637756 100.42485046 C-13.00271718 100.44310555 -15.6084541 100.43928286 -18.21484375 100.43359375 C-20.03178604 100.43815624 -21.84872661 100.44346202 -23.66566467 100.44947815 C-27.4711102 100.45840676 -31.27634583 100.45598906 -35.08178711 100.44604492 C-39.95208337 100.4345567 -44.82165443 100.4547656 -49.69185543 100.48396206 C-53.44345176 100.50233177 -57.19487456 100.50203005 -60.94650459 100.49632454 C-62.74180684 100.49617141 -64.53712092 100.50220862 -66.33238029 100.51461601 C-68.84566255 100.52953873 -71.3576084 100.5188404 -73.87084961 100.50170898 C-74.60818329 100.51137695 -75.34551697 100.52104492 -76.10519409 100.53100586 C-81.1972785 100.4585348 -84.07080671 99.1906717 -88 96 C-92.05630398 90.77740143 -91.77397544 85.34659858 -91 79 C-88.81657342 74.39054389 -86.51015286 72.25257817 -82 70 C-79.08293152 69.63923645 -79.08293152 69.63923645 -75.83276367 69.65942383 C-74.00143135 69.65976372 -74.00143135 69.65976372 -72.13310242 69.66011047 C-70.17036125 69.68333626 -70.17036125 69.68333626 -68.16796875 69.70703125 C-66.80748463 69.71263116 -65.44699443 69.7168994 -64.08650208 69.71989441 C-60.51729433 69.73131224 -56.94845671 69.76075235 -53.37939453 69.79400635 C-49.73279832 69.82477374 -46.08614191 69.83841394 -42.43945312 69.85351562 C-35.29281795 69.88562551 -28.14643323 69.93678429 -21 70 C-21.00888245 69.24911102 -21.01776489 68.49822205 -21.0269165 67.72457886 C-21.10720729 60.63332081 -21.16803761 53.54222135 -21.20724869 46.45063591 C-21.22808571 42.8051088 -21.25633084 39.15995864 -21.30175781 35.51464844 C-21.34535643 31.99385013 -21.36916631 28.47341339 -21.37950897 24.95236588 C-21.39045006 22.96152053 -21.42165399 20.97081978 -21.45318604 18.98019409 C-21.45597541 7.70896379 -21.45597541 7.70896379 -17 3 C-11.77740143 -1.05630398 -6.34659858 -0.77397544 0 0 Z " fill="#8065FF" transform="translate(503,412)"/>
<path d="M0 0 C0.79088516 -0.00686325 1.58177032 -0.0137265 2.3966217 -0.02079773 C5.00296132 -0.03905281 7.60869824 -0.03523013 10.21508789 -0.02954102 C12.03203018 -0.03410351 13.84897075 -0.03940929 15.66590881 -0.04542542 C19.47135434 -0.05435402 23.27658997 -0.05193633 27.08203125 -0.04199219 C31.95232751 -0.03050396 36.82189857 -0.05071287 41.69209957 -0.07990932 C45.4436959 -0.09827903 49.1951187 -0.09797732 52.94674873 -0.0922718 C54.74205098 -0.09211868 56.53736506 -0.09815589 58.33262444 -0.11056328 C60.8459067 -0.12548599 63.35785254 -0.11478767 65.87109375 -0.09765625 C66.60842743 -0.10732422 67.34576111 -0.11699219 68.10543823 -0.12695312 C73.19752264 -0.05448207 76.07105085 1.21338103 80.00024414 4.40405273 C84.05654812 9.62665131 83.77421958 15.05745416 83.00024414 21.40405273 C80.81681756 26.01350884 78.510397 28.15147456 74.00024414 30.40405273 C71.08317566 30.76481628 71.08317566 30.76481628 67.83300781 30.74462891 C66.6121196 30.74440231 65.39123138 30.74417572 64.13334656 30.74394226 C62.82485245 30.7284584 61.51635834 30.71297455 60.16821289 30.69702148 C58.80772877 30.69142157 57.44723857 30.68715334 56.08674622 30.68415833 C52.51753847 30.6727405 48.94870085 30.64330038 45.37963867 30.61004639 C41.73304246 30.57927899 38.08638605 30.5656388 34.43969727 30.55053711 C27.29306209 30.51842722 20.14667737 30.46726844 13.00024414 30.40405273 C13.00912659 31.15494171 13.01800903 31.90583069 13.02716064 32.67947388 C13.10745143 39.77073192 13.16828175 46.86183138 13.20749283 53.95341682 C13.22832985 57.59894393 13.25657498 61.2440941 13.30200195 64.8894043 C13.34560057 68.41020261 13.36941045 71.93063934 13.37975311 75.45168686 C13.3906942 77.44253221 13.42189813 79.43323295 13.45343018 81.42385864 C13.45621955 92.69508894 13.45621955 92.69508894 9.00024414 97.40405273 C3.77764557 101.46035672 -1.65315728 101.17802817 -7.99975586 100.40405273 C-12.59459722 98.22754893 -14.81737333 95.94309307 -16.99975586 91.40405273 C-17.28930976 88.66003174 -17.42049763 86.1453314 -17.40380859 83.40429688 C-17.41067184 82.61341171 -17.4175351 81.82252655 -17.42460632 81.00767517 C-17.44286141 78.40133555 -17.43903872 75.79559863 -17.43334961 73.18920898 C-17.4379121 71.37226669 -17.44321788 69.55532612 -17.44923401 67.73838806 C-17.45816262 63.93294254 -17.45574492 60.1277069 -17.44580078 56.32226562 C-17.43431256 51.45196936 -17.45452146 46.5823983 -17.48371792 41.7121973 C-17.50208763 37.96060097 -17.50178591 34.20917817 -17.4960804 30.45754814 C-17.49592727 28.66224589 -17.50196448 26.86693182 -17.51437187 25.07167244 C-17.52929458 22.55839018 -17.51859626 20.04644433 -17.50146484 17.53320312 C-17.5159668 16.42720261 -17.5159668 16.42720261 -17.53076172 15.29885864 C-17.45814508 10.19654523 -16.29721265 7.27724159 -12.99975586 3.40405273 C-8.93917281 0.06583088 -5.063273 -0.0308282 0 0 Z " fill="#9898FF" transform="translate(16.999755859375,-0.404052734375)"/>
</svg>
