<svg xmlns="http://www.w3.org/2000/svg" viewBox="0 0 500 500"><g id="freepik--background-complete--inject-61"><rect y="382.4" width="500" height="0.25" style="fill:#ebebeb"></rect><rect x="416.78" y="398.49" width="33.12" height="0.25" style="fill:#ebebeb"></rect><rect x="322.53" y="401.21" width="8.69" height="0.25" style="fill:#ebebeb"></rect><rect x="396.59" y="389.21" width="19.19" height="0.25" style="fill:#ebebeb"></rect><rect x="52.46" y="390.89" width="43.19" height="0.25" style="fill:#ebebeb"></rect><rect x="104.56" y="390.89" width="6.33" height="0.25" style="fill:#ebebeb"></rect><rect x="131.47" y="395.11" width="93.68" height="0.25" style="fill:#ebebeb"></rect><path d="M237,337.8H43.91a5.71,5.71,0,0,1-5.7-5.71V60.66A5.71,5.71,0,0,1,43.91,55H237a5.71,5.71,0,0,1,5.71,5.71V332.09A5.71,5.71,0,0,1,237,337.8ZM43.91,55.2a5.46,5.46,0,0,0-5.45,5.46V332.09a5.46,5.46,0,0,0,5.45,5.46H237a5.47,5.47,0,0,0,5.46-5.46V60.66A5.47,5.47,0,0,0,237,55.2Z" style="fill:#ebebeb"></path><path d="M453.31,337.8H260.21a5.72,5.72,0,0,1-5.71-5.71V60.66A5.72,5.72,0,0,1,260.21,55h193.1A5.71,5.71,0,0,1,459,60.66V332.09A5.71,5.71,0,0,1,453.31,337.8ZM260.21,55.2a5.47,5.47,0,0,0-5.46,5.46V332.09a5.47,5.47,0,0,0,5.46,5.46h193.1a5.47,5.47,0,0,0,5.46-5.46V60.66a5.47,5.47,0,0,0-5.46-5.46Z" style="fill:#ebebeb"></path><rect x="71.58" y="159.18" width="351.78" height="15" style="fill:#e6e6e6"></rect><rect x="420.37" y="157.6" width="3.44" height="18.17" style="fill:#e0e0e0"></rect><rect x="304.11" y="157.6" width="3.44" height="18.17" style="fill:#e0e0e0"></rect><rect x="187.85" y="157.6" width="3.44" height="18.17" style="fill:#e0e0e0"></rect><rect x="71.58" y="157.6" width="3.44" height="18.17" style="fill:#e0e0e0"></rect><rect x="353.46" y="157.6" width="23.62" height="18.17" style="fill:#e0e0e0"></rect><rect x="363.29" y="135.18" width="3.96" height="24.79" style="fill:#e0e0e0"></rect><circle cx="365.27" cy="133.7" r="10.12" transform="translate(12.45 297.44) rotate(-45)" style="fill:#e0e0e0"></circle><path d="M372.46,133.7a7.19,7.19,0,1,1-7.19-7.2A7.19,7.19,0,0,1,372.46,133.7Z" style="fill:#ebebeb"></path><rect x="71.58" y="189.18" width="351.78" height="15" style="fill:#e6e6e6"></rect><rect x="420.37" y="187.6" width="3.44" height="18.17" style="fill:#e0e0e0"></rect><rect x="304.11" y="187.6" width="3.44" height="18.17" style="fill:#e0e0e0"></rect><rect x="187.85" y="187.6" width="3.44" height="18.17" style="fill:#e0e0e0"></rect><rect x="71.58" y="187.6" width="3.44" height="18.17" style="fill:#e0e0e0"></rect><path d="M71.58,220.18v15H322.19A23.81,23.81,0,0,1,346,259V381.61h15V258.79a38.61,38.61,0,0,0-38.61-38.61Z" style="fill:#e6e6e6"></path><rect x="304.11" y="218.6" width="3.44" height="18.17" style="fill:#e0e0e0"></rect><rect x="187.85" y="218.6" width="3.44" height="18.17" style="fill:#e0e0e0"></rect><rect x="71.58" y="218.6" width="3.44" height="18.17" style="fill:#e0e0e0"></rect><rect x="351.78" y="371.26" width="3.44" height="18.17" transform="translate(733.84 26.84) rotate(90)" style="fill:#e0e0e0"></rect><rect x="351.78" y="265.99" width="3.44" height="18.17" transform="translate(628.58 -78.42) rotate(90)" style="fill:#e0e0e0"></rect></g><g id="freepik--Shadow--inject-61"><ellipse id="freepik--path--inject-61" cx="250" cy="416.24" rx="193.89" ry="11.32" style="fill:#f5f5f5"></ellipse></g><g id="freepik--Toolbox--inject-61"><path d="M272.49,394.56h11.74a3.69,3.69,0,0,1,3.69,3.69v3a0,0,0,0,1,0,0H268.8a0,0,0,0,1,0,0v-3A3.69,3.69,0,0,1,272.49,394.56Z" style="fill:none;stroke:#263238;stroke-miterlimit:10;stroke-width:2px"></path><path d="M258.23,398.62h42a2.35,2.35,0,0,1,2.35,2.35v17a0,0,0,0,1,0,0H255.88a0,0,0,0,1,0,0V401A2.35,2.35,0,0,1,258.23,398.62Z" style="fill:#263238"></path><path d="M258.23,398.62h23.06a2.35,2.35,0,0,1,2.35,2.35v17a0,0,0,0,1,0,0H255.88a0,0,0,0,1,0,0V401A2.35,2.35,0,0,1,258.23,398.62Z" style="fill:#fff;opacity:0.2"></path><rect x="255.88" y="404.33" width="46.74" height="1.01" style="opacity:0.2;isolation:isolate"></rect></g><g id="freepik--Pipeline--inject-61"><path d="M423.36,302.1c0,15.47-4.25,28-9.49,28H293.14c-5.25,0-9.5-12.55-9.5-28s4.25-28,9.5-28H413.87C419.11,274.08,423.36,286.62,423.36,302.1Z" style="fill:#407BFF"></path><path d="M423.36,302.1c0,15.47-4.25,28-9.49,28H293.14c-5.25,0-9.5-12.55-9.5-28s4.25-28,9.5-28H413.87C419.11,274.08,423.36,286.62,423.36,302.1Z" style="fill:#fff;opacity:0.4"></path><path d="M303.5,271.38h-10c-6.15,0-11.13,13.65-11.13,30.5s5,30.49,11.13,30.49h10c6.14,0,11.12-13.65,11.12-30.49S309.64,271.38,303.5,271.38Z" style="fill:#407BFF"></path><ellipse cx="293.5" cy="301.88" rx="11.12" ry="30.49" style="fill:#fff;opacity:0.4"></ellipse><path d="M303.5,271.38h-10c-6.15,0-11.13,13.65-11.13,30.5s5,30.49,11.13,30.49h10c6.14,0,11.12-13.65,11.12-30.49S309.64,271.38,303.5,271.38Z" style="fill:#fff;opacity:0.2"></path><path d="M291.5,271.38h-10c-6.15,0-11.13,13.65-11.13,30.5s5,30.49,11.13,30.49h10c6.14,0,11.12-13.65,11.12-30.49S297.64,271.38,291.5,271.38Z" style="fill:#407BFF"></path><ellipse cx="281.5" cy="301.88" rx="11.12" ry="30.49" style="fill:#fff;opacity:0.4"></ellipse><path d="M291.5,271.38h-10c-6.15,0-11.13,13.65-11.13,30.5s5,30.49,11.13,30.49h10c6.14,0,11.12-13.65,11.12-30.49S297.64,271.38,291.5,271.38Z" style="fill:#fff;opacity:0.2"></path><path d="M288.36,302.1c0,15.47-4.25,28-9.49,28H188.14c-5.25,0-9.5-12.55-9.5-28s4.25-28,9.5-28h90.73C284.11,274.08,288.36,286.62,288.36,302.1Z" style="fill:#407BFF"></path><path d="M288.36,302.1c0,15.47-4.25,28-9.49,28H188.14c-5.25,0-9.5-12.55-9.5-28s4.25-28,9.5-28h90.73C284.11,274.08,288.36,286.62,288.36,302.1Z" style="fill:#fff;opacity:0.4"></path><path d="M212.5,271.38h-10c-6.15,0-11.13,13.65-11.13,30.5s5,30.49,11.13,30.49h10c6.14,0,11.12-13.65,11.12-30.49S218.64,271.38,212.5,271.38Z" style="fill:#407BFF"></path><ellipse cx="202.5" cy="301.88" rx="11.12" ry="30.49" style="fill:#fff;opacity:0.4"></ellipse><path d="M212.5,271.38h-10c-6.15,0-11.13,13.65-11.13,30.5s5,30.49,11.13,30.49h10c6.14,0,11.12-13.65,11.12-30.49S218.64,271.38,212.5,271.38Z" style="fill:#fff;opacity:0.2"></path><path d="M200.87,274.08H149.52v56h51.35c5.24,0,9.49-12.55,9.49-28S206.11,274.08,200.87,274.08Z" style="fill:#407BFF"></path><path d="M200.87,274.08H149.52v56h51.35c5.24,0,9.49-12.55,9.49-28S206.11,274.08,200.87,274.08Z" style="fill:#fff;opacity:0.4"></path><rect x="137.77" y="116.45" width="56.04" height="301.19" style="fill:#407BFF"></rect><rect x="137.77" y="116.45" width="56.04" height="301.19" style="fill:#fff;opacity:0.4"></rect><rect x="135.64" y="344.32" width="60.3" height="10.68" rx="1.4" style="fill:#407BFF"></rect><rect x="135.64" y="253.32" width="60.3" height="10.68" rx="1.4" style="fill:#407BFF"></rect><polygon points="198.94 418 132.64 418 135.64 414.54 195.94 414.54 198.94 418" style="fill:#407BFF"></polygon><rect x="135.64" y="195.32" width="60.3" height="20.68" rx="1.4" style="fill:#407BFF"></rect><rect x="135.64" y="344.32" width="60.3" height="10.68" rx="1.4" style="fill:#fff;opacity:0.2"></rect><rect x="135.64" y="253.32" width="60.3" height="10.68" rx="1.4" style="fill:#fff;opacity:0.2"></rect><rect x="135.64" y="195.32" width="60.3" height="20.68" rx="1.4" style="fill:#fff;opacity:0.2"></rect><path d="M137.75,198.31h-2.41c-1.48,0-2.68,3.29-2.68,7.35s1.2,7.35,2.68,7.35h2.41c1.49,0,2.69-3.29,2.69-7.35S139.24,198.31,137.75,198.31Z" style="fill:#407BFF"></path><ellipse cx="135.34" cy="205.66" rx="2.68" ry="7.35" style="fill:#fff;opacity:0.4"></ellipse><path d="M137.75,198.31h-2.41c-1.48,0-2.68,3.29-2.68,7.35s1.2,7.35,2.68,7.35h2.41c1.49,0,2.69-3.29,2.69-7.35S139.24,198.31,137.75,198.31Z" style="fill:#fff;opacity:0.1"></path><path d="M134,203.35H122.46c-.76,0-1.38,1-1.38,2.31s.62,2.31,1.38,2.31H134c.76,0,1.37-1,1.37-2.31S134.73,203.35,134,203.35Z" style="fill:#407BFF"></path><path d="M123.83,205.66c0,1.27-.61,2.31-1.37,2.31s-1.38-1-1.38-2.31.62-2.31,1.38-2.31S123.83,204.39,123.83,205.66Z" style="fill:#fff;opacity:0.4"></path><path d="M134,203.35H122.46c-.76,0-1.38,1-1.38,2.31s.62,2.31,1.38,2.31H134c.76,0,1.37-1,1.37-2.31S134.73,203.35,134,203.35Z" style="fill:#fff;opacity:0.1"></path><path d="M120.17,199.37h4.18c2.57,0,4.65,2.82,4.65,6.29s-2.08,6.29-4.65,6.29h-4.18c-2.56,0-4.64-2.82-4.64-6.29S117.61,199.37,120.17,199.37Z" style="fill:#407BFF"></path><path d="M120.17,199.37h4.18c2.57,0,4.65,2.82,4.65,6.29s-2.08,6.29-4.65,6.29h-4.18c-2.56,0-4.64-2.82-4.64-6.29S117.61,199.37,120.17,199.37Z" style="fill:#fff;opacity:0.1"></path><path d="M119.7,205.66c0,3.47,2.08,6.29,4.65,6.29s4.65-2.82,4.65-6.29-2.08-6.29-4.65-6.29S119.7,202.19,119.7,205.66Z" style="opacity:0.2"></path><path d="M303.81,307.55h1.62c3.08,0,5.57-3.44,5.57-7.69s-2.49-7.69-5.57-7.69h-1.62c-3.08,0-5.57,3.45-5.57,7.69S300.73,307.55,303.81,307.55Z" style="fill:#407BFF"></path><path d="M299.86,299.86c0-4.24,2.5-7.69,5.57-7.69s5.57,3.45,5.57,7.69-2.49,7.69-5.57,7.69S299.86,304.11,299.86,299.86Z" style="fill:#fff;opacity:0.4"></path><path d="M303.81,307.55h1.62c3.08,0,5.57-3.44,5.57-7.69s-2.49-7.69-5.57-7.69h-1.62c-3.08,0-5.57,3.45-5.57,7.69S300.73,307.55,303.81,307.55Z" style="fill:#fff;opacity:0.2"></path><path d="M307.26,284.92c-5.85,0-10.6,6.87-10.6,15.34s4.75,15.35,10.6,15.35,10.6-6.87,10.6-15.35S313.12,284.92,307.26,284.92ZM303,299.86h-4.29a18.22,18.22,0,0,1,1.74-7.53l3.11,5.69A4.37,4.37,0,0,0,303,299.86Zm0,1a4.17,4.17,0,0,0,.54,1.65l-3.11,5.69a18.19,18.19,0,0,1-1.74-7.34Zm4.69,0h8.16a18.22,18.22,0,0,1-1.76,7.42l-6.58-6.56A4.68,4.68,0,0,0,307.68,300.86Zm0-1a4.8,4.8,0,0,0-.19-1l6.58-6.57a18.26,18.26,0,0,1,1.77,7.61Zm5.89-8.52L307,297.85a2.69,2.69,0,0,0-.77-.77L307.65,287C310,287.12,312.08,288.79,313.58,291.34ZM306.64,287l-1.34,9.84a1.86,1.86,0,0,0-1.07.4L301,291.28C302.43,288.85,304.43,287.23,306.64,287ZM301,309.25l3.25-5.93a1.85,1.85,0,0,0,1.06.4l1.32,9.84C304.42,313.29,302.42,311.67,301,309.25Zm6.65,4.33-1.36-10.13a2.69,2.69,0,0,0,.77-.77l6.54,6.51C312.07,311.75,310,313.43,307.63,313.58Z" style="fill:#407BFF"></path></g><g id="freepik--character-2--inject-61"><g id="freepik--group--inject-61"><path d="M327.85,294.67l-5.41-2.86a17.34,17.34,0,0,1-1.93-3.25c-.28-1-4-4.55-5.46-4.14s-5.07,7-3.71,7.91a32.68,32.68,0,0,0,6.26,2.6,12.37,12.37,0,0,0,2.3,0l5,4Z" style="fill:#263238"></path><path d="M357.8,292.23s-17.18,6.41-19.11,6.46S324,291.21,324,291.21L320,296.57s11.51,10.08,14.28,12.23,26.07-3.09,26.07-3.09A15.49,15.49,0,0,0,357.8,292.23Z" style="fill:#263238"></path><path d="M357.8,292.23s-17.18,6.41-19.11,6.46S324,291.21,324,291.21L320,296.57s11.51,10.08,14.28,12.23,26.07-3.09,26.07-3.09A15.49,15.49,0,0,0,357.8,292.23Z" style="fill:#fff;opacity:0.30000000000000004"></path><polygon points="342.58 412.35 335.82 413.77 328.61 401.91 335.36 400.48 342.58 412.35" style="fill:#e4897b"></polygon><path d="M334.46,410.91H342a.55.55,0,0,1,.53.43l1.23,5.54a.91.91,0,0,1-.71,1.09.65.65,0,0,1-.2,0c-2.45,0-4.23-.19-7.3-.19-1.89,0-7.6.2-10.21.2s-3-2.58-1.89-2.82c4.8-1,8.41-2.49,9.95-3.87A1.54,1.54,0,0,1,334.46,410.91Z" style="fill:#263238"></path><path d="M332.4,412a1.87,1.87,0,0,1-1.19-.32.85.85,0,0,1-.31-.79.42.42,0,0,1,.25-.41c.69-.36,2.7.88,2.92,1a.12.12,0,0,1,.08.14.18.18,0,0,1-.12.13A8.11,8.11,0,0,1,332.4,412Zm-.92-1.29a.26.26,0,0,0-.19,0s-.09.05-.1.17a.62.62,0,0,0,.2.53,3,3,0,0,0,2.22.11A5.88,5.88,0,0,0,331.48,410.72Z" style="fill:#407BFF"></path><path d="M334,411.79h-.07c-.64-.35-1.88-1.72-1.75-2.38a.47.47,0,0,1,.47-.39.8.8,0,0,1,.63.19c.72.59.87,2.38.88,2.46a.16.16,0,0,1-.08.14Zm-1.25-2.53h-.07c-.19,0-.2.11-.21.15-.08.4.71,1.44,1.35,1.92a3.51,3.51,0,0,0-.73-1.94A.53.53,0,0,0,332.74,409.26Z" style="fill:#407BFF"></path><polygon points="335.36 400.48 328.61 401.91 332.33 408.03 339.09 406.6 335.36 400.48" style="opacity:0.2;isolation:isolate"></polygon><path d="M364.9,372.15c-.36,0-4.47,0-4.85-.07a110.33,110.33,0,0,1-21.82-4.48c-6.37-1.91-10.77-3.7-10.77-3.7-1.45,8.44,12.24,40.82,12.24,40.82l-11.18.69s-31.28-46.13-17.95-60.51c9.95-10.73,36.95.92,36.95.92l7.05-14.89,29.89,1.71S390.92,373.54,364.9,372.15Z" style="fill:#263238"></path><polygon points="329.04 406.74 340.19 404.95 339.12 401.92 326.99 404.45 329.04 406.74" style="fill:#407BFF"></polygon><polygon points="418.31 399.69 418.9 405.89 404.59 407.75 404.01 401.55 418.31 399.69" style="fill:#e4897b"></polygon><path d="M418.26,406.82l-.71-7.53a.56.56,0,0,1,.38-.57l5.4-1.74a.92.92,0,0,1,1.15.6,1.42,1.42,0,0,1,0,.2c.19,2.44.21,4.23.49,7.29.18,1.88.91,7.55,1.16,10.15s-2.29,3.18-2.63,2.14c-1.49-4.68-3.27-8.14-4.79-9.54A1.54,1.54,0,0,1,418.26,406.82Z" style="fill:#263238"></path><path d="M419.54,408.76a1.84,1.84,0,0,1-.2,1.22.86.86,0,0,1-.76.38.42.42,0,0,1-.43-.21c-.42-.65.62-2.77.74-3a.14.14,0,0,1,.13-.09.14.14,0,0,1,.14.1A7.45,7.45,0,0,1,419.54,408.76Zm-1.2,1.05a.3.3,0,0,0,.06.18s.06.08.18.08a.61.61,0,0,0,.51-.25,3,3,0,0,0-.09-2.21A6,6,0,0,0,418.34,409.81Z" style="fill:#407BFF"></path><path d="M419.17,407.2v.07c-.29.67-1.54,2-2.2,2a.47.47,0,0,1-.43-.43.76.76,0,0,1,.13-.64c.51-.78,2.28-1.09,2.37-1.11a.16.16,0,0,1,.14.06A.11.11,0,0,1,419.17,407.2Zm-2.4,1.48v.07c0,.19.13.2.17.2.41,0,1.37-.84,1.79-1.53a3.52,3.52,0,0,0-1.87.92A.52.52,0,0,0,416.77,408.68Z" style="fill:#407BFF"></path><polygon points="404.02 401.55 404.6 407.75 411.98 406.79 411.39 400.58 404.02 401.55" style="opacity:0.2;isolation:isolate"></polygon><path d="M409.64,409.38s-40.35,11.8-50.4,4.68c-4.94-3.5-6.83-12.36-7.12-22.42a138.79,138.79,0,0,1,1.09-20.44c1.31-10.84,3.39-19.75,4.3-21.09,0,0,27-.75,26.26,6s-15.14,41.53-12,44.29,37.15-1.32,37.15-1.32Z" style="fill:#263238"></path><polygon points="407.52 398.28 408.35 410.72 411.47 409.93 410.06 397.62 407.52 398.28" style="fill:#407BFF"></polygon><polygon points="329.04 406.74 340.19 404.95 339.12 401.92 326.99 404.45 329.04 406.74" style="fill:#fff;opacity:0.5"></polygon><polygon points="407.52 398.28 408.35 410.72 411.47 409.93 410.06 397.62 407.52 398.28" style="fill:#fff;opacity:0.5"></polygon><path d="M341.39,277.41c.15.49-.07,1-.39,1s-.68-.28-.79-.77.07-1,.39-1S341.29,276.94,341.39,277.41Z" style="fill:#263238"></path><path d="M341.89,277.78a18,18,0,0,1-1.46,4.8,3,3,0,0,0,2.51-.07Z" style="fill:#892b29"></path><path d="M340.15,274.64h0a.3.3,0,0,0-.2.37.27.27,0,0,0,.13.13.34.34,0,0,0,.24.09,2.43,2.43,0,0,1,2.15.35.3.3,0,0,0,.42,0h0a.3.3,0,0,0,0-.42A3,3,0,0,0,340.15,274.64Z" style="fill:#263238"></path><path d="M343.44,284.75q.24.42.51.81a9,9,0,0,0,4.19,3.27,7.68,7.68,0,0,0,1.32.39,8.11,8.11,0,0,0,6.83-1.52,8.28,8.28,0,0,0,2.09-2.48c2.27-4,1.2-7.61-.11-13.86a8.74,8.74,0,0,0-13.93-5.28C339,270.17,340.61,279.56,343.44,284.75Z" style="fill:#b97964"></path><path d="M348.14,288.83a7.68,7.68,0,0,0,1.32.39,8.11,8.11,0,0,0,6.83-1.52,9.69,9.69,0,0,0-1.67-1.79A12.57,12.57,0,0,0,348.14,288.83Z" style="opacity:0.2;isolation:isolate"></path><path d="M362.7,293.47c-2.29,3.58-10,4.57-10,4.57s-5,0-4.4-1.73c2.61-1.19,3.59-2.82,3.69-4.6a8.32,8.32,0,0,0-.56-3.2c-.2-.57-.45-1.13-.7-1.68l7.35-9.29C358.09,282.36,358.85,291,362.7,293.47Z" style="fill:#b97964"></path><path d="M343.25,263.48c1.42-1.12,5.68-3.14,8.62-3.14,9.11,0,9.4,5.24,9.4,5.24a6.14,6.14,0,0,0-2.83-1.79c9.9,9.24.91,20.62.91,20.62-3.81-.67-8,1.66-8,1.66s-2.42-5.34-4.4-6.75A11,11,0,0,1,343,272c0-2.28-1.89-.72-1.89-.72C339.2,270.22,341.17,265.13,343.25,263.48Z" style="fill:#263238"></path><path d="M348.9,277.73a4.16,4.16,0,0,1-1.31,3.29c-1.11.87-2.41-.67-2.73-2.57-.27-1.69-.05-4.23,1.38-4.29S348.89,276,348.9,277.73Z" style="fill:#b97964"></path><path d="M343.82,269.09s-.29,14.5,2.79,19c0,0-3.88-2.71-3.84-18.33Z"></path><path d="M348.14,267.24s5.44,5.28,9.53,6.27,5.56-1.46,5.56-1.46l-.53-4.4s.11,3.39-1.54,3.73-5.44-.41-9.94-4.78Z" style="fill:#407BFF"></path><path d="M348.14,267.24s5.44,5.28,9.53,6.27,5.56-1.46,5.56-1.46l-.53-4.4s.11,3.39-1.54,3.73-5.44-.41-9.94-4.78Z" style="fill:#fff;opacity:0.4"></path><path d="M339,271.69s-.53-6.43,2-9.43,9.75-4.65,14.43-3.54,7.23,7.15,7.42,8.38c.43,2.86-10.26-2.18-16.32.09S339,271.69,339,271.69Z" style="fill:#407BFF"></path><path d="M339,271.69s-.53-6.43,2-9.43,9.75-4.65,14.43-3.54,7.23,7.15,7.42,8.38c.43,2.86-10.26-2.18-16.32.09S339,271.69,339,271.69Z" style="opacity:0.2;isolation:isolate"></path><path d="M341.78,261.47s.37-3.19,1.37-4,9.34-1.85,11.85-.84,6.32,5.51,7.05,10.84L358,268s-1.33-6-4.94-7.72C348.91,258.36,341.78,261.47,341.78,261.47Z" style="fill:#407BFF"></path><path d="M337.06,274.93s3.28.77,5.9-3.26,8.28-4.32,12.76-3.31a28.55,28.55,0,0,0,9.67.5l-2.57-1.76s-3.28.77-9-1-13.23,2.08-14.8,5.59Z" style="fill:#407BFF"></path><path d="M385.07,333.67l-34.81,5.61c-.58-8.14-1.57-15.93-2.69-22.91-.12-.82-.26-1.62-.39-2.41-.29-1.73-.71-3.71-1.19-5.75-1.19-5.1-2.72-10.61-3.41-13.67,0,0,12.89-4.67,23.15-2.07C377.86,295.54,385.07,333.67,385.07,333.67Z" style="fill:#407BFF"></path><path d="M375.26,364.71c-.23.78-7.57,24.79-23.14,26.93a138.79,138.79,0,0,1,1.09-20.44,73.47,73.47,0,0,0,10.61.94C367.66,372,374.26,367.28,375.26,364.71Z" style="opacity:0.2;isolation:isolate"></path><path d="M384.1,329.13l-34.19,5.95c-.13-1.61-.29-3.21-.47-4.79l15.27-3c-1-4.93-3-13.86-5.85-20.52a38.13,38.13,0,0,0-10.44-13.82q.9-.21,1.89-.39c10.63,8,16,26.33,17.86,34.05l9.66-1.92c-.85-4.51-3-14.52-6.1-21.82a36.94,36.94,0,0,0-7-10.61c.35.07.7.15,1,.24a7.94,7.94,0,0,1,2.56,1.2c7.85,9.71,11.79,24.67,13.06,30.29l1.4-.27C383.3,325.74,383.74,327.59,384.1,329.13Z" style="fill:#fff;opacity:0.7000000000000001"></path><path d="M347.57,316.37c-.12-.82-.26-1.62-.39-2.41-.29-1.73-.71-3.71-1.19-5.75a7.56,7.56,0,0,1,2.91-1.61S349.91,312.69,347.57,316.37Z" style="opacity:0.2;isolation:isolate"></path><path d="M313.87,312.37l-6.08-.67a17.19,17.19,0,0,1-3-2.32c-.63-.82-5.37-2.76-6.6-1.84s-2.15,8.37-.54,8.72a32.71,32.71,0,0,0,6.77.12,12.3,12.3,0,0,0,2.13-.87l6.14,1.84Z" style="fill:#263238"></path><path d="M344.76,295.44s-17.55,15.93-19.33,16.68-16.38-1.57-16.38-1.57L307.26,317s14.41,5.14,17.77,6.13,23.11-12.46,23.11-12.46S351.82,300,344.76,295.44Z" style="fill:#263238"></path><path d="M344.76,295.44s-17.55,15.93-19.33,16.68-16.38-1.57-16.38-1.57L307.26,317s14.41,5.14,17.77,6.13,23.11-12.46,23.11-12.46S351.82,300,344.76,295.44Z" style="fill:#fff;opacity:0.4"></path></g></g></svg>