<svg width="32" height="32" viewBox="0 0 32 32" fill="none" xmlns="http://www.w3.org/2000/svg">
<g clip-path="url(#clip0_394_545)">
<path d="M2.14125 13.1437C11.4075 13.1437 20.62 13.1437 29.8687 13.1437C29.8775 13.3162 29.8925 13.4687 29.8925 13.62C29.8937 17.6825 29.8988 21.7462 29.8913 25.8087C29.8875 28.0462 28.61 29.7387 26.5513 30.2362C26.1775 30.3262 25.7825 30.3675 25.3962 30.3675C19.1375 30.375 12.8788 30.3775 6.61875 30.3712C4.00875 30.3687 2.1275 28.5225 2.11375 25.915C2.0925 21.79 2.1075 17.665 2.10875 13.54C2.11125 13.4187 2.13 13.2975 2.14125 13.1437ZM10.7063 16.9962C9.735 16.9962 8.82375 16.9962 7.9025 16.9962C7.9025 17.9487 7.9025 18.8712 7.9025 19.7962C8.85375 19.7962 9.77375 19.7962 10.7063 19.7962C10.7063 18.85 10.7063 17.94 10.7063 16.9962ZM24.11 19.8112C24.11 18.8462 24.11 17.9337 24.11 17.0012C23.1663 17.0012 22.245 17.0012 21.3062 17.0012C21.3062 17.9575 21.3062 18.88 21.3062 19.8112C22.2537 19.8112 23.1663 19.8112 24.11 19.8112ZM14.625 16.9887C14.625 17.9637 14.625 18.885 14.625 19.7975C15.5725 19.7975 16.4812 19.7975 17.3787 19.7975C17.3787 18.8425 17.3787 17.9212 17.3787 16.9887C16.4437 16.9887 15.5475 16.9887 14.625 16.9887ZM10.705 22.7475C9.75375 22.7475 8.83125 22.7475 7.89625 22.7475C7.89625 23.6862 7.89625 24.595 7.89625 25.52C8.8425 25.52 9.76375 25.52 10.705 25.52C10.705 24.5812 10.705 23.6712 10.705 22.7475ZM21.3 25.5275C22.2625 25.5275 23.1725 25.5275 24.0987 25.5275C24.0987 24.5837 24.0987 23.6637 24.0987 22.74C23.1525 22.74 22.24 22.74 21.3 22.74C21.3 23.6712 21.3 24.58 21.3 25.5275ZM17.3937 22.755C16.4487 22.755 15.53 22.755 14.6187 22.755C14.6187 23.7012 14.6187 24.6087 14.6187 25.5212C15.56 25.5212 16.4687 25.5212 17.3937 25.5212C17.3937 24.5837 17.3937 23.6762 17.3937 22.755Z" fill="#164CA1"/>
<path d="M7.8775 4.52125C7.8775 3.53375 7.8775 2.61875 7.8775 1.67C8.83125 1.67 9.75625 1.67 10.7325 1.67C10.7325 2.5975 10.7325 3.5225 10.7325 4.48375C12.0175 4.48375 13.255 4.48375 14.5575 4.48375C14.5575 3.7175 14.58 2.94375 14.5487 2.1725C14.5312 1.745 14.6575 1.60125 15.0937 1.6275C15.745 1.665 16.4012 1.65125 17.055 1.63125C17.3675 1.62125 17.4587 1.735 17.4537 2.035C17.4387 2.8425 17.4487 3.65 17.4487 4.48875C18.7237 4.48875 19.9575 4.48875 21.2412 4.48875C21.2412 3.555 21.2412 2.63 21.2412 1.67125C22.215 1.67125 23.14 1.67125 24.1125 1.67125C24.1125 2.59875 24.1125 3.525 24.1125 4.52125C24.555 4.52125 24.9525 4.52125 25.35 4.52125C28.0225 4.52375 29.8662 6.35 29.895 9.02375C29.9087 10.285 29.9087 10.285 28.6375 10.285C19.995 10.285 11.3537 10.285 2.71125 10.285C2.11125 10.285 2.12375 10.2838 2.1075 9.67625C2.07375 8.45625 2.195 7.28125 2.975 6.27C3.835 5.15375 4.96875 4.56625 6.3775 4.525C6.8575 4.51 7.3375 4.52125 7.8775 4.52125Z" fill="#164CA1"/>
<path d="M10.7063 16.9962C10.7063 17.9412 10.7063 18.85 10.7063 19.7962C9.77375 19.7962 8.8525 19.7962 7.9025 19.7962C7.9025 18.8712 7.9025 17.9487 7.9025 16.9962C8.82375 16.9962 9.735 16.9962 10.7063 16.9962Z" fill="white"/>
<path d="M24.11 19.8113C23.1663 19.8113 22.2538 19.8113 21.3063 19.8113C21.3063 18.88 21.3063 17.9575 21.3063 17.0013C22.2438 17.0013 23.165 17.0013 24.11 17.0013C24.11 17.9338 24.11 18.8463 24.11 19.8113Z" fill="white"/>
<path d="M14.625 16.9887C15.5475 16.9887 16.4425 16.9887 17.3787 16.9887C17.3787 17.9212 17.3787 18.8425 17.3787 19.7975C16.4812 19.7975 15.5725 19.7975 14.625 19.7975C14.625 18.885 14.625 17.9637 14.625 16.9887Z" fill="white"/>
<path d="M10.705 22.7475C10.705 23.6712 10.705 24.5812 10.705 25.52C9.76375 25.52 8.8425 25.52 7.89625 25.52C7.89625 24.5937 7.89625 23.685 7.89625 22.7475C8.83125 22.7475 9.75375 22.7475 10.705 22.7475Z" fill="white"/>
<path d="M21.3 25.5275C21.3 24.58 21.3 23.6712 21.3 22.74C22.2412 22.74 23.1525 22.74 24.0987 22.74C24.0987 23.6637 24.0987 24.5837 24.0987 25.5275C23.1737 25.5275 22.2625 25.5275 21.3 25.5275Z" fill="white"/>
<path d="M17.3938 22.755C17.3938 23.6763 17.3938 24.5838 17.3938 25.5213C16.4688 25.5213 15.5613 25.5213 14.6188 25.5213C14.6188 24.6088 14.6188 23.7013 14.6188 22.755C15.53 22.755 16.45 22.755 17.3938 22.755Z" fill="white"/>
</g>
<defs>
<clipPath id="clip0_394_545">
<rect width="32" height="32" fill="white"/>
</clipPath>
</defs>
</svg>
