<?xml version="1.0" standalone="no"?>
<!DOCTYPE svg PUBLIC "-//W3C//DTD SVG 20010904//EN"
 "http://www.w3.org/TR/2001/REC-SVG-20010904/DTD/svg10.dtd">
<svg version="1.0" xmlns="http://www.w3.org/2000/svg"
 width="40.000000pt" height="40.000000pt" viewBox="0 0 40.000000 40.000000"
 preserveAspectRatio="xMidYMid meet">

<g transform="translate(0.000000,40.000000) scale(0.100000,-0.100000)"
fill="#000000" stroke="none">
<path d="M100 360 c0 -15 -7 -20 -25 -20 -24 0 -45 -25 -45 -54 0 -14 22 -16
171 -16 l170 0 -3 28 c-2 21 -10 29 -35 37 -22 6 -33 15 -33 27 0 10 -7 18
-15 18 -8 0 -15 -9 -15 -20 0 -15 -7 -20 -25 -20 -18 0 -25 5 -25 20 0 13 -7
20 -20 20 -13 0 -20 -7 -20 -20 0 -15 -7 -20 -25 -20 -18 0 -25 5 -25 20 0 11
-7 20 -15 20 -8 0 -15 -9 -15 -20z"/>
<path d="M30 142 c0 -123 -1 -122 172 -122 169 0 168 -1 168 123 l0 87 -170 0
-170 0 0 -88z m108 31 c-5 -26 -38 -29 -38 -4 0 15 6 21 21 21 14 0 19 -5 17
-17z m82 -3 c0 -13 -7 -20 -20 -20 -13 0 -20 7 -20 20 0 13 7 20 20 20 13 0
20 -7 20 -20z m80 0 c0 -13 -7 -20 -20 -20 -19 0 -27 20 -13 33 13 14 33 6 33
-13z m-162 -73 c2 -12 -3 -17 -17 -17 -15 0 -21 6 -21 21 0 25 33 22 38 -4z
m82 3 c0 -13 -7 -20 -20 -20 -13 0 -20 7 -20 20 0 13 7 20 20 20 13 0 20 -7
20 -20z m80 0 c0 -13 -7 -20 -20 -20 -19 0 -27 20 -13 33 13 14 33 6 33 -13z"/>
</g>
</svg>
