<svg width="40" height="40" viewBox="0 0 40 40" fill="none" xmlns="http://www.w3.org/2000/svg">
<g clip-path="url(#clip0_893_2849)">
<path d="M37.9687 31.6349C37.8484 31.8989 37.7609 32.1833 37.6016 32.4208C37.1828 33.0474 36.5687 33.363 35.8203 33.3724C34.5344 33.388 33.2469 33.3739 31.9609 33.3864C31.6578 33.3896 31.5703 33.2911 31.5734 32.9818C31.5906 31.2271 31.6031 29.4724 31.5797 27.7193C31.5406 24.8146 30.7375 22.1927 28.6328 20.0786C28.6094 20.0552 28.5969 20.0224 28.5703 19.9771C29.2625 19.3693 30.0719 18.9989 30.9734 18.9552C32.0203 18.9052 33.0891 18.8599 34.1172 19.0161C36.0875 19.3161 37.5406 20.8677 37.9016 22.8443C37.9109 22.8989 37.9453 22.9489 37.9672 23.0005C37.9687 25.8802 37.9687 28.7568 37.9687 31.6349Z" fill="#164CA1"/>
<path d="M19.5984 35.6244C17.4234 35.6244 15.2484 35.6307 13.0734 35.6213C11.9047 35.6166 10.9844 34.9572 10.6437 33.9072C10.5828 33.7213 10.5344 33.5213 10.5312 33.326C10.5016 31.7119 10.4594 30.0994 10.4672 28.4854C10.475 26.9744 10.5922 25.4619 11.1969 24.0557C12.3687 21.3322 14.4766 19.7229 17.3375 19.0807C18.7422 18.765 20.1687 18.8604 21.5969 18.9135C23.2656 18.976 24.7266 19.54 26.0172 20.5494C28.2594 22.2994 29.4625 24.5916 29.4719 27.465C29.4781 29.2885 29.4828 31.1135 29.4703 32.9369C29.4594 34.6604 28.6562 35.5041 26.9234 35.5541C24.4828 35.6244 22.0391 35.6494 19.5969 35.6932C19.6 35.6729 19.6 35.6494 19.5984 35.6244Z" fill="#164CA1"/>
<path d="M19.9984 4.30274C23.3781 4.30117 26.1047 7.03086 26.1047 10.4121C26.1047 13.7871 23.3672 16.5309 20 16.5309C16.6344 16.5309 13.8938 13.7855 13.8938 10.4121C13.8953 7.02773 16.6172 4.3043 19.9984 4.30274Z" fill="#164CA1"/>
<path d="M11.4172 19.9583C10.9844 20.5146 10.5437 21.0287 10.1609 21.5833C9.11406 23.1021 8.57969 24.8193 8.5 26.6412C8.40625 28.7646 8.42968 30.8927 8.42656 33.0193C8.42656 33.3365 8.31406 33.3896 8.04687 33.388C6.7375 33.3802 5.42812 33.3958 4.11875 33.3771C2.9 33.3583 2.03281 32.4599 2.03281 31.2505C2.03125 28.7021 2.02969 26.1537 2.03281 23.6052C2.03594 21.1615 3.95468 19.099 6.40312 18.9318C7.48593 18.8568 8.57343 18.824 9.64687 19.0677C10.3109 19.2162 10.8891 19.5287 11.4172 19.9583Z" fill="#164CA1"/>
<path d="M3.78751 12.6484C3.78907 10.5172 5.51876 8.79375 7.65001 8.79688C9.80157 8.8 11.5125 10.5281 11.5063 12.6891C11.4984 14.8094 9.74376 16.5484 7.62657 16.5313C5.50001 16.5141 3.78594 14.7813 3.78751 12.6484Z" fill="#164CA1"/>
<path d="M32.3359 8.797C34.4469 8.77982 36.1984 10.497 36.2109 12.5986C36.225 14.7626 34.5344 16.5033 32.3875 16.5314C30.2938 16.5595 28.5109 14.8236 28.4938 12.7376C28.4766 10.547 30.1656 8.81419 32.3359 8.797Z" fill="#164CA1"/>
</g>
<defs>
<clipPath id="clip0_893_2849">
<rect width="40" height="40" fill="white"/>
</clipPath>
</defs>
</svg>
