<?xml version="1.0" standalone="no"?>
<!DOCTYPE svg PUBLIC "-//W3C//DTD SVG 20010904//EN"
 "http://www.w3.org/TR/2001/REC-SVG-20010904/DTD/svg10.dtd">
<svg version="1.0" xmlns="http://www.w3.org/2000/svg"
 width="80.000000pt" height="80.000000pt" viewBox="0 0 80.000000 80.000000"
 preserveAspectRatio="xMidYMid meet">

<g transform="translate(0.000000,80.000000) scale(0.100000,-0.100000)"
fill="#000000" stroke="none">
<path d="M213 598 c-90 -90 -166 -173 -170 -186 -7 -29 20 -70 49 -74 22 -3
23 -7 28 -130 6 -161 8 -163 123 -163 l82 0 3 99 c1 55 8 106 14 113 14 17
102 17 116 0 6 -7 13 -58 14 -113 l3 -99 83 0 c117 0 122 6 122 171 l0 124 25
0 c30 0 60 41 52 72 -4 13 -80 96 -170 186 -119 117 -170 162 -187 162 -17 0
-68 -45 -187 -162z"/>
</g>
</svg>
