<svg width="256" height="256" viewBox="0 0 256 256" fill="none" xmlns="http://www.w3.org/2000/svg">
<g clip-path="url(#clip0_144_16)">
<path d="M127.93 102.4C141.84 102.31 153.55 113.92 153.59 127.84C153.63 141.98 142.07 153.57 127.93 153.58C114.01 153.59 102.43 141.97 102.42 127.99C102.4 114.02 113.89 102.5 127.93 102.4Z" fill="black"/>
<path d="M64.04 38.46C64.03 52.79 52.74 64.07 38.4 64.05C24.36 64.03 12.98 52.58 13 38.48C13.03 24.45 24.48 13.02 38.53 13C52.61 12.98 64.05 24.4 64.04 38.46Z" fill="black"/>
<path d="M217.25 64.04C203.16 64 191.91 52.6 191.96 38.42C192 24.32 203.38 13 217.5 13C231.52 13 243.03 24.52 243 38.52C242.97 52.77 231.55 64.08 217.25 64.04Z" fill="black"/>
<path d="M64.0399 217.49C63.9499 231.8 52.5699 243.07 38.2799 243C24.3299 242.92 12.9199 231.3 12.9999 217.26C13.0799 203.19 24.5199 191.91 38.6599 191.95C52.7999 192 64.1199 203.39 64.0399 217.49Z" fill="black"/>
<path d="M191.96 217.45C191.96 203.29 203.2 192.01 217.38 191.95C231.48 191.89 242.98 203.26 243.01 217.3C243.04 231.52 231.6 242.99 217.39 243C203.33 243.02 191.96 231.58 191.96 217.45Z" fill="black"/>
<path d="M128.42 191.95C142.36 192.15 153.73 203.68 153.59 217.49C153.45 231.85 141.79 243.22 127.43 242.99C113.63 242.77 102.26 231.08 102.41 217.25C102.57 203.06 114.19 191.75 128.42 191.95Z" fill="black"/>
<path d="M127.92 64.0401C113.87 64.0401 102.41 52.5901 102.41 38.5401C102.41 24.5501 113.9 13.0401 127.93 13.0001C141.96 12.9601 153.55 24.4301 153.59 38.4001C153.62 52.5901 142.17 64.0401 127.92 64.0401Z" fill="black"/>
<path d="M64.0399 128.1C63.9399 142.35 52.3299 153.8 38.2199 153.59C24.1799 153.37 12.8999 141.82 12.9999 127.75C13.0999 113.78 24.7599 102.28 38.7199 102.4C52.7899 102.53 64.1399 114.05 64.0399 128.1Z" fill="black"/>
<path d="M191.96 127.9C192 113.83 203.43 102.41 217.48 102.41C231.46 102.41 243.02 113.98 243 127.96C242.98 142.15 231.43 153.66 217.27 153.6C203.27 153.53 191.92 142 191.96 127.9Z" fill="black"/>
</g>
<defs>
<clipPath id="clip0_144_16">
<rect width="256" height="256" fill="white"/>
</clipPath>
</defs>
</svg>
