<svg width="40" height="40" viewBox="0 0 40 40" fill="none" xmlns="http://www.w3.org/2000/svg">
<g clip-path="url(#clip0_893_2830)">
<path d="M30.9641 37.8745C23.6547 37.8745 16.3453 37.8745 9.03593 37.8745C8.99531 37.8542 8.95624 37.8261 8.91406 37.8151C7.29531 37.4058 6.38437 36.2495 6.38437 34.5964C6.38437 24.8589 6.38437 15.1214 6.38437 5.3839C6.38437 3.47921 7.73124 2.12765 9.62812 2.12765C14.0031 2.12609 18.3781 2.12765 22.7531 2.12765C22.8766 2.12765 22.9984 2.12765 23.1422 2.12765C23.1422 2.30109 23.1422 2.42765 23.1422 2.55421C23.1422 4.78859 23.1375 7.0214 23.1469 9.25577C23.1484 9.57765 23.1766 9.9089 23.2547 10.2214C23.6172 11.6636 24.8469 12.5948 26.3859 12.5995C28.6672 12.6058 30.9469 12.6011 33.2281 12.6011C33.3516 12.6011 33.4734 12.6011 33.6047 12.6011C33.6109 12.7058 33.6172 12.762 33.6172 12.8183C33.6172 20.1589 33.6203 27.5011 33.6141 34.8417C33.6125 36.1386 32.6812 37.3448 31.425 37.7339C31.2719 37.7792 31.1172 37.8261 30.9641 37.8745ZM19.9969 16.8558C19.2641 16.8558 18.5312 16.8558 17.7984 16.8558C16.4609 16.8558 15.1234 16.8495 13.7859 16.8589C12.9516 16.8651 12.4344 17.6308 12.7781 18.3417C12.9953 18.7901 13.3797 18.9542 13.8609 18.9542C17.9547 18.9526 22.0484 18.9526 26.1437 18.9526C26.2141 18.9526 26.2844 18.9558 26.3531 18.948C27.1281 18.8605 27.5656 18.062 27.1922 17.4042C26.9625 16.998 26.5906 16.8542 26.1391 16.8542C24.0906 16.8573 22.0437 16.8558 19.9969 16.8558ZM20 21.0448C19.3719 21.0448 18.7437 21.0448 18.1156 21.0448C16.6734 21.0448 15.2312 21.0386 13.7891 21.048C12.9703 21.0526 12.4453 21.7948 12.7609 22.4995C12.9766 22.9792 13.3844 23.1464 13.8953 23.1464C17.9656 23.1417 22.0375 23.1433 26.1078 23.1433C26.1891 23.1433 26.2719 23.1464 26.3516 23.1386C27.1125 23.0558 27.5484 22.2901 27.2078 21.6292C26.9859 21.198 26.6078 21.0448 26.1422 21.0464C24.0937 21.0464 22.0469 21.0448 20 21.0448ZM20.0375 25.2339C19.4562 25.2339 18.875 25.2339 18.2922 25.2339C16.7922 25.2339 15.2906 25.2276 13.7906 25.237C12.9703 25.2417 12.4453 25.9808 12.7594 26.6855C12.9734 27.1667 13.3812 27.3339 13.8922 27.3339C17.9625 27.3292 22.0344 27.3308 26.1047 27.3308C26.1859 27.3308 26.2687 27.3339 26.3484 27.3261C27.1094 27.2448 27.5469 26.4792 27.2078 25.8183C26.9859 25.387 26.6094 25.2323 26.1437 25.2323C24.1078 25.2355 22.0719 25.2339 20.0375 25.2339ZM17.8812 31.5214C19.2422 31.5214 20.6031 31.537 21.9625 31.5089C22.2422 31.5026 22.5562 31.3839 22.7891 31.223C23.1344 30.9839 23.2156 30.5198 23.0734 30.1214C22.9234 29.7026 22.5359 29.4292 22.0469 29.4261C21.0469 29.4183 20.0469 29.423 19.0469 29.423C17.3141 29.423 15.5812 29.4245 13.8484 29.4214C13.3484 29.4198 12.9594 29.6105 12.7562 30.0761C12.45 30.7823 12.9781 31.512 13.8 31.5167C15.1594 31.5276 16.5203 31.5214 17.8812 31.5214Z" fill="#164CA1"/>
<path d="M19.9969 16.8556C22.0437 16.8556 24.0906 16.8571 26.1375 16.854C26.5906 16.8524 26.9609 16.9977 27.1906 17.404C27.5641 18.0634 27.1281 18.8618 26.3516 18.9477C26.2828 18.9556 26.2125 18.9524 26.1422 18.9524C22.0484 18.9524 17.9547 18.9509 13.8594 18.954C13.3781 18.954 12.9922 18.7899 12.7766 18.3415C12.4328 17.6306 12.95 16.8649 13.7844 16.8587C15.1219 16.8493 16.4594 16.8556 17.7969 16.8556C18.5312 16.8556 19.2641 16.8556 19.9969 16.8556Z" fill="white"/>
<path d="M20 21.0442C22.0469 21.0442 24.0938 21.0458 26.1406 21.0427C26.6063 21.0427 26.9844 21.1958 27.2063 21.6255C27.5469 22.2864 27.1109 23.052 26.35 23.1349C26.2688 23.1442 26.1875 23.1395 26.1063 23.1395C22.0359 23.1395 17.9641 23.138 13.8938 23.1427C13.3828 23.1427 12.975 22.977 12.7594 22.4958C12.4438 21.7927 12.9688 21.0505 13.7875 21.0442C15.2297 21.0349 16.6719 21.0411 18.1141 21.0411C18.7438 21.0442 19.3719 21.0442 20 21.0442Z" fill="white"/>
<path d="M20.0375 25.2345C22.0734 25.2345 24.1078 25.236 26.1437 25.2329C26.6094 25.2329 26.9875 25.386 27.2078 25.8188C27.5469 26.4813 27.1094 27.2454 26.3484 27.3266C26.2672 27.336 26.1859 27.3313 26.1047 27.3313C22.0344 27.3313 17.9625 27.3298 13.8922 27.3345C13.3812 27.3345 12.9734 27.1673 12.7594 26.686C12.4453 25.9813 12.9719 25.2423 13.7906 25.2376C15.2906 25.2282 16.7922 25.2345 18.2922 25.2345C18.8734 25.2345 19.4547 25.2345 20.0375 25.2345Z" fill="white"/>
<path d="M17.8812 31.5207C16.5203 31.5207 15.1609 31.527 13.8 31.5191C12.9781 31.5145 12.45 30.7832 12.7562 30.0785C12.9594 29.6113 13.3469 29.4223 13.8484 29.4238C15.5812 29.427 17.3141 29.4254 19.0469 29.4254C20.0469 29.4254 21.0469 29.4207 22.0469 29.4285C22.5359 29.4317 22.9234 29.7051 23.0734 30.1238C23.2156 30.5207 23.1344 30.9863 22.7891 31.2254C22.5562 31.3863 22.2437 31.5051 21.9625 31.5113C20.6016 31.5363 19.2406 31.5207 17.8812 31.5207Z" fill="white"/>
<path d="M25.2391 2.79102C27.8234 5.37383 30.3688 7.91758 32.9313 10.4801C32.8484 10.4879 32.7625 10.502 32.6781 10.502C30.5734 10.5035 28.4703 10.5035 26.3656 10.502C25.6641 10.502 25.2406 10.077 25.2391 9.37383C25.2375 7.2707 25.2391 5.16602 25.2391 3.06289C25.2391 2.9832 25.2391 2.90508 25.2391 2.79102Z" fill="#164CA1"/>
</g>
<defs>
<clipPath id="clip0_893_2830">
<rect width="40" height="40" fill="white"/>
</clipPath>
</defs>
</svg>
