<svg width="40" height="40" viewBox="0 0 40 40" fill="none" xmlns="http://www.w3.org/2000/svg">
<g clip-path="url(#clip0_1555_4079)">
<path d="M11.2736 31.3515C10.6314 31.3499 10.0298 31.5109 9.4611 31.8093C7.98922 32.5812 6.67985 32.2921 5.67672 30.9843C4.68141 29.689 3.88141 28.2827 3.26891 26.7687C2.72047 25.4155 3.1361 24.0421 4.39391 23.2968C6.94391 21.7843 6.9361 18.1984 4.38141 16.6952C3.13766 15.964 2.72516 14.589 3.2611 13.253C3.89704 11.6687 4.74547 10.2062 5.79704 8.86085C6.69079 7.71867 8.06891 7.45617 9.41266 8.16085C11.0189 9.00304 12.8095 8.73585 14.0127 7.46554C14.683 6.75773 15.0173 5.90148 15.0486 4.93429C15.0986 3.41085 15.9361 2.38898 17.4392 2.14367C19.1736 1.86242 20.9205 1.85929 22.6548 2.15617C24.0564 2.39679 24.9189 3.44367 24.9548 4.87335C25.0095 7.07804 26.7142 8.7296 28.9095 8.62804C29.4595 8.60304 30.0345 8.42023 30.5345 8.17804C32.0455 7.4421 33.3236 7.70617 34.3486 9.04523C35.3033 10.2937 36.0798 11.6452 36.6783 13.0984C37.3033 14.6155 36.9033 15.8905 35.5236 16.7687C33.5095 18.0499 33.0783 20.6437 34.6033 22.439C34.8798 22.7655 35.2392 23.0374 35.6017 23.2734C36.8611 24.0952 37.2923 25.4265 36.7189 26.8171C36.1111 28.2921 35.3002 29.6468 34.372 30.9452C33.472 32.203 31.9283 32.5843 30.5236 31.8171C28.5595 30.7452 26.1689 31.578 25.3048 33.5968C25.1095 34.053 24.9986 34.5734 24.9705 35.0702C24.8861 36.6109 24.058 37.6296 22.5314 37.8671C20.7955 38.1374 19.0502 38.1421 17.3158 37.8405C15.9736 37.6077 15.0783 36.5249 15.0548 35.1624C15.0127 33.0124 13.3673 31.3546 11.2736 31.3515ZM19.9908 25.3562C22.9345 25.3718 25.3267 22.9921 25.3423 20.0312C25.358 17.0655 23.0095 14.6843 20.0455 14.6562C17.072 14.6296 14.6689 16.9999 14.6533 19.9734C14.6408 22.9437 17.0173 25.339 19.9908 25.3562Z" fill="#0D47A1"/>
</g>
<defs>
<clipPath id="clip0_1555_4079">
<rect width="40" height="40" fill="white"/>
</clipPath>
</defs>
</svg>
