<svg version="1.1" id="Layer_1" xmlns="http://www.w3.org/2000/svg" xmlns:xlink="http://www.w3.org/1999/xlink" x="0px" y="0px"
	 width="100%" viewBox="0 0 1024 1024" enable-background="new 0 0 1024 1024" xml:space="preserve">
<path fill="#000000" opacity="1.000000" stroke="none" 
	d="
M569.000000,1025.000000 
	C379.333344,1025.000000 190.166672,1025.000000 1.000000,1025.000000 
	C1.000000,683.666687 1.000000,342.333344 1.000000,1.000000 
	C342.333344,1.000000 683.666687,1.000000 1025.000000,1.000000 
	C1025.000000,342.333344 1025.000000,683.666687 1025.000000,1025.000000 
	C873.166687,1025.000000 721.333313,1025.000000 569.000000,1025.000000 
M248.955643,894.513733 
	C264.573212,903.990479 279.786804,914.229065 295.899139,922.772705 
	C322.851318,937.064331 351.212555,948.045593 380.625610,956.435242 
	C412.269592,965.461243 444.506927,970.970520 477.242310,972.741333 
	C496.613770,973.789185 516.174988,973.129272 535.550171,971.785767 
	C553.734619,970.524719 571.914978,968.074341 589.870178,964.873901 
	C627.145264,958.229553 662.681580,945.900085 696.805420,929.573364 
	C720.185913,918.386902 742.787598,905.691711 763.353333,889.901367 
	C781.258850,876.153625 798.475037,861.477539 815.567505,846.715759 
	C822.695740,840.559509 828.892334,833.277588 835.194580,826.223511 
	C843.776062,816.618530 852.606812,807.159729 860.353333,796.900208 
	C880.543396,770.160767 898.186646,741.845947 912.021851,711.198303 
	C926.568176,678.975464 937.355225,645.683899 944.321045,610.972595 
	C948.977539,587.768433 951.453735,564.394653 952.790344,540.899902 
	C953.570679,527.182922 952.731873,513.328491 951.912415,499.578156 
	C951.049500,485.099701 949.935059,470.584747 947.837463,456.245667 
	C945.701294,441.642700 942.941833,427.046844 939.162720,412.790466 
	C934.872253,396.605499 929.542419,380.659882 923.913818,364.877930 
	C919.909241,353.649719 914.662781,342.864441 909.568726,330.940948 
	C896.610596,348.913635 881.635376,362.524261 863.043701,372.031433 
	C844.303711,381.614471 824.330627,385.523529 802.638916,385.090393 
	C831.600708,452.953186 840.596436,522.233398 824.099365,594.031128 
	C807.686035,665.464172 771.673340,725.503174 716.659851,773.501038 
	C661.273071,821.824341 595.514221,847.260498 522.613098,851.566895 
	C430.035217,857.035583 348.393829,827.677612 280.045288,765.089966 
	C210.139435,701.076111 174.790451,620.004639 173.442566,525.667603 
	C172.151108,435.280640 205.855148,357.595490 267.604156,291.897156 
	C377.184784,189.511093 501.826813,167.934647 640.908020,222.858780 
	C639.962463,177.946777 658.182007,143.033020 694.989441,116.484932 
	C691.354553,114.857826 688.577698,113.653740 685.833008,112.380226 
	C653.893860,97.560356 620.737610,86.417549 585.910156,81.016014 
	C564.290894,77.662987 542.520142,74.931625 520.714722,73.263245 
	C507.039764,72.216934 493.140869,73.170906 479.403107,74.112267 
	C462.970917,75.238251 446.415955,76.279716 430.254547,79.225243 
	C409.284546,83.047180 388.392212,87.824318 367.929321,93.780563 
	C333.930969,103.676643 301.952759,118.519035 271.585144,136.768921 
	C243.632889,153.567245 217.450729,172.834152 194.179962,195.636551 
	C178.578857,210.923645 163.995972,227.324478 149.778183,243.929657 
	C132.270065,264.377716 117.805740,287.056274 105.158287,310.784088 
	C91.107674,337.144318 79.769371,364.670227 71.252548,393.362305 
	C61.088535,427.603546 55.024979,462.579224 53.220970,498.166473 
	C52.322834,515.883789 53.539566,533.717468 54.014088,551.492737 
	C54.565315,572.141296 57.954960,592.433289 61.932171,612.661133 
	C68.949379,648.350220 80.468513,682.541565 95.826630,715.453857 
	C107.353096,740.155029 120.756371,763.845703 137.254501,785.551880 
	C149.216660,801.290283 161.740845,816.692871 175.096954,831.252197 
	C186.287033,843.450317 198.632706,854.691589 211.225891,865.469421 
	C223.083939,875.618103 235.934128,884.607483 248.955643,894.513733 
M477.371887,375.960327 
	C481.929291,375.306580 486.472504,374.246185 491.047150,374.086456 
	C499.701752,373.784271 508.381653,373.784180 517.037109,374.073944 
	C522.969910,374.272491 527.512146,372.040100 531.561279,367.970001 
	C548.014893,351.431274 564.500793,334.924286 581.046509,318.477753 
	C593.833984,305.766937 606.728210,293.163574 619.832458,280.258942 
	C615.214722,278.171997 610.579285,276.069336 605.937622,273.980621 
	C577.826599,261.330902 548.163208,254.815765 517.565186,253.179504 
	C495.078491,251.976990 472.664093,253.505905 450.382568,257.821228 
	C415.256073,264.624207 382.864838,277.904205 353.199432,297.586243 
	C329.231323,313.488373 308.409393,332.999634 290.660065,355.766754 
	C271.554382,380.273651 256.712708,407.069000 246.827194,436.507538 
	C236.415970,467.511658 231.500046,499.281342 232.770752,532.152222 
	C233.450470,549.735596 235.269714,567.079102 239.245987,584.084717 
	C250.239563,631.101807 272.424591,672.345459 305.296387,707.718811 
	C319.636536,723.150146 335.871582,736.466309 353.421875,748.094177 
	C375.797302,762.918823 399.863007,774.198120 425.567078,782.063110 
	C444.537689,787.867737 463.937622,791.845764 483.633270,792.743103 
	C506.100769,793.766785 528.628784,793.590515 550.980530,789.173950 
	C572.054260,785.009888 592.552734,779.246582 612.067505,770.365784 
	C634.046448,760.363647 655.013367,748.507263 673.142761,732.342285 
	C684.846191,721.907104 697.039001,711.731506 707.105835,699.827209 
	C718.412476,686.456787 728.199219,671.662964 737.507568,656.775757 
	C749.084167,638.261169 757.141663,617.995117 762.944763,596.940796 
	C767.716248,579.629456 770.938660,562.078979 772.244507,544.047485 
	C773.677734,524.255859 773.364746,504.575867 770.708984,485.046326 
	C767.483948,461.329803 760.542725,438.502594 750.742249,416.618134 
	C749.336975,413.480194 747.353333,410.601196 745.361511,407.120270 
	C714.385254,438.104248 684.296326,468.098022 654.428101,498.310028 
	C652.459229,500.301514 651.354065,503.929962 651.252625,506.845856 
	C650.863098,518.051636 651.542053,529.305847 650.899719,540.488953 
	C649.934265,557.298584 644.575439,573.113770 637.286926,588.113281 
	C628.716614,605.750793 616.992126,621.137695 602.304810,634.332581 
	C589.758667,645.603821 575.832092,654.493896 560.353821,661.010620 
	C539.881836,669.629944 518.576965,673.638367 496.343231,671.975403 
	C488.780701,671.409851 481.076508,671.287659 473.719086,669.675537 
	C437.672089,661.777649 407.758423,643.862915 384.908173,614.489929 
	C364.337158,588.046814 354.293182,557.877625 353.205475,524.742432 
	C352.884064,514.952026 354.437225,504.983093 356.116119,495.266083 
	C361.104797,466.392242 374.391693,441.565796 394.305023,420.233398 
	C404.173126,409.662079 415.520599,400.814240 428.027802,393.638519 
	C443.118927,384.980408 459.227020,378.816376 477.371887,375.960327 
M924.499268,233.999252 
	C938.603027,219.225204 952.603333,204.350357 966.855652,189.721085 
	C973.633484,182.763992 975.337036,173.804398 972.443726,165.912430 
	C967.337708,151.985031 959.905579,142.741318 943.199951,143.089279 
	C936.962769,143.219193 930.729736,144.210968 924.523621,145.028488 
	C913.596558,146.467850 902.693726,148.090134 891.776611,149.606415 
	C886.005005,150.408051 880.224792,151.147827 873.886475,151.990219 
	C874.992432,144.110535 875.992371,136.983856 876.993225,129.857300 
	C878.548584,118.782974 880.485901,107.744469 881.528687,96.622093 
	C882.244324,88.989220 882.635681,81.103065 881.514893,73.576904 
	C880.089844,64.007576 872.112976,59.088387 864.191223,55.199787 
	C856.122131,51.238873 847.434814,51.109776 839.726257,56.035000 
	C833.793457,59.825611 828.213257,64.417999 823.232544,69.408623 
	C786.645813,106.067535 750.267517,142.934280 713.775452,179.687897 
	C707.859192,185.646561 704.387695,192.778061 703.014648,200.935333 
	C701.132202,212.119171 699.409546,223.330841 697.717651,234.545547 
	C695.755554,247.551163 693.654663,260.543152 692.072327,273.596588 
	C690.627930,285.511627 687.192200,295.791260 678.090454,304.732544 
	C636.481445,345.608093 595.441772,387.063293 554.197571,428.310211 
	C551.133972,431.373993 548.100464,434.468567 544.997681,437.492096 
	C542.387634,440.035522 539.246948,440.949036 535.894287,439.367310 
	C520.590698,432.147308 504.615051,431.531677 488.193329,433.931122 
	C465.505066,437.246124 447.233917,448.497101 432.938385,465.813721 
	C415.333099,487.139435 409.559143,512.099243 414.118134,539.213501 
	C417.797516,561.096436 428.798615,579.263611 445.890106,593.116943 
	C466.520782,609.838928 490.381958,615.933899 516.868225,612.104736 
	C539.963745,608.765747 558.946350,597.860596 573.148254,579.974487 
	C593.699402,554.092163 598.394470,524.604248 587.710205,493.297363 
	C585.232239,486.036346 586.738770,481.573090 591.718384,476.689331 
	C618.939087,449.992828 646.057129,423.191071 673.127869,396.342194 
	C691.586853,378.034424 709.800232,359.476990 728.416870,341.332275 
	C731.132446,338.685516 735.332336,337.183807 739.117126,336.109406 
	C743.668152,334.817505 748.503723,334.504486 753.227112,333.846863 
	C772.120422,331.216522 790.998840,328.466919 809.919800,326.051056 
	C826.432068,323.942749 841.092224,317.844788 853.107483,306.271545 
	C861.237732,298.440491 868.699585,289.920624 876.648254,281.894958 
	C892.363037,266.028168 908.208069,250.290359 924.499268,233.999252 
z"/>
<path fill="#164CA1" opacity="1.000000" stroke="none" 
	d="
M248.651733,894.310303 
	C235.934128,884.607483 223.083939,875.618103 211.225891,865.469421 
	C198.632706,854.691589 186.287033,843.450317 175.096954,831.252197 
	C161.740845,816.692871 149.216660,801.290283 137.254501,785.551880 
	C120.756371,763.845703 107.353096,740.155029 95.826630,715.453857 
	C80.468513,682.541565 68.949379,648.350220 61.932171,612.661133 
	C57.954960,592.433289 54.565315,572.141296 54.014088,551.492737 
	C53.539566,533.717468 52.322834,515.883789 53.220970,498.166473 
	C55.024979,462.579224 61.088535,427.603546 71.252548,393.362305 
	C79.769371,364.670227 91.107674,337.144318 105.158287,310.784088 
	C117.805740,287.056274 132.270065,264.377716 149.778183,243.929657 
	C163.995972,227.324478 178.578857,210.923645 194.179962,195.636551 
	C217.450729,172.834152 243.632889,153.567245 271.585144,136.768921 
	C301.952759,118.519035 333.930969,103.676643 367.929321,93.780563 
	C388.392212,87.824318 409.284546,83.047180 430.254547,79.225243 
	C446.415955,76.279716 462.970917,75.238251 479.403107,74.112267 
	C493.140869,73.170906 507.039764,72.216934 520.714722,73.263245 
	C542.520142,74.931625 564.290894,77.662987 585.910156,81.016014 
	C620.737610,86.417549 653.893860,97.560356 685.833008,112.380226 
	C688.577698,113.653740 691.354553,114.857826 694.989441,116.484932 
	C658.182007,143.033020 639.962463,177.946777 640.908020,222.858780 
	C501.826813,167.934647 377.184784,189.511093 267.604156,291.897156 
	C205.855148,357.595490 172.151108,435.280640 173.442566,525.667603 
	C174.790451,620.004639 210.139435,701.076111 280.045288,765.089966 
	C348.393829,827.677612 430.035217,857.035583 522.613098,851.566895 
	C595.514221,847.260498 661.273071,821.824341 716.659851,773.501038 
	C771.673340,725.503174 807.686035,665.464172 824.099365,594.031128 
	C840.596436,522.233398 831.600708,452.953186 802.638916,385.090393 
	C824.330627,385.523529 844.303711,381.614471 863.043701,372.031433 
	C881.635376,362.524261 896.610596,348.913635 909.568726,330.940948 
	C914.662781,342.864441 919.909241,353.649719 923.913818,364.877930 
	C929.542419,380.659882 934.872253,396.605499 939.162720,412.790466 
	C942.941833,427.046844 945.701294,441.642700 947.837463,456.245667 
	C949.935059,470.584747 951.049500,485.099701 951.912415,499.578156 
	C952.731873,513.328491 953.570679,527.182922 952.790344,540.899902 
	C951.453735,564.394653 948.977539,587.768433 944.321045,610.972595 
	C937.355225,645.683899 926.568176,678.975464 912.021851,711.198303 
	C898.186646,741.845947 880.543396,770.160767 860.353333,796.900208 
	C852.606812,807.159729 843.776062,816.618530 835.194580,826.223511 
	C828.892334,833.277588 822.695740,840.559509 815.567505,846.715759 
	C798.475037,861.477539 781.258850,876.153625 763.353333,889.901367 
	C742.787598,905.691711 720.185913,918.386902 696.805420,929.573364 
	C662.681580,945.900085 627.145264,958.229553 589.870178,964.873901 
	C571.914978,968.074341 553.734619,970.524719 535.550171,971.785767 
	C516.174988,973.129272 496.613770,973.789185 477.242310,972.741333 
	C444.506927,970.970520 412.269592,965.461243 380.625610,956.435242 
	C351.212555,948.045593 322.851318,937.064331 295.899139,922.772705 
	C279.786804,914.229065 264.573212,903.990479 248.651733,894.310303 
z"/>
<path fill="#164CA1" opacity="1.000000" stroke="none" 
	d="
M476.933777,375.975616 
	C459.227020,378.816376 443.118927,384.980408 428.027802,393.638519 
	C415.520599,400.814240 404.173126,409.662079 394.305023,420.233398 
	C374.391693,441.565796 361.104797,466.392242 356.116119,495.266083 
	C354.437225,504.983093 352.884064,514.952026 353.205475,524.742432 
	C354.293182,557.877625 364.337158,588.046814 384.908173,614.489929 
	C407.758423,643.862915 437.672089,661.777649 473.719086,669.675537 
	C481.076508,671.287659 488.780701,671.409851 496.343231,671.975403 
	C518.576965,673.638367 539.881836,669.629944 560.353821,661.010620 
	C575.832092,654.493896 589.758667,645.603821 602.304810,634.332581 
	C616.992126,621.137695 628.716614,605.750793 637.286926,588.113281 
	C644.575439,573.113770 649.934265,557.298584 650.899719,540.488953 
	C651.542053,529.305847 650.863098,518.051636 651.252625,506.845856 
	C651.354065,503.929962 652.459229,500.301514 654.428101,498.310028 
	C684.296326,468.098022 714.385254,438.104248 745.361511,407.120270 
	C747.353333,410.601196 749.336975,413.480194 750.742249,416.618134 
	C760.542725,438.502594 767.483948,461.329803 770.708984,485.046326 
	C773.364746,504.575867 773.677734,524.255859 772.244507,544.047485 
	C770.938660,562.078979 767.716248,579.629456 762.944763,596.940796 
	C757.141663,617.995117 749.084167,638.261169 737.507568,656.775757 
	C728.199219,671.662964 718.412476,686.456787 707.105835,699.827209 
	C697.039001,711.731506 684.846191,721.907104 673.142761,732.342285 
	C655.013367,748.507263 634.046448,760.363647 612.067505,770.365784 
	C592.552734,779.246582 572.054260,785.009888 550.980530,789.173950 
	C528.628784,793.590515 506.100769,793.766785 483.633270,792.743103 
	C463.937622,791.845764 444.537689,787.867737 425.567078,782.063110 
	C399.863007,774.198120 375.797302,762.918823 353.421875,748.094177 
	C335.871582,736.466309 319.636536,723.150146 305.296387,707.718811 
	C272.424591,672.345459 250.239563,631.101807 239.245987,584.084717 
	C235.269714,567.079102 233.450470,549.735596 232.770752,532.152222 
	C231.500046,499.281342 236.415970,467.511658 246.827194,436.507538 
	C256.712708,407.069000 271.554382,380.273651 290.660065,355.766754 
	C308.409393,332.999634 329.231323,313.488373 353.199432,297.586243 
	C382.864838,277.904205 415.256073,264.624207 450.382568,257.821228 
	C472.664093,253.505905 495.078491,251.976990 517.565186,253.179504 
	C548.163208,254.815765 577.826599,261.330902 605.937622,273.980621 
	C610.579285,276.069336 615.214722,278.171997 619.832458,280.258942 
	C606.728210,293.163574 593.833984,305.766937 581.046509,318.477753 
	C564.500793,334.924286 548.014893,351.431274 531.561279,367.970001 
	C527.512146,372.040100 522.969910,374.272491 517.037109,374.073944 
	C508.381653,373.784180 499.701752,373.784271 491.047150,374.086456 
	C486.472504,374.246185 481.929291,375.306580 476.933777,375.975616 
z"/>
<path fill="#164CA1" opacity="1.000000" stroke="none" 
	d="
M924.249268,234.249237 
	C908.208069,250.290359 892.363037,266.028168 876.648254,281.894958 
	C868.699585,289.920624 861.237732,298.440491 853.107483,306.271545 
	C841.092224,317.844788 826.432068,323.942749 809.919800,326.051056 
	C790.998840,328.466919 772.120422,331.216522 753.227112,333.846863 
	C748.503723,334.504486 743.668152,334.817505 739.117126,336.109406 
	C735.332336,337.183807 731.132446,338.685516 728.416870,341.332275 
	C709.800232,359.476990 691.586853,378.034424 673.127869,396.342194 
	C646.057129,423.191071 618.939087,449.992828 591.718384,476.689331 
	C586.738770,481.573090 585.232239,486.036346 587.710205,493.297363 
	C598.394470,524.604248 593.699402,554.092163 573.148254,579.974487 
	C558.946350,597.860596 539.963745,608.765747 516.868225,612.104736 
	C490.381958,615.933899 466.520782,609.838928 445.890106,593.116943 
	C428.798615,579.263611 417.797516,561.096436 414.118134,539.213501 
	C409.559143,512.099243 415.333099,487.139435 432.938385,465.813721 
	C447.233917,448.497101 465.505066,437.246124 488.193329,433.931122 
	C504.615051,431.531677 520.590698,432.147308 535.894287,439.367310 
	C539.246948,440.949036 542.387634,440.035522 544.997681,437.492096 
	C548.100464,434.468567 551.133972,431.373993 554.197571,428.310211 
	C595.441772,387.063293 636.481445,345.608093 678.090454,304.732544 
	C687.192200,295.791260 690.627930,285.511627 692.072327,273.596588 
	C693.654663,260.543152 695.755554,247.551163 697.717651,234.545547 
	C699.409546,223.330841 701.132202,212.119171 703.014648,200.935333 
	C704.387695,192.778061 707.859192,185.646561 713.775452,179.687897 
	C750.267517,142.934280 786.645813,106.067535 823.232544,69.408623 
	C828.213257,64.417999 833.793457,59.825611 839.726257,56.035000 
	C847.434814,51.109776 856.122131,51.238873 864.191223,55.199787 
	C872.112976,59.088387 880.089844,64.007576 881.514893,73.576904 
	C882.635681,81.103065 882.244324,88.989220 881.528687,96.622093 
	C880.485901,107.744469 878.548584,118.782974 876.993225,129.857300 
	C875.992371,136.983856 874.992432,144.110535 873.886475,151.990219 
	C880.224792,151.147827 886.005005,150.408051 891.776611,149.606415 
	C902.693726,148.090134 913.596558,146.467850 924.523621,145.028488 
	C930.729736,144.210968 936.962769,143.219193 943.199951,143.089279 
	C959.905579,142.741318 967.337708,151.985031 972.443726,165.912430 
	C975.337036,173.804398 973.633484,182.763992 966.855652,189.721085 
	C952.603333,204.350357 938.603027,219.225204 924.249268,234.249237 
z"/>
</svg>