<svg width="22" height="22" viewBox="0 0 22 22" fill="none" xmlns="http://www.w3.org/2000/svg">
<g clip-path="url(#clip0_2084_1611)">
<path d="M1.11805 10.6125C1.16789 10.2507 1.20227 9.88722 1.27016 9.52886C1.77719 6.82698 3.17367 4.69831 5.45016 3.16605C7.3193 1.90792 9.39727 1.39917 11.6411 1.58651C12.7583 1.68019 13.8256 1.9698 14.8947 2.47081C14.1255 3.04745 13.7062 3.78823 13.7457 4.77136C11.7055 3.90683 9.72125 3.8948 7.75844 4.81089C6.34391 5.47175 5.26453 6.50558 4.53234 7.8823C3.00953 10.7475 3.59133 14.1549 5.97438 16.4142C8.22938 18.5532 11.7365 18.9193 14.4435 17.2787C15.9732 16.3523 17.0173 15.022 17.5502 13.3153C18.0804 11.6163 17.9592 9.94222 17.2545 8.33089C17.6842 8.21831 18.1345 8.17191 18.5127 7.98198C18.8925 7.7912 19.201 7.45691 19.5568 7.17331C19.5774 7.21628 19.6152 7.28589 19.6445 7.35894C21.0513 10.8635 20.6671 14.1583 18.3769 17.1644C16.7991 19.2355 14.6575 20.4343 12.0751 20.7918C6.9618 21.5008 2.13641 17.9645 1.26758 12.8925C1.2057 12.5332 1.16703 12.1706 1.11719 11.8088C1.11805 11.4109 1.11805 11.0121 1.11805 10.6125Z" fill="#164CA1"/>
<path d="M18.4481 1.11719C18.9036 1.35523 18.9792 1.49789 18.9121 2.02469C18.8632 2.40711 18.8064 2.78867 18.7549 3.17023C18.7523 3.18828 18.7592 3.20633 18.7652 3.25273C19.1089 3.20547 19.4493 3.1582 19.7896 3.11094C19.9039 3.09461 20.0182 3.07398 20.1325 3.05937C20.4126 3.02242 20.6661 3.14961 20.7968 3.38937C20.9343 3.64117 20.9085 3.92477 20.6988 4.13703C19.8343 5.0093 18.9646 5.87727 18.094 6.74352C17.8732 6.96266 17.5689 6.93258 17.2957 6.97812C16.8075 7.05805 16.316 7.11391 15.827 7.18867C15.7514 7.19984 15.6689 7.24539 15.6139 7.30039C14.6153 8.29297 13.621 9.2907 12.6224 10.2841C12.5476 10.3589 12.5347 10.4173 12.5734 10.5179C12.9799 11.5852 12.4204 12.7377 11.3436 13.0642C10.2668 13.3899 9.14793 12.7454 8.90129 11.6342C8.73715 10.8952 8.95113 10.2515 9.52434 9.75734C10.0907 9.26922 10.7464 9.15664 11.4519 9.41445C11.5722 9.45828 11.6427 9.44969 11.7355 9.35602C12.7135 8.37031 13.6992 7.39062 14.6763 6.40406C14.7468 6.33359 14.7975 6.22273 14.8138 6.12305C14.91 5.51375 14.9839 4.90102 15.0888 4.29344C15.1154 4.13961 15.1962 3.96945 15.3054 3.85859C16.1381 3.00867 16.9811 2.16992 17.8268 1.33203C17.9153 1.24438 18.0347 1.18766 18.1396 1.11719C18.2427 1.11719 18.3458 1.11719 18.4481 1.11719Z" fill="#164CA1"/>
<path d="M13.2671 6.00155C12.6028 6.66412 11.9531 7.31553 11.2982 7.96092C11.257 8.00131 11.1719 8.02022 11.11 8.0142C9.33028 7.83545 7.77309 9.08412 7.57887 10.8974C7.38465 12.709 8.72528 14.1914 10.3589 14.4088C12.3166 14.6701 14.0912 13.0785 13.9915 11.1071C13.9778 10.8304 14.0534 10.6611 14.2416 10.4806C14.789 9.95467 15.3193 9.41155 15.8547 8.87358C15.8993 8.82803 15.9294 8.76873 15.9758 8.70342C17.0157 10.674 16.8068 13.7239 14.4848 15.6755C12.2564 17.549 8.88856 17.4381 6.78911 15.4169C4.63637 13.3432 4.3734 10.02 6.17207 7.69795C8.04723 5.27795 11.1522 4.91616 13.2671 6.00155Z" fill="#164CA1"/>
</g>
<defs>
<clipPath id="clip0_2084_1611">
<rect width="22" height="22" fill="white"/>
</clipPath>
</defs>
</svg>
