<?xml version="1.0" standalone="no"?>
<!DOCTYPE svg PUBLIC "-//W3C//DTD SVG 20010904//EN"
 "http://www.w3.org/TR/2001/REC-SVG-20010904/DTD/svg10.dtd">
<svg version="1.0" xmlns="http://www.w3.org/2000/svg"
 width="120.000000pt" height="120.000000pt" viewBox="0 0 120.000000 120.000000"
 preserveAspectRatio="xMidYMid meet">

<g transform="translate(0.000000,120.000000) scale(0.100000,-0.100000)"
fill="#000000" stroke="none">
<path d="M157 1086 c-97 -35 -97 -34 -97 -488 0 -428 1 -432 70 -473 34 -19
51 -20 475 -20 l440 0 34 24 c60 43 61 51 61 473 0 428 -1 432 -70 473 -33 19
-53 20 -455 22 -334 2 -428 0 -458 -11z m893 -540 c0 -289 -2 -325 -17 -337
-13 -12 -91 -13 -437 -10 -262 2 -426 7 -433 13 -10 8 -13 87 -13 334 l0 324
450 0 450 0 0 -324z"/>
<path d="M252 718 c-16 -16 -16 -110 0 -126 27 -27 78 -7 78 30 0 14 8 18 35
18 l35 0 0 -128 0 -128 -32 -15 c-20 -8 -34 -23 -36 -35 -5 -36 19 -45 119
-42 l94 3 0 35 c0 31 -3 35 -27 38 l-28 3 0 135 0 134 35 0 c31 0 35 -3 35
-25 0 -29 19 -40 55 -31 25 6 26 9 23 74 l-3 67 -185 3 c-136 2 -189 -1 -198
-10z"/>
<path d="M744 716 c-3 -8 -4 -25 -2 -38 2 -19 11 -24 55 -32 99 -17 185 17
157 62 -15 24 -201 31 -210 8z"/>
<path d="M780 552 c-32 -6 -35 -10 -35 -42 l0 -35 94 -3 c97 -3 121 5 121 38
0 10 -6 22 -13 28 -16 14 -122 22 -167 14z"/>
<path d="M744 356 c-3 -8 -4 -25 -2 -38 3 -22 6 -23 102 -23 83 0 101 3 110
18 8 12 8 22 0 35 -15 24 -201 31 -210 8z"/>
</g>
</svg>
