<svg width="30" height="30" viewBox="0 0 30 30" fill="none" xmlns="http://www.w3.org/2000/svg">
<g clip-path="url(#clip0_391_191)">
<path d="M28.4763 5.52418C28.4763 11.8242 28.4763 18.1242 28.4763 24.423C28.4587 24.4804 28.4341 24.5367 28.4235 24.5953C28.1095 26.2125 26.7396 27.3597 25.086 27.3609C18.3583 27.3656 11.6294 27.3668 4.90166 27.3597C3.00908 27.3574 1.52432 25.848 1.52432 23.9554C1.52314 17.9836 1.52314 12.0093 1.52432 6.03512C1.52432 4.15777 3.00791 2.64137 4.88291 2.63902C11.6282 2.63082 18.3747 2.63199 25.12 2.63902C26.6728 2.64019 27.9958 3.6984 28.379 5.20543C28.406 5.31324 28.4435 5.41871 28.4763 5.52418ZM3.779 8.26988C3.779 8.38355 3.779 8.47027 3.779 8.55699C3.779 13.6546 3.779 18.7523 3.779 23.85C3.779 24.6691 4.22432 25.1086 5.05283 25.1086C11.6856 25.1086 18.3185 25.1039 24.9513 25.1156C25.6837 25.1168 26.2321 24.6187 26.2286 23.8441C26.211 18.7464 26.2192 13.6488 26.2192 8.55113C26.2192 8.45855 26.2192 8.36715 26.2192 8.26988C18.7251 8.26988 11.2696 8.26988 3.779 8.26988Z" fill="black"/>
<path d="M3.7793 8.26978C11.2699 8.26978 18.7254 8.26978 26.2207 8.26978C26.2207 8.36704 26.2207 8.45845 26.2207 8.55103C26.2207 13.6487 26.2125 18.7463 26.2301 23.844C26.2324 24.6186 25.6852 25.1166 24.9527 25.1155C18.3199 25.1049 11.6871 25.1096 5.0543 25.1084C4.22578 25.1084 3.78047 24.6678 3.78047 23.8499C3.78047 18.7522 3.78047 13.6545 3.78047 8.55688C3.7793 8.47017 3.7793 8.38345 3.7793 8.26978ZM13.8773 13.8995C13.8773 14.1022 13.8668 14.2944 13.8797 14.4842C13.9207 15.1018 14.393 15.56 14.9859 15.5706C15.5848 15.5799 16.091 15.1159 16.1168 14.4866C16.1414 13.8913 16.1414 13.2924 16.1156 12.6971C16.0875 12.0584 15.6141 11.6331 14.9766 11.6319C12.3703 11.6307 9.76523 11.6307 7.15898 11.6319C6.52969 11.6319 6.03867 12.0737 6.01289 12.6971C5.98828 13.2924 5.98945 13.8913 6.01172 14.4866C6.03516 15.1112 6.57891 15.5975 7.17773 15.5694C7.79883 15.5401 8.25586 15.0502 8.25938 14.4069C8.26055 14.2428 8.25938 14.0776 8.25938 13.903C8.83242 13.903 9.37852 13.903 9.92813 13.903C9.92813 16.1424 9.92813 18.3643 9.92813 20.6108C9.76289 20.6108 9.61055 20.5885 9.46875 20.6155C9.22383 20.6635 8.95898 20.6975 8.75039 20.8194C8.33555 21.0631 8.16797 21.5823 8.30039 22.037C8.4457 22.5397 8.83594 22.8538 9.39141 22.8608C10.5059 22.8737 11.6203 22.8667 12.7336 22.8631C12.8543 22.8631 12.9797 22.8444 13.0957 22.8081C13.5891 22.6545 13.9277 22.1542 13.8832 21.6608C13.8328 21.1065 13.418 20.6752 12.8672 20.626C12.6527 20.6073 12.4359 20.6225 12.2227 20.6225C12.2227 18.3479 12.2227 16.1249 12.2227 13.8995C12.7758 13.8995 13.3078 13.8995 13.8773 13.8995ZM21.1852 11.6319C20.6238 11.6319 20.0637 11.6295 19.5023 11.6331C18.8777 11.6366 18.3832 12.1077 18.3691 12.7065C18.3539 13.3487 18.8133 13.8702 19.4578 13.8807C20.6051 13.8995 21.7535 13.9006 22.9008 13.8795C23.5266 13.869 24.0117 13.3241 23.9906 12.7229C23.9695 12.1042 23.4773 11.6354 22.8398 11.6319C22.2891 11.6295 21.7371 11.6319 21.1852 11.6319ZM21.1746 18.3678C21.7266 18.3678 22.2785 18.3702 22.8305 18.3678C23.4727 18.3655 23.9625 17.9073 23.9918 17.2874C24.0199 16.6885 23.5359 16.1342 22.9125 16.1225C21.7559 16.1002 20.5992 16.1002 19.4426 16.1225C18.8004 16.1342 18.348 16.6651 18.3691 17.3108C18.3879 17.9049 18.8871 18.3667 19.5176 18.369C20.0707 18.3702 20.6227 18.3678 21.1746 18.3678ZM21.1676 22.8538C21.1676 22.8573 21.1676 22.862 21.1676 22.8655C21.702 22.8655 22.2375 22.8913 22.7695 22.8549C23.0355 22.8362 23.3262 22.7542 23.5488 22.6124C23.9355 22.3674 24.0691 21.8694 23.9438 21.4241C23.8207 20.987 23.4387 20.6366 22.9723 20.6295C21.7734 20.6096 20.5734 20.6225 19.3734 20.626C19.2961 20.626 19.2176 20.6471 19.1438 20.6706C18.6293 20.8381 18.3223 21.3198 18.3738 21.8729C18.4207 22.3791 18.8496 22.8221 19.3816 22.8467C19.9758 22.8749 20.5723 22.8538 21.1676 22.8538Z" fill="white"/>
<path d="M13.8768 13.8995C13.3084 13.8995 12.7752 13.8995 12.2221 13.8995C12.2221 16.1249 12.2221 18.348 12.2221 20.6226C12.4354 20.6226 12.6521 20.6062 12.8666 20.6261C13.4174 20.6753 13.8322 21.1054 13.8826 21.6609C13.9271 22.1542 13.5896 22.6535 13.0951 22.8081C12.9803 22.8445 12.8537 22.8632 12.733 22.8632C11.6186 22.8667 10.5041 22.8738 9.39082 22.8609C8.83652 22.8538 8.44629 22.5398 8.2998 22.037C8.16855 21.5835 8.33496 21.0632 8.7498 20.8195C8.9584 20.6976 9.22324 20.6636 9.46816 20.6156C9.60996 20.5874 9.7623 20.6109 9.92754 20.6109C9.92754 18.3644 9.92754 16.1425 9.92754 13.9031C9.37793 13.9031 8.83184 13.9031 8.25879 13.9031C8.25879 14.0777 8.25996 14.2417 8.25879 14.407C8.2541 15.0503 7.79824 15.5402 7.17715 15.5695C6.57832 15.5976 6.03457 15.1101 6.01113 14.4867C5.98887 13.8913 5.9877 13.2925 6.0123 12.6972C6.03809 12.0738 6.5291 11.6331 7.1584 11.632C9.76465 11.6296 12.3697 11.6308 14.976 11.632C15.6135 11.632 16.0869 12.0585 16.115 12.6972C16.1408 13.2925 16.1408 13.8902 16.1162 14.4867C16.0904 15.116 15.5842 15.58 14.9854 15.5706C14.3924 15.5613 13.9201 15.1019 13.8791 14.4843C13.8662 14.2945 13.8768 14.1023 13.8768 13.8995Z" fill="black"/>
<path d="M21.1853 11.6321C21.7373 11.6321 22.2892 11.6298 22.8412 11.6333C23.4787 11.6368 23.9709 12.1044 23.992 12.7243C24.0131 13.3243 23.5267 13.8692 22.9021 13.8809C21.7549 13.9009 20.6064 13.8997 19.4592 13.8821C18.8146 13.8716 18.3553 13.3501 18.3705 12.7079C18.3845 12.1091 18.8791 11.638 19.5037 11.6345C20.0638 11.6298 20.6252 11.6321 21.1853 11.6321Z" fill="black"/>
<path d="M21.1741 18.368C20.6222 18.368 20.0702 18.3704 19.5183 18.368C18.8878 18.3657 18.3898 17.904 18.3698 17.3098C18.3488 16.6641 18.8011 16.1333 19.4433 16.1215C20.5999 16.1004 21.7566 16.1004 22.9132 16.1215C23.5366 16.1333 24.0206 16.6887 23.9925 17.2864C23.9632 17.9075 23.4734 18.3645 22.8312 18.3668C22.2781 18.3704 21.7261 18.368 21.1741 18.368Z" fill="black"/>
<path d="M21.1675 22.8538C20.5722 22.8538 19.9757 22.8749 19.3816 22.8479C18.8496 22.8233 18.4207 22.3803 18.3738 21.8741C18.3222 21.3198 18.6293 20.8382 19.1437 20.6718C19.2175 20.6471 19.2972 20.6272 19.3734 20.6272C20.5734 20.6237 21.7734 20.6108 22.9722 20.6307C23.4375 20.6389 23.8195 20.9893 23.9437 21.4253C24.0691 21.8706 23.9355 22.3686 23.5488 22.6135C23.325 22.7553 23.0355 22.8374 22.7695 22.8561C22.2375 22.8925 21.7019 22.8667 21.1675 22.8667C21.1675 22.862 21.1675 22.8573 21.1675 22.8538Z" fill="black"/>
</g>
<defs>
<clipPath id="clip0_391_191">
<rect width="30" height="30" fill="white"/>
</clipPath>
</defs>
</svg>
