<svg width="40" height="40" viewBox="0 0 40 40" fill="none" xmlns="http://www.w3.org/2000/svg">
<g clip-path="url(#clip0_1555_4096)">
<path d="M18.5297 2.33742C23.8266 2.34836 28.0266 6.61711 28.0172 11.9827C28.0079 17.1046 23.6813 21.3718 18.5125 21.3577C13.2297 21.3421 8.98442 17.064 9.00004 11.7734C9.01567 6.57492 13.3063 2.32804 18.5297 2.33742Z" fill="#164CA1"/>
<path d="M19.9481 22.7437C17.0668 27.0562 17.4152 33.0296 21.2559 36.9687C20.9902 37.4702 20.5527 37.6593 20.0059 37.6593C18.0684 37.6609 16.1309 37.6593 14.1934 37.6593C11.8309 37.6593 9.46994 37.664 7.10744 37.6577C4.08556 37.6499 1.834 35.2593 2.04494 32.2484C2.12931 31.0437 2.60588 29.939 3.19181 28.9062C5.5715 24.7109 9.17462 22.4687 14.0074 22.2859C15.6309 22.2249 17.259 22.2749 18.8856 22.2702C19.3043 22.2687 19.6637 22.3843 19.9481 22.7437Z" fill="#164CA1"/>
<path d="M20.7814 29.0454C20.7517 24.3251 24.6205 20.4641 29.3955 20.4454C34.0814 20.4282 37.9517 24.2876 37.9689 28.9985C37.9861 33.7532 34.1705 37.636 29.4611 37.6563C24.6424 37.6766 20.8111 33.8766 20.7814 29.0454ZM27.8892 30.4219C27.8892 30.8438 27.8783 31.2094 27.8924 31.5751C27.9002 31.7985 27.9127 32.0329 27.9814 32.2422C28.1736 32.8188 28.7955 33.1969 29.3783 33.1266C30.022 33.0485 30.5252 32.5813 30.5767 31.9454C30.6174 31.4579 30.5845 30.9641 30.5845 30.4219C31.072 30.4219 31.4939 30.436 31.9127 30.4188C32.7486 30.386 33.3236 29.7813 33.308 28.9704C33.2939 28.2547 32.6924 27.7204 31.883 27.7079C31.4767 27.7016 31.0689 27.7063 30.6017 27.7063C30.6017 27.2094 30.6205 26.761 30.597 26.3141C30.5533 25.4907 29.9424 24.9485 29.1424 24.9969C28.4345 25.0391 27.9236 25.5829 27.8939 26.3516C27.8767 26.7954 27.8908 27.2407 27.8908 27.7063C27.4111 27.7063 27.0158 27.7016 26.6205 27.7079C25.7642 27.7204 25.1861 28.2579 25.1767 29.0422C25.1674 29.8313 25.7689 30.4047 26.633 30.4219C27.0283 30.4282 27.4236 30.4219 27.8892 30.4219Z" fill="#164CA1"/>
<path d="M27.8923 30.4218C27.4251 30.4218 27.0313 30.428 26.636 30.4202C25.7719 30.403 25.172 29.8296 25.1798 29.0405C25.1891 28.2561 25.7673 27.7186 26.6235 27.7061C27.0188 27.6999 27.4141 27.7046 27.8938 27.7046C27.8938 27.2374 27.8798 26.7936 27.897 26.3499C27.9266 25.5811 28.4376 25.0374 29.1454 24.9952C29.9454 24.9468 30.5563 25.4889 30.6001 26.3124C30.6235 26.7592 30.6048 27.2093 30.6048 27.7046C31.0735 27.7046 31.4798 27.6999 31.886 27.7061C32.697 27.7186 33.297 28.2546 33.311 28.9686C33.3266 29.7796 32.7516 30.3858 31.9157 30.4171C31.4954 30.4327 31.0751 30.4202 30.5876 30.4202C30.5876 30.9624 30.6188 31.4561 30.5798 31.9436C30.5282 32.5796 30.0251 33.0452 29.3813 33.1249C28.7985 33.1968 28.1766 32.8171 27.9845 32.2405C27.9141 32.0311 27.9032 31.7968 27.8954 31.5733C27.8829 31.2093 27.8923 30.8436 27.8923 30.4218Z" fill="white"/>
</g>
<defs>
<clipPath id="clip0_1555_4096">
<rect width="40" height="40" fill="white"/>
</clipPath>
</defs>
</svg>
