<svg width="24" height="24" viewBox="0 0 24 24" fill="none" xmlns="http://www.w3.org/2000/svg">
<g clip-path="url(#clip0_1881_610)">
<path d="M17.4257 22.7817C16.9953 22.6927 16.5613 22.6224 16.1366 22.5117C14.9778 22.2089 13.9016 21.7036 12.8694 21.1064C10.1403 19.5277 7.81347 17.4699 5.75097 15.1008C4.45347 13.6102 3.32003 12.0061 2.43972 10.2314C1.8866 9.11579 1.44878 7.95892 1.2941 6.71767C1.1816 5.82048 1.16285 4.87829 1.77316 4.16298C2.5616 3.23861 3.44097 2.38267 4.35128 1.57642C4.93535 1.05892 5.9966 1.13673 6.66316 1.60267C6.8291 1.71798 6.9866 1.85017 7.1291 1.99173C8.05441 2.91048 8.97785 3.83204 9.8966 4.75736C10.6719 5.53829 10.7675 6.67079 10.1328 7.48736C9.91253 7.77048 9.63691 7.97861 9.29753 8.10048C8.69753 8.31517 8.23253 8.68079 7.97847 9.28173C7.81816 9.66142 7.78816 10.0495 7.8941 10.4508C8.18472 11.5552 8.79128 12.4795 9.53191 13.3261C10.3982 14.3161 11.3872 15.1561 12.5778 15.7364C13.0766 15.9792 13.5903 16.1845 14.1678 16.102C14.8982 15.998 15.441 15.6352 15.7728 14.9649C15.921 14.6658 16.0447 14.3377 16.2594 14.093C16.9672 13.2867 18.1972 13.2192 19.025 13.9055C19.1169 13.9814 19.2032 14.0639 19.2875 14.1483C20.21 15.0699 21.1297 15.9942 22.055 16.9139C22.446 17.303 22.7122 17.7464 22.7357 18.3117C22.7366 18.3436 22.7582 18.3755 22.7703 18.4074C22.7703 18.4355 22.7703 18.4636 22.7703 18.4917C22.7563 18.5527 22.7347 18.6117 22.73 18.6736C22.6878 19.2052 22.4685 19.6589 22.1 20.0349C21.4728 20.6752 20.8325 21.3042 20.1997 21.9399C19.9241 22.2174 19.6119 22.4414 19.2407 22.5642C18.965 22.6561 18.6772 22.7124 18.395 22.7836C18.0707 22.7817 17.7482 22.7817 17.4257 22.7817Z" fill="#4D4D4D"/>
</g>
<defs>
<clipPath id="clip0_1881_610">
<rect width="24" height="24" fill="white"/>
</clipPath>
</defs>
</svg>
