<svg width="24" height="24" viewBox="0 0 24 24" fill="none" xmlns="http://www.w3.org/2000/svg">
<g clip-path="url(#clip0_1881_597)">
<path d="M1.21875 18.3969C1.21875 15.0857 1.21875 11.7744 1.21875 8.46223C1.25625 8.47816 1.29656 8.48941 1.32938 8.51191C4.245 10.4554 7.15969 12.3997 10.0753 14.3432C11.3325 15.1813 12.6525 15.1841 13.9088 14.3479C16.7906 12.4288 19.6706 10.5069 22.5525 8.58598C22.6144 8.54473 22.6772 8.50535 22.77 8.44629C22.77 8.5316 22.77 8.58504 22.77 8.63754C22.77 11.7941 22.77 14.9516 22.7691 18.1082C22.7691 18.1991 22.7663 18.291 22.7503 18.38C22.5656 19.4113 21.7706 20.0741 20.7103 20.0741C16.4803 20.076 12.2494 20.075 8.01938 20.075C6.42656 20.075 4.83469 20.0788 3.24188 20.0732C2.54344 20.0713 1.96688 19.7938 1.57688 19.2125C1.41469 18.9707 1.33594 18.6716 1.21875 18.3969Z" fill="#4D4D4D"/>
<path d="M1.21875 5.60131C1.25156 5.49538 1.2825 5.38944 1.31719 5.28444C1.57781 4.50256 2.31187 3.95413 3.13781 3.92319C3.19406 3.92131 3.25031 3.92132 3.30656 3.92132C9.10125 3.92132 14.895 3.92038 20.6897 3.92132C21.5447 3.92132 22.1916 4.28506 22.5759 5.05663C23.0128 5.93506 22.7372 6.93913 21.9084 7.50163C20.9175 8.17475 19.9172 8.83475 18.9206 9.49944C17.0372 10.7548 15.1537 12.0091 13.2712 13.2644C12.3619 13.8701 11.6306 13.8701 10.7212 13.2635C7.98 11.4373 5.24344 9.60256 2.49375 7.78944C1.89562 7.39475 1.38375 6.96444 1.21875 6.23225C1.21875 6.02225 1.21875 5.81131 1.21875 5.60131Z" fill="#4D4D4D"/>
</g>
<defs>
<clipPath id="clip0_1881_597">
<rect width="24" height="24" fill="white"/>
</clipPath>
</defs>
</svg>
