<?xml version="1.0" standalone="no"?>
<!DOCTYPE svg PUBLIC "-//W3C//DTD SVG 20010904//EN"
 "http://www.w3.org/TR/2001/REC-SVG-20010904/DTD/svg10.dtd">
<svg version="1.0" xmlns="http://www.w3.org/2000/svg"
 width="569.000000pt" height="580.000000pt" viewBox="0 0 569.000000 580.000000"
 preserveAspectRatio="xMidYMid meet">

<g transform="translate(0.000000,580.000000) scale(0.100000,-0.100000)"
fill="#000000" stroke="none">
<path d="M3010 5754 c19 -16 56 -49 81 -74 89 -85 123 -105 197 -116 l47 -6
-37 28 c-20 16 -65 53 -100 83 -62 53 -133 92 -193 107 l-30 7 35 -29z"/>
<path d="M4058 5509 c38 -41 78 -112 85 -154 11 -61 30 -110 53 -140 13 -18
24 -36 24 -42 0 -6 15 -26 33 -45 17 -20 39 -44 48 -54 28 -33 104 -99 111
-97 4 2 23 -4 43 -13 20 -8 64 -17 98 -20 62 -5 62 -5 37 13 -52 37 -133 119
-155 158 -13 22 -41 80 -61 129 -29 70 -51 103 -100 155 -60 65 -147 119 -219
137 l-30 7 33 -34z"/>
<path d="M4860 4874 c0 -3 15 -18 34 -35 56 -49 88 -126 90 -221 1 -27 4 -48
7 -48 3 0 6 -45 7 -100 1 -88 9 -158 26 -240 3 -14 25 -63 48 -110 32 -62 63
-105 117 -160 41 -41 78 -74 83 -73 4 2 8 -1 8 -6 0 -5 10 -13 22 -16 27 -9
98 -81 98 -100 0 -8 3 -15 8 -15 14 0 34 -43 37 -80 1 -20 7 -45 12 -54 21
-38 -6 -171 -59 -286 -16 -36 -33 -74 -38 -85 -13 -30 -33 -97 -37 -125 -5
-36 -5 -171 1 -195 24 -107 36 -139 107 -290 28 -62 36 -193 14 -255 -8 -22
-11 -40 -8 -40 3 0 -2 -9 -12 -20 -10 -11 -15 -20 -11 -20 4 0 2 -6 -4 -13 -5
-6 -19 -24 -31 -39 -11 -15 -54 -55 -95 -88 -117 -95 -123 -101 -168 -170 -91
-139 -115 -225 -121 -435 -4 -149 -33 -232 -107 -302 -35 -33 -117 -78 -158
-87 -14 -3 -35 -7 -47 -10 -13 -4 -32 -8 -43 -11 -97 -21 -236 -86 -291 -136
-24 -21 -45 -40 -49 -41 -3 -2 -21 -23 -40 -48 -19 -25 -38 -47 -41 -50 -3 -3
-30 -54 -60 -115 -50 -102 -130 -205 -158 -205 -5 0 -16 -6 -23 -14 -20 -19
-118 -46 -171 -46 -24 0 -69 5 -98 10 -30 6 -67 13 -84 15 -16 3 -43 8 -60 12
-37 7 -156 6 -210 -3 -101 -16 -211 -69 -308 -148 -121 -98 -188 -125 -308
-121 -128 4 -177 28 -315 151 -12 11 -40 29 -61 40 -21 10 -41 24 -45 29 -4 6
-8 6 -8 1 0 -5 -6 -4 -12 1 -7 6 -47 21 -88 33 -93 29 -210 29 -346 0 -107
-22 -177 -25 -254 -12 -98 18 -142 36 -184 77 -38 36 -99 140 -95 162 1 4 0
11 -1 16 -1 4 -3 10 -5 15 -1 4 -7 21 -14 37 -7 17 -15 39 -17 50 -2 11 -11
26 -21 32 -9 7 -14 13 -10 13 4 0 -27 34 -69 75 -42 41 -80 72 -85 69 -5 -3
-9 0 -9 5 0 6 -5 11 -11 11 -6 0 -23 8 -37 19 -35 24 -224 83 -272 84 -8 0
-18 5 -22 11 -5 7 -8 7 -8 -2 0 -7 -4 -10 -10 -7 -5 3 -22 8 -37 10 -52 7
-122 45 -158 88 l-36 42 25 -69 c65 -181 194 -287 394 -321 117 -20 170 -39
239 -84 96 -63 163 -149 202 -264 41 -117 123 -212 234 -268 131 -67 243 -74
411 -25 191 56 350 17 508 -123 80 -71 120 -96 193 -121 85 -29 167 -34 255
-16 102 22 161 53 254 135 164 144 318 182 512 125 164 -48 271 -43 400 21 98
48 174 125 220 224 74 158 87 182 128 228 48 55 138 116 204 137 26 9 87 23
135 31 110 19 192 60 269 133 116 110 153 211 150 407 -2 143 10 210 54 296
32 65 102 140 175 189 83 57 146 126 184 203 l35 70 0 152 0 153 -59 115
c-106 206 -106 322 -1 532 l60 120 0 150 c0 145 -1 152 -30 213 -32 68 -112
160 -169 194 -72 43 -125 93 -166 157 -70 109 -79 144 -81 326 -1 135 -5 170
-24 225 -41 123 -133 231 -240 283 -56 28 -120 49 -120 41z"/>
<path d="M70 3265 c1 -6 10 -26 21 -45 15 -26 18 -29 13 -10 -7 27 -34 71 -34
55z"/>
<path d="M50 2257 c0 -2 9 -29 19 -60 37 -106 109 -193 213 -255 41 -25 158
-146 159 -165 0 -7 4 -3 8 8 5 11 5 27 0 36 -5 9 -10 31 -11 48 -1 17 -6 31
-10 31 -4 0 -8 9 -8 21 0 37 -107 160 -165 189 -83 42 -147 85 -175 116 -16
19 -30 33 -30 31z"/>
</g>
</svg>
