<?xml version="1.0" standalone="no"?>
<!DOCTYPE svg PUBLIC "-//W3C//DTD SVG 20010904//EN"
 "http://www.w3.org/TR/2001/REC-SVG-20010904/DTD/svg10.dtd">
<svg version="1.0" xmlns="http://www.w3.org/2000/svg"
 width="2240.000000pt" height="1854.000000pt" viewBox="0 0 2240.000000 1854.000000"
 preserveAspectRatio="xMidYMid meet">

<g transform="translate(0.000000,1854.000000) scale(0.100000,-0.100000)"
fill="#000000" stroke="none">
<path d="M13031 16413 c0 -1055 2 -1913 5 -1908 2 6 229 861 504 1900 275
1040 503 1898 506 1908 5 16 -24 17 -505 17 l-511 0 1 -1917z"/>
<path d="M14965 18318 c-3 -7 -244 -913 -536 -2013 -292 -1099 -533 -2005
-536 -2012 -4 -10 33 -13 179 -13 l184 0 172 644 172 643 0 621 c0 588 1 623
20 683 24 79 66 147 130 209 57 56 170 116 235 125 24 4 48 12 53 19 5 6 73
252 152 546 78 294 145 541 147 548 4 9 -36 12 -181 12 -140 0 -188 -3 -191
-12z"/>
<path d="M15512 17798 c-78 -293 -145 -543 -148 -555 l-6 -23 206 0 206 0 0
555 0 555 -58 0 -58 0 -142 -532z"/>
<path d="M15910 17775 l0 -555 1280 0 1280 0 -2 553 -3 552 -1277 3 -1278 2 0
-555z"/>
<path d="M18610 17775 l0 -555 413 0 c444 0 487 -4 585 -54 107 -55 202 -160
244 -271 l23 -60 0 -915 0 -915 -23 -58 c-51 -124 -164 -234 -299 -288 -57
-24 -62 -24 -500 -27 l-443 -3 0 -1804 0 -1805 985 0 984 0 10 38 c6 20 165
630 356 1354 l345 1317 -2 2298 -3 2298 -1337 3 -1338 2 0 -555z"/>
<path d="M16792 16479 c-62 -31 -95 -85 -95 -153 0 -160 184 -232 295 -115
128 134 -35 352 -200 268z m123 -43 c80 -34 100 -151 37 -207 -111 -99 -269
33 -192 159 20 32 67 61 103 62 10 0 33 -6 52 -14z"/>
<path d="M18630 16434 l0 -65 -22 15 c-27 19 -84 20 -116 2 -77 -42 -81 -161
-8 -210 32 -20 95 -21 124 0 20 14 22 14 22 0 0 -9 9 -16 20 -16 19 0 20 7 20
170 0 163 -1 170 -20 170 -18 0 -20 -7 -20 -66z m-41 -89 c32 -16 41 -33 41
-75 0 -46 -31 -75 -80 -75 -32 0 -47 6 -61 24 -27 33 -25 86 6 116 28 29 54
31 94 10z"/>
<path d="M15487 16468 c114 -183 123 -202 123 -255 0 -46 3 -53 20 -53 17 0
20 7 20 53 0 48 6 63 64 157 36 58 60 107 55 108 -21 8 -39 -10 -85 -87 -27
-45 -51 -81 -54 -81 -3 0 -27 39 -53 85 -40 71 -52 85 -73 85 -18 0 -23 -4
-17 -12z"/>
<path d="M17060 16460 c0 -18 7 -20 55 -20 l55 0 0 -140 c0 -133 1 -140 20
-140 19 0 20 7 20 140 l0 140 55 0 c48 0 55 2 55 20 0 19 -7 20 -130 20 -123
0 -130 -1 -130 -20z"/>
<path d="M17380 16321 c0 -154 1 -161 20 -161 17 0 20 7 20 44 l0 43 65 6
c108 10 148 42 148 120 0 30 -7 46 -31 70 -30 30 -36 31 -127 35 l-95 4 0
-161z m184 98 c31 -24 35 -66 8 -99 -14 -17 -32 -23 -85 -27 l-67 -6 0 77 0
76 59 0 c44 0 65 -5 85 -21z"/>
<path d="M17902 16464 c-18 -10 -45 -33 -60 -52 -35 -47 -38 -135 -6 -179 38
-51 81 -73 143 -73 70 0 133 32 110 56 -13 12 -20 11 -57 -8 -38 -18 -48 -19
-82 -9 -58 17 -90 61 -90 123 0 44 4 54 34 84 29 29 41 34 83 34 29 0 58 -7
72 -16 20 -14 25 -15 38 -2 39 40 -119 76 -185 42z"/>
<path d="M15841 16392 c-37 -20 -71 -73 -71 -110 0 -12 6 -37 14 -55 44 -105
203 -91 235 21 30 103 -85 196 -178 144z m122 -53 c10 -12 17 -38 17 -61 0
-75 -75 -113 -134 -67 -37 29 -37 99 0 136 21 21 32 24 62 19 20 -3 45 -15 55
-27z"/>
<path d="M18203 16395 c-72 -31 -96 -144 -43 -200 77 -82 220 -25 220 87 0 45
-34 96 -75 114 -42 17 -61 17 -102 -1z m108 -54 c32 -33 37 -67 14 -110 -41
-79 -155 -39 -155 55 0 34 51 84 85 84 16 0 38 -12 56 -29z"/>
<path d="M16088 16323 c-5 -100 9 -139 57 -159 38 -16 79 -11 108 14 15 14 17
13 17 -1 0 -10 8 -17 20 -17 19 0 20 7 20 120 0 113 -1 120 -20 120 -18 0 -20
-7 -20 -84 0 -80 -1 -86 -27 -106 -20 -16 -36 -20 -58 -16 -46 9 -55 30 -55
123 0 75 -2 83 -19 83 -17 0 -20 -9 -23 -77z"/>
<path d="M16400 16280 c0 -113 1 -120 20 -120 18 0 20 7 20 68 0 82 15 114 58
127 21 6 32 15 32 27 0 23 -32 24 -65 2 -23 -15 -25 -15 -25 0 0 9 -8 16 -20
16 -19 0 -20 -7 -20 -120z"/>
<path d="M18774 16366 c-28 -28 -34 -42 -34 -76 0 -77 55 -133 131 -133 50 0
95 28 79 48 -11 13 -15 13 -33 0 -26 -18 -60 -19 -90 -3 -23 12 -46 37 -47 51
0 4 45 7 100 7 l100 0 0 25 c0 34 -24 80 -52 99 -13 9 -43 16 -71 16 -42 0
-54 -5 -83 -34z m149 -27 c9 -12 17 -25 17 -30 0 -5 -36 -9 -80 -9 -77 0 -80
1 -70 19 28 53 96 63 133 20z"/>
<path d="M16296 15908 c-54 -11 -91 -41 -116 -93 -38 -79 -8 -170 71 -210 61
-32 177 -15 233 34 18 15 18 14 11 -34 -9 -62 -38 -120 -71 -142 -47 -30 -133
-34 -195 -9 -11 5 -19 -1 -27 -19 -7 -15 -10 -30 -7 -35 10 -16 116 -32 163
-25 143 21 220 133 210 305 -5 90 -39 161 -92 198 -40 27 -125 41 -180 30z
m157 -98 c24 -27 28 -39 23 -68 -11 -72 -81 -112 -157 -92 -69 19 -100 75 -74
136 21 51 51 66 119 61 52 -3 63 -8 89 -37z"/>
<path d="M16807 15906 c-54 -15 -99 -53 -130 -111 -19 -34 -22 -56 -22 -150 0
-94 3 -116 22 -151 52 -97 152 -143 244 -113 87 30 143 111 155 225 21 201
-107 343 -269 300z m121 -76 c49 -30 72 -88 72 -185 0 -131 -48 -205 -134
-205 -86 0 -135 62 -144 180 -5 79 10 138 45 180 45 54 104 64 161 30z"/>
<path d="M17253 15911 c-36 -9 -123 -58 -123 -70 0 -4 11 -17 23 -30 22 -20
25 -20 38 -5 52 63 204 54 230 -13 22 -58 -2 -97 -147 -237 -97 -94 -134 -135
-134 -152 l0 -24 190 0 190 0 0 30 0 30 -137 0 -138 1 116 112 c106 102 117
117 128 164 28 117 -25 182 -159 197 -25 2 -59 1 -77 -3z"/>
<path d="M18045 15911 c-114 -28 -175 -123 -175 -275 0 -195 159 -319 310
-241 99 51 148 218 105 361 -33 110 -139 179 -240 155z m106 -84 c52 -34 73
-87 74 -182 0 -137 -48 -205 -144 -205 -50 0 -104 43 -122 98 -21 61 -16 180
10 230 40 78 117 103 182 59z"/>
<path d="M17552 15878 c3 -33 3 -33 66 -36 l62 -3 0 -229 0 -230 35 0 35 0 0
265 0 265 -101 0 -100 0 3 -32z"/>
<path d="M14701 14768 c-5 -18 -35 -130 -67 -248 -31 -118 -58 -220 -61 -226
-3 -10 86 -13 384 -16 375 -4 390 -5 445 -26 80 -32 150 -99 190 -180 l33 -67
3 -305 3 -305 -50 84 c-179 297 -378 424 -722 462 -143 16 -255 7 -327 -26
-31 -14 -64 -32 -72 -40 -9 -8 -56 -26 -106 -40 -49 -14 -141 -51 -204 -82
-96 -48 -126 -69 -190 -132 -162 -162 -237 -410 -166 -555 25 -50 115 -146
137 -146 5 0 7 -11 3 -25 -6 -26 4 -33 22 -15 11 11 179 -58 228 -94 31 -24
110 -66 122 -66 4 0 4 14 0 31 -7 38 9 107 32 133 46 52 111 50 169 -6 41 -40
56 -86 51 -154 -3 -30 0 -54 5 -54 5 0 32 -20 60 -43 72 -61 166 -123 238
-157 38 -18 89 -56 142 -107 132 -126 248 -195 446 -265 252 -89 356 -176 538
-453 170 -257 280 -326 501 -312 103 6 174 38 233 105 196 223 126 569 -177
869 -71 71 -73 73 -51 85 14 8 60 12 132 11 172 -2 357 -57 525 -158 118 -70
112 -63 93 -124 -15 -45 -15 -53 -3 -61 55 -35 456 -190 492 -190 6 0 7 13 2
33 -12 55 -123 393 -192 585 -56 156 -69 182 -86 182 -12 0 -108 -9 -215 -21
-165 -18 -195 -19 -207 -7 -11 11 -17 109 -27 473 -8 253 -10 468 -5 477 4 9
16 19 25 22 34 9 431 47 465 44 31 -3 33 -6 40 -48 3 -25 7 -109 7 -187 1
-107 4 -144 14 -150 8 -4 33 -36 56 -69 l43 -61 18 -160 18 -159 90 -139 c215
-336 339 -589 393 -800 29 -114 31 -248 6 -321 -38 -110 -137 -183 -258 -192
-118 -8 -401 51 -653 137 -66 22 -121 40 -122 38 -1 -1 42 -72 95 -158 53 -87
121 -205 151 -263 l55 -106 513 0 512 0 0 1805 0 1805 -539 0 c-505 0 -540 -1
-545 -17 -3 -10 -35 -151 -71 -313 -36 -162 -69 -302 -72 -310 -3 -8 -27 82
-54 200 -27 118 -61 266 -75 328 l-26 112 -589 0 -589 0 0 -891 c0 -745 -2
-890 -13 -880 -8 6 -39 60 -70 120 l-57 109 0 770 0 771 -392 3 c-387 3 -394
4 -453 27 -73 29 -96 43 -162 98 l-51 43 -11 -32z"/>
<path d="M13968 12783 c17 -3 22 -11 22 -37 0 -33 25 -66 49 -66 13 0 10 16
-15 77 -12 28 -19 33 -47 32 -23 -1 -26 -3 -9 -6z"/>
<path d="M14080 12558 c0 -31 -5 -69 -10 -84 -7 -17 -7 -31 -1 -38 6 -7 15
-54 21 -106 34 -293 127 -515 283 -674 l79 -79 26 34 c44 59 138 146 178 167
22 11 48 30 59 42 28 33 200 169 263 209 l53 34 -52 53 c-30 30 -58 54 -64 54
-21 0 -55 46 -55 74 0 28 0 28 -54 -21 -56 -52 -163 -113 -233 -133 -39 -12
-46 -11 -100 15 -116 57 -298 280 -369 453 l-24 57 0 -57z"/>
<path d="M21280 12516 c0 -2 -85 -334 -190 -737 -104 -404 -190 -740 -190
-746 0 -10 46 -13 195 -13 l195 0 0 750 c0 413 -2 750 -5 750 -3 0 -5 -2 -5
-4z"/>
<path d="M17435 10433 c-362 -24 -779 -101 -1071 -198 -210 -70 -440 -182
-544 -264 l-24 -19 2 -594 3 -593 -86 -595 c-48 -327 -100 -685 -116 -795 -16
-110 -29 -206 -29 -212 0 -7 -9 -13 -19 -13 -21 0 -27 -26 -33 -124 l-3 -49
385 -119 c474 -146 813 -248 823 -248 4 0 26 37 47 82 39 79 39 83 20 90 -19
7 -19 9 11 90 88 241 103 278 108 272 3 -3 20 -78 37 -167 30 -157 30 -162 12
-171 -17 -8 -18 -17 -13 -65 11 -99 6 -94 98 -86 70 6 825 101 1084 136 93 13
86 4 98 133 5 48 3 71 -5 76 -9 6 -5 44 14 157 82 473 103 972 60 1431 -53
563 -206 1118 -435 1574 -27 54 -49 102 -49 108 0 14 -57 104 -88 140 l-26 30
-106 -2 c-58 -1 -127 -3 -155 -5z"/>
<path d="M4697 9194 c-59 -18 -129 -85 -147 -139 -7 -23 -10 -62 -7 -97 7 -76
40 -125 110 -164 46 -26 62 -29 137 -29 91 0 129 13 183 63 l27 26 0 -45 c0
-63 -25 -142 -57 -180 -59 -70 -185 -98 -283 -64 -24 8 -45 14 -46 12 -2 -2
-10 -19 -18 -39 l-16 -36 48 -19 c74 -28 211 -24 282 9 166 77 235 278 173
508 -33 126 -129 201 -263 207 -48 2 -92 -3 -123 -13z m216 -93 c93 -57 86
-186 -14 -239 -82 -44 -204 -15 -242 58 -35 67 -4 159 65 194 45 23 144 16
191 -13z"/>
<path d="M6456 9190 c-101 -40 -169 -144 -189 -287 -28 -198 63 -386 207 -428
108 -32 203 -9 281 69 78 77 99 139 99 291 0 103 -3 128 -23 179 -28 69 -88
139 -146 168 -58 31 -165 34 -229 8z m210 -105 c86 -66 117 -246 68 -398 -55
-168 -253 -181 -337 -22 -16 31 -22 63 -25 143 -7 163 28 254 111 293 57 27
135 20 183 -16z"/>
<path d="M8153 9196 c-49 -16 -102 -47 -129 -77 -19 -21 -19 -21 15 -49 l34
-29 36 28 c92 72 237 67 289 -9 55 -82 25 -136 -194 -349 -162 -157 -174 -172
-174 -205 l0 -36 260 0 260 0 0 45 0 45 -187 0 -188 0 142 138 c78 75 153 156
168 179 32 50 44 141 25 197 -17 52 -74 103 -133 121 -61 18 -167 18 -224 1z"/>
<path d="M11650 9195 c-67 -21 -124 -75 -162 -152 -29 -60 -33 -78 -37 -172
-4 -108 9 -191 37 -246 86 -171 303 -217 439 -92 84 78 119 181 111 336 -8
152 -60 252 -158 305 -64 35 -160 44 -230 21z m169 -93 c83 -42 127 -154 118
-298 -8 -131 -51 -209 -133 -240 -68 -26 -128 -12 -180 40 -52 52 -74 120 -74
231 0 136 39 227 115 265 49 25 109 26 154 2z"/>
<path d="M9832 9158 l3 -43 83 -3 82 -3 0 -319 0 -320 50 0 50 0 0 365 0 365
-136 0 -135 0 3 -42z"/>
<path d="M6125 4043 c-26 -65 -303 -734 -615 -1488 -313 -753 -571 -1380 -575
-1393 -9 -32 11 -84 46 -118 l30 -29 1902 -2 c1731 -3 1899 -2 1872 13 -45 23
-72 52 -96 102 -26 53 -24 88 21 342 43 246 460 2676 460 2684 0 3 -674 6
-1499 6 l-1498 0 -48 -117z"/>
<path d="M14748 1369 c-27 -15 -22 -44 11 -72 l30 -25 -45 -5 c-52 -5 -74 -21
-74 -51 0 -48 46 -58 135 -31 27 8 51 13 53 10 5 -5 -93 -82 -168 -130 -96
-62 -153 -89 -266 -124 -56 -17 -113 -40 -128 -52 -71 -55 6 -135 159 -164 60
-12 169 -15 508 -15 407 0 434 1 463 19 44 27 48 62 24 221 -11 74 -23 179
-27 232 -5 75 -10 98 -22 103 -33 13 -173 16 -304 7 -120 -8 -141 -12 -161
-31 l-23 -21 -18 40 c-34 76 -101 116 -147 89z m76 -30 c14 -11 33 -34 42 -51
15 -29 15 -30 -8 -23 -41 12 -108 55 -108 70 0 13 14 23 36 24 6 1 23 -8 38
-20z m-1 -95 c20 -4 37 -10 37 -14 0 -9 -107 -40 -138 -40 -43 0 -38 46 6 53
46 7 56 7 95 1z"/>
<path d="M17182 1364 c-29 -20 -28 -31 8 -64 l29 -27 -40 -6 c-53 -7 -71 -23
-67 -61 3 -28 7 -31 41 -34 21 -2 61 4 90 12 28 8 53 13 55 11 2 -2 -36 -33
-84 -69 -109 -81 -256 -158 -353 -185 -161 -45 -197 -104 -102 -168 81 -55
101 -57 586 -61 247 -2 465 -1 482 3 49 9 73 40 73 94 0 25 -9 118 -20 206
-12 88 -24 185 -28 215 l-7 55 -75 8 c-41 5 -142 4 -223 -1 -132 -8 -150 -12
-172 -32 l-24 -22 -25 50 c-42 83 -95 111 -144 76z m87 -35 c38 -37 56 -69 41
-69 -17 0 -105 47 -119 63 -10 13 -9 17 6 26 28 16 39 13 72 -20z m16 -89 c11
0 15 -3 10 -9 -16 -14 -106 -41 -137 -41 -25 0 -29 4 -26 22 3 26 42 39 98 32
19 -2 44 -4 55 -4z"/>
</g>
</svg>
